<svg width="119" height="83" viewBox="0 0 119 83" fill="none" xmlns="http://www.w3.org/2000/svg">
<g filter="url(#filter0_d)">
<path d="M54.7109 43.9473C54.7109 53.5501 52.5462 60.9557 48.2168 66.1641C43.9199 71.3724 37.849 73.9766 30.0039 73.9766C22.0938 73.9766 15.974 71.3561 11.6445 66.1152C7.3151 60.8743 5.15039 53.485 5.15039 43.9473V30.959C5.15039 21.3561 7.29883 13.9505 11.5957 8.74219C15.9251 3.53385 22.0286 0.929688 29.9062 0.929688C37.7839 0.929688 43.8874 3.55013 48.2168 8.79102C52.5462 14.0319 54.7109 21.4375 54.7109 31.0078V43.9473ZM38.2559 28.8594C38.2559 23.7487 37.5885 19.9401 36.2539 17.4336C34.9193 14.8945 32.8034 13.625 29.9062 13.625C27.0742 13.625 25.0072 14.7969 23.7051 17.1406C22.4355 19.4844 21.752 23.0326 21.6543 27.7852V45.9492C21.6543 51.2552 22.3216 55.1452 23.6562 57.6191C24.9909 60.0605 27.1068 61.2812 30.0039 61.2812C32.8034 61.2812 34.8704 60.0931 36.2051 57.7168C37.5397 55.3079 38.2233 51.5482 38.2559 46.4375V28.8594ZM106.713 45.2168H113.939V57.9121H106.713V73H90.2578V57.9121H62.7676L61.791 47.8535L90.2578 2.05273V1.90625H106.713V45.2168ZM77.4648 45.2168H90.2578V23.3418L89.2324 25.002L77.4648 45.2168Z" fill="white"/>
<path d="M48.2168 66.1641L47.8323 65.8444L47.8311 65.8459L48.2168 66.1641ZM11.5957 8.74219L11.2112 8.42257L11.21 8.424L11.5957 8.74219ZM36.2539 17.4336L35.8113 17.6662L35.8126 17.6686L36.2539 17.4336ZM23.7051 17.1406L23.268 16.8978L23.2654 16.9025L23.7051 17.1406ZM21.6543 27.7852L21.1543 27.7749V27.7852H21.6543ZM23.6562 57.6191L23.2162 57.8565L23.2175 57.859L23.6562 57.6191ZM36.2051 57.7168L36.641 57.9616L36.6424 57.9591L36.2051 57.7168ZM38.2559 46.4375L38.7559 46.4407V46.4375H38.2559ZM54.2109 43.9473C54.2109 53.4814 52.0613 60.7569 47.8323 65.8444L48.6013 66.4837C53.0312 61.1545 55.2109 53.6189 55.2109 43.9473H54.2109ZM47.8311 65.8459C43.6451 70.9198 37.7267 73.4766 30.0039 73.4766V74.4766C37.9712 74.4766 44.1947 71.825 48.6025 66.4823L47.8311 65.8459ZM30.0039 73.4766C22.2157 73.4766 16.2484 70.9032 12.03 65.7968L11.2591 66.4337C15.6995 71.809 21.9718 74.4766 30.0039 74.4766V73.4766ZM12.03 65.7968C7.7995 60.6757 5.65039 53.415 5.65039 43.9473H4.65039C4.65039 53.555 6.83071 61.0731 11.2591 66.4337L12.03 65.7968ZM5.65039 43.9473V30.959H4.65039V43.9473H5.65039ZM5.65039 30.959C5.65039 21.4241 7.78413 14.148 11.9814 9.06038L11.21 8.424C6.81352 13.7531 4.65039 21.2881 4.65039 30.959H5.65039ZM11.9802 9.06181C16.1986 3.98702 22.1502 1.42969 29.9062 1.42969V0.429688C21.9071 0.429688 15.6516 3.08069 11.2112 8.42257L11.9802 9.06181ZM29.9062 1.42969C37.6612 1.42969 43.6125 4.0025 47.8313 9.10946L48.6023 8.47257C44.1622 3.09776 37.9065 0.429688 29.9062 0.429688V1.42969ZM47.8313 9.10946C52.0616 14.2303 54.2109 21.507 54.2109 31.0078H55.2109C55.2109 21.368 53.0308 13.8335 48.6023 8.47257L47.8313 9.10946ZM54.2109 31.0078V43.9473H55.2109V31.0078H54.2109ZM38.7559 28.8594C38.7559 23.7226 38.0881 19.8144 36.6952 17.1986L35.8126 17.6686C37.089 20.0658 37.7559 23.7748 37.7559 28.8594H38.7559ZM36.6965 17.201C35.9936 15.8637 35.0718 14.8375 33.9233 14.1484C32.775 13.4594 31.4295 13.125 29.9062 13.125V14.125C31.2802 14.125 32.4412 14.4253 33.4088 15.0059C34.3761 15.5863 35.1796 16.4644 35.8113 17.6662L36.6965 17.201ZM29.9062 13.125C28.4204 13.125 27.1073 13.4329 25.9853 14.0689C24.862 14.7058 23.9578 15.6562 23.268 16.8978L24.1422 17.3834C24.7544 16.2813 25.5348 15.4739 26.4785 14.9389C27.4236 14.4031 28.5601 14.125 29.9062 14.125V13.125ZM23.2654 16.9025C21.9388 19.3516 21.2526 22.9959 21.1544 27.7749L22.1542 27.7954C22.2513 23.0692 22.9323 19.6171 24.1447 17.3788L23.2654 16.9025ZM21.1543 27.7852V45.9492H22.1543V27.7852H21.1543ZM21.1543 45.9492C21.1543 51.2767 21.8208 55.27 23.2162 57.8565L24.0963 57.3817C22.8224 55.0204 22.1543 51.2337 22.1543 45.9492H21.1543ZM23.2175 57.859C23.9226 59.1488 24.8463 60.1365 25.9943 60.7988C27.1412 61.4605 28.484 61.7812 30.0039 61.7812V60.7812C28.6267 60.7812 27.4629 60.4916 26.494 59.9326C25.5261 59.3743 24.7245 58.5309 24.095 57.3793L23.2175 57.859ZM30.0039 61.7812C31.4757 61.7812 32.7814 61.4683 33.903 60.8236C35.0253 60.1785 35.936 59.2169 36.641 57.9616L35.7691 57.4719C35.1395 58.593 34.3494 59.4136 33.4046 59.9566C32.4592 60.5001 31.3315 60.7812 30.0039 60.7812V61.7812ZM36.6424 57.9591C38.0392 55.438 38.7231 51.5748 38.7558 46.4407L37.7559 46.4343C37.7235 51.5216 37.0402 55.1778 35.7677 57.4745L36.6424 57.9591ZM38.7559 46.4375V28.8594H37.7559V46.4375H38.7559ZM106.713 45.2168H106.213V45.7168H106.713V45.2168ZM113.939 45.2168H114.439V44.7168H113.939V45.2168ZM113.939 57.9121V58.4121H114.439V57.9121H113.939ZM106.713 57.9121V57.4121H106.213V57.9121H106.713ZM106.713 73V73.5H107.213V73H106.713ZM90.2578 73H89.7578V73.5H90.2578V73ZM90.2578 57.9121H90.7578V57.4121H90.2578V57.9121ZM62.7676 57.9121L62.2699 57.9604L62.3138 58.4121H62.7676V57.9121ZM61.791 47.8535L61.3664 47.5896L61.277 47.7333L61.2934 47.9018L61.791 47.8535ZM90.2578 2.05273L90.6825 2.31668L90.7578 2.19546V2.05273H90.2578ZM90.2578 1.90625V1.40625H89.7578V1.90625H90.2578ZM106.713 1.90625H107.213V1.40625H106.713V1.90625ZM77.4648 45.2168L77.0327 44.9652L76.5952 45.7168H77.4648V45.2168ZM90.2578 45.2168V45.7168H90.7578V45.2168H90.2578ZM90.2578 23.3418H90.7578V21.5808L89.8324 23.0791L90.2578 23.3418ZM89.2324 25.002L88.8069 24.7391L88.8003 24.7504L89.2324 25.002ZM106.713 45.7168H113.939V44.7168H106.713V45.7168ZM113.439 45.2168V57.9121H114.439V45.2168H113.439ZM113.939 57.4121H106.713V58.4121H113.939V57.4121ZM106.213 57.9121V73H107.213V57.9121H106.213ZM106.713 72.5H90.2578V73.5H106.713V72.5ZM90.7578 73V57.9121H89.7578V73H90.7578ZM90.2578 57.4121H62.7676V58.4121H90.2578V57.4121ZM63.2652 57.8638L62.2887 47.8052L61.2934 47.9018L62.2699 57.9604L63.2652 57.8638ZM62.2157 48.1175L90.6825 2.31668L89.8332 1.78879L61.3664 47.5896L62.2157 48.1175ZM90.7578 2.05273V1.90625H89.7578V2.05273H90.7578ZM90.2578 2.40625H106.713V1.40625H90.2578V2.40625ZM106.213 1.90625V45.2168H107.213V1.90625H106.213ZM77.4648 45.7168H90.2578V44.7168H77.4648V45.7168ZM90.7578 45.2168V23.3418H89.7578V45.2168H90.7578ZM89.8324 23.0791L88.807 24.7392L89.6578 25.2647L90.6832 23.6045L89.8324 23.0791ZM88.8003 24.7504L77.0327 44.9652L77.897 45.4683L89.6645 25.2535L88.8003 24.7504Z" fill="#13007C"/>
</g>
<defs>
<filter id="filter0_d" x="0.650391" y="0.429688" width="117.789" height="82.0469" filterUnits="userSpaceOnUse" color-interpolation-filters="sRGB">
<feFlood flood-opacity="0" result="BackgroundImageFix"/>
<feColorMatrix in="SourceAlpha" type="matrix" values="0 0 0 0 0 0 0 0 0 0 0 0 0 0 0 0 0 0 127 0" result="hardAlpha"/>
<feOffset dy="4"/>
<feGaussianBlur stdDeviation="2"/>
<feColorMatrix type="matrix" values="0 0 0 0 0.0745098 0 0 0 0 0 0 0 0 0 0.486275 0 0 0 0.25 0"/>
<feBlend mode="normal" in2="BackgroundImageFix" result="effect1_dropShadow"/>
<feBlend mode="normal" in="SourceGraphic" in2="effect1_dropShadow" result="shape"/>
</filter>
</defs>
</svg>
