<svg width="376" height="72" viewBox="0 0 376 72" fill="none" xmlns="http://www.w3.org/2000/svg">
<path d="M2.18 2.62C2.18 2.86 2.08667 3.06667 1.9 3.24C1.72667 3.4 1.50667 3.48 1.24 3.48C0.986667 3.48 0.786667 3.40667 0.64 3.26C0.493333 3.1 0.42 2.89333 0.42 2.64C0.42 2.04 0.926667 1.38 1.94 0.659999L2.38 1.3C1.84667 1.72667 1.57333 1.95333 1.56 1.98C1.97333 2.11333 2.18 2.32667 2.18 2.62ZM4.6 2.66C4.6 2.9 4.50667 3.10667 4.32 3.28C4.14667 3.44 3.92667 3.52 3.66 3.52C3.40667 3.52 3.20667 3.44667 3.06 3.3C2.91333 3.14 2.84 2.93333 2.84 2.68C2.84 2.08 3.34667 1.42 4.36 0.7L4.8 1.34C4.74667 1.38 4.64667 1.46 4.5 1.58C4.35333 1.68667 4.23333 1.77333 4.14 1.84C4.06 1.90667 4.00667 1.96667 3.98 2.02C4.39333 2.15333 4.6 2.36667 4.6 2.66ZM10.8281 13.82L11.4281 13.84C11.5081 13.56 11.6881 13.0267 11.9681 12.24C12.2615 11.4533 12.4681 10.9333 12.5881 10.68C11.2015 11.9867 10.1281 12.7733 9.36813 13.04C8.95479 13.1867 8.53479 13.26 8.10813 13.26C7.40146 13.26 6.85479 13.0267 6.46812 12.56C6.08146 12.0933 5.88813 11.44 5.88813 10.6C5.88813 9.4 6.44146 7.8 7.54813 5.8C8.65479 3.78667 9.91479 2.21333 11.3281 1.08L12.1281 1.82C9.16813 5.00667 7.68813 7.66667 7.68813 9.8C7.68813 11.04 8.17479 11.66 9.14813 11.66C10.1215 11.66 11.0681 11.1267 11.9881 10.06C12.9081 8.99333 13.8615 7.34 14.8481 5.1C15.2481 4.18 15.5548 3.57333 15.7681 3.28C15.9815 2.98667 16.1881 2.84 16.3881 2.84C16.5881 2.84 16.7415 2.9 16.8481 3.02C16.9681 3.14 17.0281 3.3 17.0281 3.5C17.0281 4.35333 16.4148 5.62 15.1881 7.3C14.3348 9.06 13.4748 11.2467 12.6081 13.86C13.2348 13.9 13.9015 14.0533 14.6081 14.32L14.4081 15L12.2881 14.7C11.5015 16.62 10.5481 18.0533 9.42813 19C8.32146 19.96 6.99479 20.44 5.44813 20.44C4.64813 20.44 3.98146 20.22 3.44812 19.78C2.90146 19.3533 2.62812 18.8133 2.62812 18.16C2.62812 16.96 3.43479 15.9333 5.04813 15.08C6.66146 14.24 8.58813 13.82 10.8281 13.82ZM6.34813 19.06C7.42813 19.06 8.38146 18.62 9.20813 17.74C10.0481 16.8733 10.6681 15.8533 11.0681 14.68C9.28146 14.68 7.78146 14.98 6.56813 15.58C5.35479 16.1933 4.74813 16.9333 4.74813 17.8C4.74813 18.1733 4.89479 18.4733 5.18813 18.7C5.49479 18.94 5.88146 19.06 6.34813 19.06ZM29.6814 2.8C29.6814 2.08 29.9481 1.52667 30.4814 1.14C31.0147 0.753333 31.7681 0.559999 32.7414 0.559999C33.7281 0.546666 34.3947 0.619999 34.7414 0.78L34.5614 1.62C34.0947 1.55333 33.5881 1.52 33.0414 1.52C31.8681 1.52 31.2814 2.00667 31.2814 2.98C31.2814 3.24667 31.6347 4.03333 32.3414 5.34C33.0614 6.64667 33.4747 7.43333 33.5814 7.7C33.7014 7.96667 33.8014 8.32 33.8814 8.76C33.9747 9.18667 34.0214 9.50667 34.0214 9.72C34.0214 10.8933 33.6547 11.9067 32.9214 12.76C32.1881 13.6 31.3014 14.02 30.2614 14.02C29.4881 14.02 28.8814 13.8 28.4414 13.36C28.0147 12.9067 27.8014 12.26 27.8014 11.42C27.8014 10.5667 28.0747 9.72667 28.6214 8.9C29.1681 8.07333 29.8614 7.45333 30.7014 7.04L30.9614 7.82C29.9347 8.46 29.4214 9.36667 29.4214 10.54C29.4214 11.1133 29.5614 11.58 29.8414 11.94C30.1214 12.2867 30.5081 12.46 31.0014 12.46C31.4947 12.46 31.9214 12.24 32.2814 11.8C32.6547 11.36 32.8414 10.8067 32.8414 10.14C32.8414 9.47333 32.7481 8.94 32.5614 8.54C32.3881 8.14 32.0547 7.52 31.5614 6.68C30.3081 4.48 29.6814 3.18667 29.6814 2.8ZM43.4833 12.74L43.5433 13.26C43.4899 13.3 42.8699 13.54 41.6833 13.98C41.5233 14.86 41.3166 15.7267 41.0633 16.58C40.8233 17.4467 40.5766 18.1 40.3233 18.54C40.0833 18.9933 39.7966 19.44 39.4633 19.88C38.7966 20.76 37.8966 21.2 36.7633 21.2C36.2033 21.2 35.7566 21.0267 35.4233 20.68C35.0899 20.3333 34.9233 19.86 34.9233 19.26C34.9233 16.9533 36.8566 15.1 40.7233 13.7L41.8033 9.9C40.6566 11.62 39.6233 12.68 38.7033 13.08C38.2499 13.2933 37.7699 13.4 37.2633 13.4C36.7699 13.4 36.3699 13.24 36.0633 12.92C35.7699 12.6 35.6233 12.1333 35.6233 11.52C35.6233 10.9067 35.8299 10.0533 36.2433 8.96C36.6699 7.85333 37.1433 6.92667 37.6633 6.18L38.6433 6.6C38.6033 6.64 38.4166 6.99333 38.0833 7.66C37.4966 8.87333 37.2033 9.77333 37.2033 10.36C37.2033 10.9467 37.3166 11.34 37.5433 11.54C37.7699 11.74 38.1033 11.84 38.5433 11.84C38.9833 11.84 39.4766 11.58 40.0233 11.06C40.5833 10.5267 41.4433 9.48 42.6033 7.92L43.3233 8.34C43.2166 8.78 42.9766 9.58 42.6033 10.74C42.2433 11.8867 41.9966 12.7667 41.8633 13.38L43.4833 12.74ZM40.6033 14.3C39.7633 14.6867 39.0233 15.1267 38.3833 15.62C37.1833 16.5267 36.5833 17.4067 36.5833 18.26C36.5833 18.58 36.6766 18.84 36.8633 19.04C37.0499 19.24 37.2833 19.34 37.5633 19.34C38.8966 19.34 39.9099 17.66 40.6033 14.3ZM53.2973 13.28L53.3173 13.76C53.184 13.84 52.5773 14.08 51.4973 14.48C51.0707 17.0267 50.444 18.8667 49.6173 20C48.7907 21.1333 47.7773 21.7 46.5773 21.7C46.0173 21.7 45.5707 21.52 45.2373 21.16C44.904 20.8 44.7373 20.3333 44.7373 19.76C44.7373 18.6133 45.264 17.54 46.3173 16.54C47.3707 15.5533 48.7773 14.7733 50.5373 14.2C50.7373 13.3067 51.0973 12.0467 51.6173 10.42C50.724 11.78 49.9107 12.7 49.1773 13.18C48.4573 13.66 47.804 13.9 47.2173 13.9C46.6307 13.9 46.184 13.74 45.8773 13.42C45.584 13.1 45.4373 12.6733 45.4373 12.14C45.4373 11.26 45.804 10.3667 46.5373 9.46C47.2707 8.54 48.1907 7.79333 49.2973 7.22C50.4173 6.63333 51.4973 6.34 52.5373 6.34L52.6973 7.04C51.2173 7.2 49.944 7.72 48.8773 8.6C47.824 9.48 47.2973 10.3267 47.2973 11.14C47.2973 11.4867 47.404 11.7733 47.6173 12C47.8307 12.2267 48.0907 12.34 48.3973 12.34C48.8507 12.34 49.5373 11.86 50.4573 10.9C51.3773 9.94 52.024 9.12 52.3973 8.44L53.1373 8.86C52.404 10.82 51.8973 12.4733 51.6173 13.82L53.2973 13.28ZM50.4173 14.8C49.2573 15.3333 48.2973 15.9733 47.5373 16.72C46.7773 17.4667 46.3973 18.1467 46.3973 18.76C46.3973 19.08 46.4907 19.34 46.6773 19.54C46.864 19.74 47.0973 19.84 47.3773 19.84C47.9373 19.84 48.4907 19.4467 49.0373 18.66C49.584 17.8733 50.044 16.5867 50.4173 14.8ZM62.3723 11.66L62.7923 12C62.5657 12.56 62.2057 13.0333 61.7123 13.42C61.2323 13.8067 60.7923 14 60.3923 14C60.0057 14 59.699 13.8667 59.4723 13.6C59.2457 13.32 59.1323 12.96 59.1323 12.52C59.1323 12.08 59.2057 11.5133 59.3523 10.82C58.7257 11.8067 58.0523 12.58 57.3323 13.14C56.6123 13.7 56.0057 13.98 55.5123 13.98C54.7657 13.98 54.3923 13.5333 54.3923 12.64C54.3923 11.7467 54.699 10.5467 55.3123 9.04C55.939 7.52 56.3857 6.65333 56.6523 6.44L57.6123 6.86C57.0657 7.74 56.6523 8.60667 56.3723 9.46C56.0923 10.3133 55.9523 10.8867 55.9523 11.18C55.9523 11.46 56.039 11.6867 56.2123 11.86C56.399 12.0333 56.6123 12.12 56.8523 12.12C57.3857 12.12 58.0457 11.6333 58.8323 10.66C59.6323 9.67333 60.4457 8.20667 61.2723 6.26L62.2923 6.72C62.2657 6.82667 61.959 7.6 61.3723 9.04C60.799 10.48 60.5123 11.3467 60.5123 11.64C60.5123 11.92 60.5723 12.1333 60.6923 12.28C60.8257 12.4267 60.9523 12.5 61.0723 12.5C61.2057 12.5 61.3057 12.4933 61.3723 12.48C61.439 12.4667 61.5057 12.44 61.5723 12.4C61.639 12.36 61.6923 12.3267 61.7323 12.3C61.7857 12.2733 61.8457 12.2267 61.9123 12.16L62.0523 12C62.0923 11.9733 62.1457 11.92 62.2123 11.84C62.2923 11.7467 62.3457 11.6867 62.3723 11.66ZM72.1123 6.22L72.8923 6.4C72.879 6.49333 72.6857 6.9 72.3123 7.62C71.9523 8.32667 71.5657 9.26 71.1523 10.42C70.739 11.5667 70.4723 12.7267 70.3523 13.9L69.0723 13.8C69.0723 13.0667 69.3057 12.12 69.7723 10.96C69.6523 10.9467 69.4057 10.94 69.0323 10.94C68.6723 10.94 68.0057 11.0267 67.0323 11.2C66.3523 12.72 66.0123 14.02 66.0123 15.1L64.6723 14.92C64.6723 13.9733 65.0257 12.8067 65.7323 11.42C65.0523 11.5267 64.3723 11.6867 63.6923 11.9L63.4923 11.12C63.4923 11.08 63.8457 10.9667 64.5523 10.78C65.2723 10.5933 65.8057 10.4733 66.1523 10.42C67.219 7.96667 67.9457 6.54667 68.3323 6.16L69.1923 6.5C69.1257 6.63333 68.9723 6.93333 68.7323 7.4C68.1323 8.56 67.7257 9.46667 67.5123 10.12C68.6723 10 69.3657 9.94 69.5923 9.94C69.8323 9.94 70.0323 9.94667 70.1923 9.96C71.1257 7.81333 71.7657 6.56667 72.1123 6.22ZM80.9984 11.78L81.4984 12.22C80.7251 13.4867 79.9051 14.12 79.0384 14.12C78.5451 14.12 78.0384 13.8 77.5184 13.16C77.0118 12.52 76.7051 11.9 76.5984 11.3C76.5184 11.4467 76.2918 11.8333 75.9184 12.46C75.5451 13.0867 75.2784 13.6 75.1184 14L73.9184 13.58C74.1984 11.94 74.5384 10.3933 74.9384 8.94C75.3518 7.48667 75.7384 6.46667 76.0984 5.88L76.9184 6.14C76.6784 6.75333 76.2784 8.38667 75.7184 11.04C76.4518 9.53333 77.1918 8.43333 77.9384 7.74C78.6851 7.03333 79.5051 6.56667 80.3984 6.34V7.66C79.4384 7.7 78.5118 8.34667 77.6184 9.6C77.6718 10.4667 77.9251 11.1867 78.3784 11.76C78.8451 12.3333 79.2851 12.62 79.6984 12.62C79.8984 12.62 80.3318 12.34 80.9984 11.78ZM86.9605 5.52C86.2138 5.52 85.8405 5.22 85.8405 4.62C85.8405 4.28667 85.9338 4.00667 86.1205 3.78C86.3071 3.55333 86.5471 3.44 86.8405 3.44C87.1338 3.44 87.3738 3.52667 87.5605 3.7C87.7471 3.87333 87.8405 4.1 87.8405 4.38C87.8405 4.66 87.7605 4.92 87.6005 5.16C87.4405 5.4 87.2271 5.52 86.9605 5.52ZM86.7005 11.42L87.1005 11.76C86.7805 12.3733 86.3538 12.9 85.8205 13.34C85.3005 13.7667 84.8271 13.98 84.4005 13.98C83.6538 13.98 83.2805 13.46 83.2805 12.42C83.2805 11.1267 83.8138 9.44 84.8805 7.36C85.1205 6.90667 85.2605 6.64 85.3005 6.56L86.1605 7.08C85.8805 7.58667 85.5338 8.39333 85.1205 9.5C84.7205 10.6067 84.5205 11.32 84.5205 11.64C84.5205 11.9467 84.5871 12.1667 84.7205 12.3C84.8538 12.4333 85.0138 12.5 85.2005 12.5C85.5605 12.5 86.0605 12.14 86.7005 11.42ZM91.0422 7.72C90.7222 9.24 90.5555 10.3467 90.5422 11.04C90.5422 11.9867 90.8155 12.46 91.3622 12.46C91.9489 12.46 92.4755 12.2067 92.9422 11.7C93.4089 11.1933 93.6422 10.6 93.6422 9.92C93.6422 9.24 93.3889 8.9 92.8822 8.9C92.7355 8.9 92.4155 8.98667 91.9222 9.16L91.6822 8.56C92.5355 7.96 93.2089 7.66 93.7022 7.66C94.6222 7.66 95.0822 8.12 95.0822 9.04C95.0822 10.12 94.6289 11.22 93.7222 12.34C92.8289 13.4467 91.8889 14 90.9022 14C89.8222 14 89.2822 13.2267 89.2822 11.68C89.2822 10.9467 89.4889 9.73333 89.9022 8.04L88.2822 8.64L88.2622 8.16C88.3955 8.08 89.0022 7.84 90.0822 7.44C90.5355 4.77333 91.1622 2.90667 91.9622 1.84C92.7622 0.76 93.7755 0.22 95.0022 0.22C95.5622 0.22 96.0089 0.399999 96.3422 0.759999C96.6755 1.12 96.8422 1.58667 96.8422 2.16C96.8422 3.30667 96.3155 4.38 95.2622 5.38C94.2089 6.36667 92.8022 7.14667 91.0422 7.72ZM91.1622 7.12C92.3222 6.58667 93.2822 5.94667 94.0422 5.2C94.8022 4.45333 95.1822 3.77333 95.1822 3.16C95.1822 2.84 95.0889 2.58 94.9022 2.38C94.7155 2.18 94.4822 2.08 94.2022 2.08C93.6422 2.08 93.0889 2.47333 92.5422 3.26C91.9955 4.04667 91.5355 5.33333 91.1622 7.12ZM97.0303 13.34C97.0303 13.1 97.117 12.9 97.2903 12.74C97.477 12.5667 97.697 12.48 97.9503 12.48C98.217 12.48 98.4236 12.56 98.5703 12.72C98.717 12.8667 98.7903 13.0667 98.7903 13.32C98.7903 13.9067 98.2836 14.5667 97.2703 15.3L96.8303 14.66C97.3636 14.2333 97.637 14.0067 97.6503 13.98C97.237 13.8467 97.0303 13.6333 97.0303 13.34ZM109.895 12.5L110.635 12.1C110.675 12.1533 110.729 12.2733 110.795 12.46C110.929 12.8867 111.102 13.1 111.315 13.1C111.782 13.0733 112.222 12.86 112.635 12.46C113.062 12.06 113.315 11.64 113.395 11.2C112.969 11.28 112.622 11.32 112.355 11.32C112.089 11.32 111.842 11.3067 111.615 11.28C111.402 11.24 111.182 11.1733 110.955 11.08C110.475 10.8933 110.235 10.4267 110.235 9.68C110.235 8.92 110.629 8.13333 111.415 7.32C112.202 6.50667 113.122 6.1 114.175 6.1C114.735 6.1 115.162 6.3 115.455 6.7C115.749 7.1 115.895 7.8 115.895 8.8C115.895 9.14667 115.849 9.67333 115.755 10.38C116.355 8.95333 116.669 7.59333 116.695 6.3L117.935 6.52C117.935 7.45333 117.642 8.86667 117.055 10.76C116.482 12.6533 116.029 13.86 115.695 14.38L114.435 14.14C114.835 13.1 115.035 11.94 115.035 10.66C115.035 9.38 114.942 8.54 114.755 8.14C114.555 7.7 114.222 7.48 113.755 7.48C113.302 7.48 112.862 7.63333 112.435 7.94C112.022 8.24667 111.809 8.60667 111.795 9.02C111.782 9.43333 111.929 9.75333 112.235 9.98C112.555 10.1933 112.902 10.3333 113.275 10.4C114.289 10.6 114.795 10.8533 114.795 11.16C114.795 11.4133 114.549 11.8133 114.055 12.36C113.562 12.9067 112.989 13.4133 112.335 13.88C111.695 14.3333 111.202 14.56 110.855 14.56C110.522 14.56 110.269 14.4 110.095 14.08C109.935 13.7733 109.855 13.4867 109.855 13.22C109.855 12.9533 109.869 12.7133 109.895 12.5ZM126.467 11.78L126.967 12.22C126.194 13.4867 125.374 14.12 124.507 14.12C124.014 14.12 123.507 13.8 122.987 13.16C122.481 12.52 122.174 11.9 122.067 11.3C121.987 11.4467 121.761 11.8333 121.387 12.46C121.014 13.0867 120.747 13.6 120.587 14L119.387 13.58C119.667 11.94 120.007 10.3933 120.407 8.94C120.821 7.48667 121.207 6.46667 121.567 5.88L122.387 6.14C122.147 6.75333 121.747 8.38667 121.187 11.04C121.921 9.53333 122.661 8.43333 123.407 7.74C124.154 7.03333 124.974 6.56667 125.867 6.34V7.66C124.907 7.7 123.981 8.34667 123.087 9.6C123.141 10.4667 123.394 11.1867 123.847 11.76C124.314 12.3333 124.754 12.62 125.167 12.62C125.367 12.62 125.801 12.34 126.467 11.78ZM146.179 12.74L146.239 13.26C146.185 13.3 145.565 13.54 144.379 13.98C144.219 14.86 144.012 15.7267 143.759 16.58C143.519 17.4467 143.272 18.1 143.019 18.54C142.779 18.9933 142.492 19.44 142.159 19.88C141.492 20.76 140.592 21.2 139.459 21.2C138.899 21.2 138.452 21.0267 138.119 20.68C137.785 20.3333 137.619 19.86 137.619 19.26C137.619 16.9533 139.552 15.1 143.419 13.7L144.499 9.9C143.352 11.62 142.319 12.68 141.399 13.08C140.945 13.2933 140.465 13.4 139.959 13.4C139.465 13.4 139.065 13.24 138.759 12.92C138.465 12.6 138.319 12.1333 138.319 11.52C138.319 10.9067 138.525 10.0533 138.939 8.96C139.365 7.85333 139.839 6.92667 140.359 6.18L141.339 6.6C141.299 6.64 141.112 6.99333 140.779 7.66C140.192 8.87333 139.899 9.77333 139.899 10.36C139.899 10.9467 140.012 11.34 140.239 11.54C140.465 11.74 140.799 11.84 141.239 11.84C141.679 11.84 142.172 11.58 142.719 11.06C143.279 10.5267 144.139 9.48 145.299 7.92L146.019 8.34C145.912 8.78 145.672 9.58 145.299 10.74C144.939 11.8867 144.692 12.7667 144.559 13.38L146.179 12.74ZM143.299 14.3C142.459 14.6867 141.719 15.1267 141.079 15.62C139.879 16.5267 139.279 17.4067 139.279 18.26C139.279 18.58 139.372 18.84 139.559 19.04C139.745 19.24 139.979 19.34 140.259 19.34C141.592 19.34 142.605 17.66 143.299 14.3ZM157.882 12.24L158.882 11.74C158.882 11.98 158.969 12.1867 159.142 12.36C159.329 12.5333 159.542 12.62 159.782 12.62C160.915 12.62 162.209 11.1267 163.662 8.14C163.742 7.96667 163.835 7.77333 163.942 7.56C164.049 7.33333 164.129 7.16667 164.182 7.06C164.235 6.94 164.295 6.80667 164.362 6.66C164.442 6.51333 164.502 6.40667 164.542 6.34C164.595 6.26 164.649 6.18667 164.702 6.12C164.822 6 164.955 5.94 165.102 5.94C165.262 5.94 165.402 6.01333 165.522 6.16C165.642 6.30667 165.702 6.48 165.702 6.68C165.702 6.86667 165.449 7.69333 164.942 9.16C164.449 10.6133 164.202 11.4933 164.202 11.8C164.202 12.1067 164.262 12.3333 164.382 12.48C164.515 12.6267 164.642 12.7 164.762 12.7C164.895 12.7 164.995 12.6933 165.062 12.68C165.129 12.6667 165.195 12.64 165.262 12.6C165.329 12.56 165.382 12.5267 165.422 12.5C165.475 12.4733 165.535 12.4267 165.602 12.36L165.742 12.2C165.782 12.1733 165.835 12.12 165.902 12.04C165.982 11.9467 166.035 11.8867 166.062 11.86L166.482 12.2C166.255 12.76 165.895 13.2333 165.402 13.62C164.922 14.0067 164.482 14.2 164.082 14.2C163.695 14.2 163.389 14.0667 163.162 13.8C162.935 13.52 162.822 13.16 162.822 12.72C162.822 12.28 162.895 11.7133 163.042 11.02C162.429 11.98 161.755 12.7133 161.022 13.22C160.289 13.7133 159.695 13.96 159.242 13.96C158.789 13.96 158.449 13.7933 158.222 13.46C157.995 13.1267 157.882 12.72 157.882 12.24ZM178.425 7.84C178.585 8.04 178.712 8.32667 178.805 8.7C178.899 9.06 178.945 9.36 178.945 9.6C178.945 10.7733 178.579 11.7867 177.845 12.64C177.112 13.48 176.225 13.9 175.185 13.9C174.412 13.9 173.805 13.68 173.365 13.24C172.939 12.7867 172.725 12.1667 172.725 11.38C172.725 11.1267 172.739 10.9333 172.765 10.8C172.525 10.8267 172.005 10.9 171.205 11.02C170.659 11.9933 170.385 12.9733 170.385 13.96L169.185 13.86C169.185 13.1133 169.425 12.24 169.905 11.24C169.532 11.2667 168.985 11.3933 168.265 11.62L168.065 10.84C168.065 10.7867 168.352 10.6867 168.925 10.54C169.512 10.3933 169.979 10.2933 170.325 10.24C171.392 7.78667 172.119 6.36667 172.505 5.98L173.365 6.32C173.232 6.61333 173.005 7.10667 172.685 7.8C172.365 8.48 172.032 9.19333 171.685 9.94L173.025 9.8C173.385 8.85333 173.985 8.06 174.825 7.42C175.665 6.78 176.565 6.46 177.525 6.46C177.752 6.46 177.912 6.46667 178.005 6.48L178.065 7.14C176.999 7.14 176.112 7.44667 175.405 8.06C174.699 8.67333 174.345 9.46 174.345 10.42C174.345 10.9933 174.485 11.46 174.765 11.82C175.045 12.1667 175.432 12.34 175.925 12.34C176.419 12.34 176.845 12.12 177.205 11.68C177.579 11.24 177.765 10.7067 177.765 10.08C177.765 9.78667 177.712 9.44 177.605 9.04C177.499 8.62667 177.425 8.33333 177.385 8.16L178.425 7.84ZM188.102 13.28L188.122 13.76C187.989 13.84 187.382 14.08 186.302 14.48C185.875 17.0267 185.249 18.8667 184.422 20C183.595 21.1333 182.582 21.7 181.382 21.7C180.822 21.7 180.375 21.52 180.042 21.16C179.709 20.8 179.542 20.3333 179.542 19.76C179.542 18.6133 180.069 17.54 181.122 16.54C182.175 15.5533 183.582 14.7733 185.342 14.2C185.542 13.3067 185.902 12.0467 186.422 10.42C185.529 11.78 184.715 12.7 183.982 13.18C183.262 13.66 182.609 13.9 182.022 13.9C181.435 13.9 180.989 13.74 180.682 13.42C180.389 13.1 180.242 12.6733 180.242 12.14C180.242 11.26 180.609 10.3667 181.342 9.46C182.075 8.54 182.995 7.79333 184.102 7.22C185.222 6.63333 186.302 6.34 187.342 6.34L187.502 7.04C186.022 7.2 184.749 7.72 183.682 8.6C182.629 9.48 182.102 10.3267 182.102 11.14C182.102 11.4867 182.209 11.7733 182.422 12C182.635 12.2267 182.895 12.34 183.202 12.34C183.655 12.34 184.342 11.86 185.262 10.9C186.182 9.94 186.829 9.12 187.202 8.44L187.942 8.86C187.209 10.82 186.702 12.4733 186.422 13.82L188.102 13.28ZM185.222 14.8C184.062 15.3333 183.102 15.9733 182.342 16.72C181.582 17.4667 181.202 18.1467 181.202 18.76C181.202 19.08 181.295 19.34 181.482 19.54C181.669 19.74 181.902 19.84 182.182 19.84C182.742 19.84 183.295 19.4467 183.842 18.66C184.389 17.8733 184.849 16.5867 185.222 14.8ZM194.457 11.64L194.917 12C194.504 12.5733 193.937 13.0533 193.217 13.44C192.497 13.8133 191.797 14 191.117 14C190.437 14 189.89 13.8 189.477 13.4C189.064 13 188.857 12.4733 188.857 11.82C188.857 10.5933 189.504 9.38667 190.797 8.2C192.104 7.01333 193.424 6.42 194.757 6.42C195.637 6.42 196.077 6.76667 196.077 7.46C196.077 8.18 195.61 8.90667 194.677 9.64C193.757 10.3733 192.457 11.04 190.777 11.64C190.897 11.9467 191.084 12.1867 191.337 12.36C191.59 12.5333 191.85 12.62 192.117 12.62C192.69 12.62 193.47 12.2933 194.457 11.64ZM190.677 11.04C191.757 10.6667 192.684 10.2 193.457 9.64C194.23 9.08 194.617 8.56667 194.617 8.1C194.617 7.92667 194.55 7.77333 194.417 7.64C194.284 7.50667 194.13 7.44 193.957 7.44C193.33 7.44 192.65 7.83333 191.917 8.62C191.197 9.39333 190.784 10.2 190.677 11.04ZM205.024 11.66L205.444 12C205.218 12.56 204.858 13.0333 204.364 13.42C203.884 13.8067 203.444 14 203.044 14C202.658 14 202.351 13.8667 202.124 13.6C201.898 13.32 201.784 12.96 201.784 12.52C201.784 12.08 201.858 11.5133 202.004 10.82C201.378 11.8067 200.704 12.58 199.984 13.14C199.264 13.7 198.658 13.98 198.164 13.98C197.418 13.98 197.044 13.5333 197.044 12.64C197.044 11.7467 197.351 10.5467 197.964 9.04C198.591 7.52 199.038 6.65333 199.304 6.44L200.264 6.86C199.718 7.74 199.304 8.60667 199.024 9.46C198.744 10.3133 198.604 10.8867 198.604 11.18C198.604 11.46 198.691 11.6867 198.864 11.86C199.051 12.0333 199.264 12.12 199.504 12.12C200.038 12.12 200.698 11.6333 201.484 10.66C202.284 9.67333 203.098 8.20667 203.924 6.26L204.944 6.72C204.918 6.82667 204.611 7.6 204.024 9.04C203.451 10.48 203.164 11.3467 203.164 11.64C203.164 11.92 203.224 12.1333 203.344 12.28C203.478 12.4267 203.604 12.5 203.724 12.5C203.858 12.5 203.958 12.4933 204.024 12.48C204.091 12.4667 204.158 12.44 204.224 12.4C204.291 12.36 204.344 12.3267 204.384 12.3C204.438 12.2733 204.498 12.2267 204.564 12.16L204.724 12C204.751 11.9733 204.798 11.92 204.864 11.84C204.944 11.7467 204.998 11.6867 205.024 11.66ZM203.864 4.04L204.464 4.36C204.198 4.77333 203.851 5.14 203.424 5.46C203.011 5.78 202.598 5.94 202.184 5.94C201.771 5.94 201.338 5.78667 200.884 5.48C200.431 5.16 200.064 4.84 199.784 4.52L200.424 3.98C201.118 4.66 201.684 5 202.124 5C202.804 5 203.384 4.68 203.864 4.04ZM206.444 13.34C206.444 13.1 206.531 12.9 206.704 12.74C206.891 12.5667 207.111 12.48 207.364 12.48C207.631 12.48 207.838 12.56 207.984 12.72C208.131 12.8667 208.204 13.0667 208.204 13.32C208.204 13.9067 207.698 14.5667 206.684 15.3L206.244 14.66C206.778 14.2333 207.051 14.0067 207.064 13.98C206.651 13.8467 206.444 13.6333 206.444 13.34ZM223.91 9.44L223.89 10.18L220.99 10.7C220.95 10.8867 220.93 11.06 220.93 11.22C220.93 11.6067 221.05 11.92 221.29 12.16C221.53 12.4 221.843 12.52 222.23 12.52C222.843 12.52 223.63 12.0667 224.59 11.16L225.07 11.56C224.75 12.2933 224.236 12.88 223.53 13.32C222.823 13.76 222.136 13.98 221.47 13.98C220.816 13.98 220.27 13.7733 219.83 13.36C219.403 12.9467 219.19 12.38 219.19 11.66C219.19 10.94 219.503 10.16 220.13 9.32C220.756 8.48 221.563 7.78667 222.55 7.24C223.55 6.69333 224.53 6.42 225.49 6.42C225.623 6.42 225.823 6.43333 226.09 6.46L226.03 7.24C225.003 7.29333 224.09 7.54 223.29 7.98C222.49 8.42 221.876 8.96667 221.45 9.62C222.023 9.54 222.843 9.48 223.91 9.44ZM241.894 11.16L242.374 11.56C242.054 12.2933 241.541 12.88 240.834 13.32C240.128 13.76 239.441 13.98 238.774 13.98C238.121 13.98 237.574 13.7733 237.134 13.36C236.708 12.9467 236.494 12.38 236.494 11.66C236.494 10.94 236.808 10.16 237.434 9.32C238.061 8.48 238.868 7.78667 239.854 7.24C240.854 6.69333 241.834 6.42 242.794 6.42C242.928 6.42 243.128 6.43333 243.394 6.46L243.334 7.24C241.868 7.30667 240.648 7.75333 239.674 8.58C238.714 9.40667 238.234 10.2867 238.234 11.22C238.234 11.6067 238.354 11.92 238.594 12.16C238.834 12.4 239.148 12.52 239.534 12.52C240.148 12.52 240.934 12.0667 241.894 11.16ZM246.57 7.72C246.25 9.24 246.083 10.3467 246.07 11.04C246.07 11.9867 246.343 12.46 246.89 12.46C247.476 12.46 248.003 12.2067 248.47 11.7C248.936 11.1933 249.17 10.6 249.17 9.92C249.17 9.24 248.916 8.9 248.41 8.9C248.263 8.9 247.943 8.98667 247.45 9.16L247.21 8.56C248.063 7.96 248.736 7.66 249.23 7.66C250.15 7.66 250.61 8.12 250.61 9.04C250.61 10.12 250.156 11.22 249.25 12.34C248.356 13.4467 247.416 14 246.43 14C245.35 14 244.81 13.2267 244.81 11.68C244.81 10.9467 245.016 9.73333 245.43 8.04L243.81 8.64L243.79 8.16C243.923 8.08 244.53 7.84 245.61 7.44C246.063 4.77333 246.69 2.90667 247.49 1.84C248.29 0.76 249.303 0.22 250.53 0.22C251.09 0.22 251.536 0.399999 251.87 0.759999C252.203 1.12 252.37 1.58667 252.37 2.16C252.37 3.30667 251.843 4.38 250.79 5.38C249.736 6.36667 248.33 7.14667 246.57 7.72ZM246.69 7.12C247.85 6.58667 248.81 5.94667 249.57 5.2C250.33 4.45333 250.71 3.77333 250.71 3.16C250.71 2.84 250.616 2.58 250.43 2.38C250.243 2.18 250.01 2.08 249.73 2.08C249.17 2.08 248.616 2.47333 248.07 3.26C247.523 4.04667 247.063 5.33333 246.69 7.12ZM258.698 8.06C259.044 8.63333 259.218 9.26667 259.218 9.96C259.218 11.04 258.844 12.0067 258.098 12.86C257.351 13.7 256.471 14.12 255.458 14.12C254.684 14.12 254.078 13.9 253.638 13.46C253.211 13.0067 252.998 12.3867 252.998 11.6C252.998 10.3333 253.491 9.2 254.478 8.2C255.464 7.18667 256.571 6.68 257.798 6.68C258.024 6.68 258.184 6.68667 258.278 6.7L258.338 7.36C257.271 7.36 256.384 7.66667 255.678 8.28C254.971 8.89333 254.618 9.68 254.618 10.64C254.618 11.2133 254.758 11.68 255.038 12.04C255.318 12.3867 255.724 12.56 256.258 12.56C256.804 12.56 257.238 12.32 257.558 11.84C257.878 11.36 258.038 10.8 258.038 10.16C258.038 9.50667 257.911 8.91333 257.658 8.38L258.698 8.06ZM260.149 12.5L260.889 12.1C260.929 12.1533 260.983 12.2733 261.049 12.46C261.183 12.8867 261.356 13.1 261.569 13.1C262.036 13.0733 262.476 12.86 262.889 12.46C263.316 12.06 263.569 11.64 263.649 11.2C263.223 11.28 262.876 11.32 262.609 11.32C262.343 11.32 262.096 11.3067 261.869 11.28C261.656 11.24 261.436 11.1733 261.209 11.08C260.729 10.8933 260.489 10.4267 260.489 9.68C260.489 8.92 260.883 8.13333 261.669 7.32C262.456 6.50667 263.376 6.1 264.429 6.1C264.989 6.1 265.416 6.3 265.709 6.7C266.003 7.1 266.149 7.8 266.149 8.8C266.149 9.14667 266.103 9.67333 266.009 10.38C266.609 8.95333 266.923 7.59333 266.949 6.3L268.189 6.52C268.189 7.45333 267.896 8.86667 267.309 10.76C266.736 12.6533 266.283 13.86 265.949 14.38L264.689 14.14C265.089 13.1 265.289 11.94 265.289 10.66C265.289 9.38 265.196 8.54 265.009 8.14C264.809 7.7 264.476 7.48 264.009 7.48C263.556 7.48 263.116 7.63333 262.689 7.94C262.276 8.24667 262.063 8.60667 262.049 9.02C262.036 9.43333 262.183 9.75333 262.489 9.98C262.809 10.1933 263.156 10.3333 263.529 10.4C264.543 10.6 265.049 10.8533 265.049 11.16C265.049 11.4133 264.803 11.8133 264.309 12.36C263.816 12.9067 263.243 13.4133 262.589 13.88C261.949 14.3333 261.456 14.56 261.109 14.56C260.776 14.56 260.523 14.4 260.349 14.08C260.189 13.7733 260.109 13.4867 260.109 13.22C260.109 12.9533 260.123 12.7133 260.149 12.5ZM287.75 13.28L287.77 13.76C287.637 13.84 287.03 14.08 285.95 14.48C285.524 17.0267 284.897 18.8667 284.07 20C283.244 21.1333 282.23 21.7 281.03 21.7C280.47 21.7 280.024 21.52 279.69 21.16C279.357 20.8 279.19 20.3333 279.19 19.76C279.19 18.6133 279.717 17.54 280.77 16.54C281.824 15.5533 283.23 14.7733 284.99 14.2C285.19 13.3067 285.55 12.0467 286.07 10.42C285.177 11.78 284.364 12.7 283.63 13.18C282.91 13.66 282.257 13.9 281.67 13.9C281.084 13.9 280.637 13.74 280.33 13.42C280.037 13.1 279.89 12.6733 279.89 12.14C279.89 11.26 280.257 10.3667 280.99 9.46C281.724 8.54 282.644 7.79333 283.75 7.22C284.87 6.63333 285.95 6.34 286.99 6.34L287.15 7.04C285.67 7.2 284.397 7.72 283.33 8.6C282.277 9.48 281.75 10.3267 281.75 11.14C281.75 11.4867 281.857 11.7733 282.07 12C282.284 12.2267 282.544 12.34 282.85 12.34C283.304 12.34 283.99 11.86 284.91 10.9C285.83 9.94 286.477 9.12 286.85 8.44L287.59 8.86C286.857 10.82 286.35 12.4733 286.07 13.82L287.75 13.28ZM284.87 14.8C283.71 15.3333 282.75 15.9733 281.99 16.72C281.23 17.4667 280.85 18.1467 280.85 18.76C280.85 19.08 280.944 19.34 281.13 19.54C281.317 19.74 281.55 19.84 281.83 19.84C282.39 19.84 282.944 19.4467 283.49 18.66C284.037 17.8733 284.497 16.5867 284.87 14.8ZM296.491 12.74L296.551 13.26C296.498 13.3 295.878 13.54 294.691 13.98C294.531 14.86 294.324 15.7267 294.071 16.58C293.831 17.4467 293.584 18.1 293.331 18.54C293.091 18.9933 292.804 19.44 292.471 19.88C291.804 20.76 290.904 21.2 289.771 21.2C289.211 21.2 288.764 21.0267 288.431 20.68C288.098 20.3333 287.931 19.86 287.931 19.26C287.931 16.9533 289.864 15.1 293.731 13.7L294.811 9.9C293.664 11.62 292.631 12.68 291.711 13.08C291.258 13.2933 290.778 13.4 290.271 13.4C289.778 13.4 289.378 13.24 289.071 12.92C288.778 12.6 288.631 12.1333 288.631 11.52C288.631 10.9067 288.838 10.0533 289.251 8.96C289.678 7.85333 290.151 6.92667 290.671 6.18L291.651 6.6C291.611 6.64 291.424 6.99333 291.091 7.66C290.504 8.87333 290.211 9.77333 290.211 10.36C290.211 10.9467 290.324 11.34 290.551 11.54C290.778 11.74 291.111 11.84 291.551 11.84C291.991 11.84 292.484 11.58 293.031 11.06C293.591 10.5267 294.451 9.48 295.611 7.92L296.331 8.34C296.224 8.78 295.984 9.58 295.611 10.74C295.251 11.8867 295.004 12.7667 294.871 13.38L296.491 12.74ZM293.611 14.3C292.771 14.6867 292.031 15.1267 291.391 15.62C290.191 16.5267 289.591 17.4067 289.591 18.26C289.591 18.58 289.684 18.84 289.871 19.04C290.058 19.24 290.291 19.34 290.571 19.34C291.904 19.34 292.918 17.66 293.611 14.3ZM307.785 11.62C307.785 11.8867 307.845 12.0933 307.965 12.24C308.098 12.3867 308.232 12.46 308.365 12.46C308.498 12.46 308.598 12.4533 308.665 12.44C308.732 12.4267 308.798 12.4 308.865 12.36C308.932 12.3067 308.985 12.2667 309.025 12.24C309.078 12.2133 309.138 12.1667 309.205 12.1C309.285 12.02 309.338 11.9667 309.365 11.94C309.418 11.86 309.512 11.7533 309.645 11.62L310.065 11.96C309.825 12.52 309.458 12.9933 308.965 13.38C308.485 13.7667 308.052 13.96 307.665 13.96C307.278 13.96 306.972 13.82 306.745 13.54C306.518 13.26 306.405 12.9067 306.405 12.48C306.405 12.04 306.478 11.4733 306.625 10.78C305.985 11.7933 305.338 12.5733 304.685 13.12C304.045 13.6667 303.465 13.94 302.945 13.94C302.225 13.94 301.865 13.48 301.865 12.56C301.865 12.2667 301.958 11.68 302.145 10.8C301.505 11.8 300.852 12.58 300.185 13.14C299.532 13.6867 298.945 13.96 298.425 13.96C297.705 13.96 297.345 13.5133 297.345 12.62C297.345 11.7267 297.652 10.5333 298.265 9.04C298.878 7.53333 299.325 6.66 299.605 6.42L300.565 6.84C300.112 7.57333 299.718 8.42 299.385 9.38C299.065 10.3267 298.905 10.9333 298.905 11.2C298.905 11.4533 298.978 11.68 299.125 11.88C299.272 12.0667 299.432 12.16 299.605 12.16C300.098 12.16 300.858 11.44 301.885 10C302.925 8.56 303.625 7.33333 303.985 6.32L305.185 6.84C304.918 7.2 304.558 7.92667 304.105 9.02C303.652 10.1 303.425 10.7933 303.425 11.1C303.425 11.4067 303.518 11.6467 303.705 11.82C303.892 11.9933 304.078 12.08 304.265 12.08C304.745 12.08 305.452 11.4733 306.385 10.26C307.332 9.03333 308.058 7.73333 308.565 6.36L309.745 6.88C309.665 7.05333 309.445 7.49333 309.085 8.2C308.218 9.84 307.785 10.98 307.785 11.62ZM319.039 11.98L319.499 12.32C319.312 12.72 318.965 13.1 318.459 13.46C317.965 13.82 317.512 14 317.099 14C316.312 14 315.919 13.5867 315.919 12.76C315.919 12.3733 316.019 11.9133 316.219 11.38L315.479 12.14C314.759 12.8733 314.132 13.3667 313.599 13.62C313.079 13.8733 312.565 14 312.059 14C311.552 14 311.165 13.86 310.899 13.58C310.645 13.2867 310.519 12.8867 310.519 12.38C310.519 11.4467 310.879 10.5267 311.599 9.62C312.319 8.7 313.239 7.95333 314.359 7.38C315.479 6.80667 316.599 6.51333 317.719 6.5L317.759 7.16L316.919 7.34C315.705 7.60667 314.632 8.14 313.699 8.94C312.779 9.74 312.319 10.54 312.319 11.34C312.319 12.1267 312.639 12.52 313.279 12.52C313.879 12.52 314.619 12.1 315.499 11.26C316.379 10.42 317.112 9.43333 317.699 8.3L318.539 8.8C317.712 10.4667 317.299 11.5267 317.299 11.98C317.299 12.1667 317.359 12.3267 317.479 12.46C317.612 12.58 317.739 12.64 317.859 12.64C317.992 12.64 318.079 12.6333 318.119 12.62C318.159 12.6067 318.199 12.5933 318.239 12.58C318.279 12.5533 318.325 12.52 318.379 12.48C318.445 12.44 318.499 12.4 318.539 12.36C318.592 12.32 318.672 12.26 318.779 12.18C318.885 12.1 318.972 12.0333 319.039 11.98ZM333.933 5.52C333.186 5.52 332.813 5.22 332.813 4.62C332.813 4.28667 332.906 4.00667 333.093 3.78C333.28 3.55333 333.52 3.44 333.813 3.44C334.106 3.44 334.346 3.52667 334.533 3.7C334.72 3.87333 334.813 4.1 334.813 4.38C334.813 4.66 334.733 4.92 334.573 5.16C334.413 5.4 334.2 5.52 333.933 5.52ZM333.673 11.42L334.073 11.76C333.753 12.3733 333.326 12.9 332.793 13.34C332.273 13.7667 331.8 13.98 331.373 13.98C330.626 13.98 330.253 13.46 330.253 12.42C330.253 11.1267 330.786 9.44 331.853 7.36C332.093 6.90667 332.233 6.64 332.273 6.56L333.133 7.08C332.853 7.58667 332.506 8.39333 332.093 9.5C331.693 10.6067 331.493 11.32 331.493 11.64C331.493 11.9467 331.56 12.1667 331.693 12.3C331.826 12.4333 331.986 12.5 332.173 12.5C332.533 12.5 333.033 12.14 333.673 11.42ZM350.644 11.16L351.124 11.56C350.804 12.2933 350.291 12.88 349.584 13.32C348.878 13.76 348.191 13.98 347.524 13.98C346.871 13.98 346.324 13.7733 345.884 13.36C345.458 12.9467 345.244 12.38 345.244 11.66C345.244 10.94 345.558 10.16 346.184 9.32C346.811 8.48 347.618 7.78667 348.604 7.24C349.604 6.69333 350.584 6.42 351.544 6.42C351.678 6.42 351.878 6.43333 352.144 6.46L352.084 7.24C350.618 7.30667 349.398 7.75333 348.424 8.58C347.464 9.40667 346.984 10.2867 346.984 11.22C346.984 11.6067 347.104 11.92 347.344 12.16C347.584 12.4 347.898 12.52 348.284 12.52C348.898 12.52 349.684 12.0667 350.644 11.16ZM355.32 7.72C355 9.24 354.833 10.3467 354.82 11.04C354.82 11.9867 355.093 12.46 355.64 12.46C356.226 12.46 356.753 12.2067 357.22 11.7C357.686 11.1933 357.92 10.6 357.92 9.92C357.92 9.24 357.666 8.9 357.16 8.9C357.013 8.9 356.693 8.98667 356.2 9.16L355.96 8.56C356.813 7.96 357.486 7.66 357.98 7.66C358.9 7.66 359.36 8.12 359.36 9.04C359.36 10.12 358.906 11.22 358 12.34C357.106 13.4467 356.166 14 355.18 14C354.1 14 353.56 13.2267 353.56 11.68C353.56 10.9467 353.766 9.73333 354.18 8.04L352.56 8.64L352.54 8.16C352.673 8.08 353.28 7.84 354.36 7.44C354.813 4.77333 355.44 2.90667 356.24 1.84C357.04 0.76 358.053 0.22 359.28 0.22C359.84 0.22 360.286 0.399999 360.62 0.759999C360.953 1.12 361.12 1.58667 361.12 2.16C361.12 3.30667 360.593 4.38 359.54 5.38C358.486 6.36667 357.08 7.14667 355.32 7.72ZM355.44 7.12C356.6 6.58667 357.56 5.94667 358.32 5.2C359.08 4.45333 359.46 3.77333 359.46 3.16C359.46 2.84 359.366 2.58 359.18 2.38C358.993 2.18 358.76 2.08 358.48 2.08C357.92 2.08 357.366 2.47333 356.82 3.26C356.273 4.04667 355.813 5.33333 355.44 7.12ZM367.448 8.06C367.794 8.63333 367.968 9.26667 367.968 9.96C367.968 11.04 367.594 12.0067 366.848 12.86C366.101 13.7 365.221 14.12 364.208 14.12C363.434 14.12 362.828 13.9 362.388 13.46C361.961 13.0067 361.748 12.3867 361.748 11.6C361.748 10.3333 362.241 9.2 363.228 8.2C364.214 7.18667 365.321 6.68 366.548 6.68C366.774 6.68 366.934 6.68667 367.028 6.7L367.088 7.36C366.021 7.36 365.134 7.66667 364.428 8.28C363.721 8.89333 363.368 9.68 363.368 10.64C363.368 11.2133 363.508 11.68 363.788 12.04C364.068 12.3867 364.474 12.56 365.008 12.56C365.554 12.56 365.988 12.32 366.308 11.84C366.628 11.36 366.788 10.8 366.788 10.16C366.788 9.50667 366.661 8.91333 366.408 8.38L367.448 8.06ZM373.499 9.44L373.479 10.18L370.579 10.7C370.539 10.8867 370.519 11.06 370.519 11.22C370.519 11.6067 370.639 11.92 370.879 12.16C371.119 12.4 371.433 12.52 371.819 12.52C372.433 12.52 373.219 12.0667 374.179 11.16L374.659 11.56C374.339 12.2933 373.826 12.88 373.119 13.32C372.413 13.76 371.726 13.98 371.059 13.98C370.406 13.98 369.859 13.7733 369.419 13.36C368.993 12.9467 368.779 12.38 368.779 11.66C368.779 10.94 369.093 10.16 369.719 9.32C370.346 8.48 371.153 7.78667 372.139 7.24C373.139 6.69333 374.119 6.42 375.079 6.42C375.213 6.42 375.413 6.43333 375.679 6.46L375.619 7.24C374.593 7.29333 373.679 7.54 372.879 7.98C372.079 8.42 371.466 8.96667 371.039 9.62C371.613 9.54 372.433 9.48 373.499 9.44ZM6.1 33.06C6.44667 33.6333 6.62 34.2667 6.62 34.96C6.62 36.04 6.24667 37.0067 5.5 37.86C4.75333 38.7 3.87333 39.12 2.86 39.12C2.08667 39.12 1.48 38.9 1.04 38.46C0.613333 38.0067 0.4 37.3867 0.4 36.6C0.4 35.3333 0.893333 34.2 1.88 33.2C2.86667 32.1867 3.97333 31.68 5.2 31.68C5.42667 31.68 5.58667 31.6867 5.68 31.7L5.74 32.36C4.67333 32.36 3.78667 32.6667 3.08 33.28C2.37333 33.8933 2.02 34.68 2.02 35.64C2.02 36.2133 2.16 36.68 2.44 37.04C2.72 37.3867 3.12667 37.56 3.66 37.56C4.20667 37.56 4.64 37.32 4.96 36.84C5.28 36.36 5.44 35.8 5.44 35.16C5.44 34.5067 5.31333 33.9133 5.06 33.38L6.1 33.06ZM9.25172 27.8C9.25172 27.08 9.51839 26.5267 10.0517 26.14C10.5851 25.7533 11.3384 25.56 12.3117 25.56C13.2984 25.5467 13.9651 25.62 14.3117 25.78L14.1317 26.62C13.6651 26.5533 13.1584 26.52 12.6117 26.52C11.4384 26.52 10.8517 27.0067 10.8517 27.98C10.8517 28.2467 11.2051 29.0333 11.9117 30.34C12.6317 31.6467 13.0451 32.4333 13.1517 32.7C13.2717 32.9667 13.3717 33.32 13.4517 33.76C13.5451 34.1867 13.5917 34.5067 13.5917 34.72C13.5917 35.8933 13.2251 36.9067 12.4917 37.76C11.7584 38.6 10.8717 39.02 9.83172 39.02C9.05839 39.02 8.45172 38.8 8.01172 38.36C7.58505 37.9067 7.37172 37.26 7.37172 36.42C7.37172 35.5667 7.64505 34.7267 8.19172 33.9C8.73839 33.0733 9.43172 32.4533 10.2717 32.04L10.5317 32.82C9.50505 33.46 8.99172 34.3667 8.99172 35.54C8.99172 36.1133 9.13172 36.58 9.41172 36.94C9.69172 37.2867 10.0784 37.46 10.5717 37.46C11.0651 37.46 11.4917 37.24 11.8517 36.8C12.2251 36.36 12.4117 35.8067 12.4117 35.14C12.4117 34.4733 12.3184 33.94 12.1317 33.54C11.9584 33.14 11.6251 32.52 11.1317 31.68C9.87839 29.48 9.25172 28.1867 9.25172 27.8ZM14.2492 37.24L15.2492 36.74C15.2492 36.98 15.3359 37.1867 15.5092 37.36C15.6959 37.5333 15.9092 37.62 16.1492 37.62C17.2826 37.62 18.5759 36.1267 20.0292 33.14C20.1092 32.9667 20.2026 32.7733 20.3092 32.56C20.4159 32.3333 20.4959 32.1667 20.5492 32.06C20.6026 31.94 20.6626 31.8067 20.7292 31.66C20.8092 31.5133 20.8692 31.4067 20.9092 31.34C20.9626 31.26 21.0159 31.1867 21.0692 31.12C21.1892 31 21.3226 30.94 21.4692 30.94C21.6292 30.94 21.7692 31.0133 21.8892 31.16C22.0092 31.3067 22.0692 31.48 22.0692 31.68C22.0692 31.8667 21.8159 32.6933 21.3092 34.16C20.8159 35.6133 20.5692 36.4933 20.5692 36.8C20.5692 37.1067 20.6292 37.3333 20.7492 37.48C20.8826 37.6267 21.0092 37.7 21.1292 37.7C21.2626 37.7 21.3626 37.6933 21.4292 37.68C21.4959 37.6667 21.5626 37.64 21.6292 37.6C21.6959 37.56 21.7492 37.5267 21.7892 37.5C21.8426 37.4733 21.9026 37.4267 21.9692 37.36L22.1092 37.2C22.1492 37.1733 22.2026 37.12 22.2692 37.04C22.3492 36.9467 22.4026 36.8867 22.4292 36.86L22.8492 37.2C22.6226 37.76 22.2626 38.2333 21.7692 38.62C21.2892 39.0067 20.8492 39.2 20.4492 39.2C20.0626 39.2 19.7559 39.0667 19.5292 38.8C19.3026 38.52 19.1892 38.16 19.1892 37.72C19.1892 37.28 19.2626 36.7133 19.4092 36.02C18.7959 36.98 18.1226 37.7133 17.3892 38.22C16.6559 38.7133 16.0626 38.96 15.6092 38.96C15.1559 38.96 14.8159 38.7933 14.5892 38.46C14.3626 38.1267 14.2492 37.72 14.2492 37.24ZM33.1927 36.66L33.6127 37C33.386 37.56 33.026 38.0333 32.5327 38.42C32.0527 38.8067 31.6127 39 31.2127 39C30.826 39 30.5193 38.8667 30.2927 38.6C30.066 38.32 29.9527 37.96 29.9527 37.52C29.9527 37.08 30.026 36.5133 30.1727 35.82C29.546 36.8067 28.8727 37.58 28.1527 38.14C27.4327 38.7 26.826 38.98 26.3327 38.98C25.586 38.98 25.2127 38.5333 25.2127 37.64C25.2127 36.7467 25.5193 35.5467 26.1327 34.04C26.7593 32.52 27.206 31.6533 27.4727 31.44L28.4327 31.86C27.886 32.74 27.4727 33.6067 27.1927 34.46C26.9127 35.3133 26.7727 35.8867 26.7727 36.18C26.7727 36.46 26.8593 36.6867 27.0327 36.86C27.2193 37.0333 27.4327 37.12 27.6727 37.12C28.206 37.12 28.866 36.6333 29.6527 35.66C30.4527 34.6733 31.266 33.2067 32.0927 31.26L33.1127 31.72C33.086 31.8267 32.7793 32.6 32.1927 34.04C31.6193 35.48 31.3327 36.3467 31.3327 36.64C31.3327 36.92 31.3927 37.1333 31.5127 37.28C31.646 37.4267 31.7727 37.5 31.8927 37.5C32.026 37.5 32.126 37.4933 32.1927 37.48C32.2593 37.4667 32.326 37.44 32.3927 37.4C32.4593 37.36 32.5127 37.3267 32.5527 37.3C32.606 37.2733 32.666 37.2267 32.7327 37.16L32.8727 37C32.9127 36.9733 32.966 36.92 33.0327 36.84C33.1127 36.7467 33.166 36.6867 33.1927 36.66ZM41.2127 36.7L41.7727 37.12C41.6393 37.4 41.3527 37.72 40.9127 38.08C40.486 38.44 39.986 38.62 39.4127 38.62C38.6393 38.62 38.2527 38.2267 38.2527 37.44C38.2527 36.9867 38.346 36.4867 38.5327 35.94C38.7327 35.38 38.926 34.8733 39.1127 34.42C39.2993 33.9533 39.4127 33.66 39.4527 33.54C39.1327 33.9933 38.6127 34.4667 37.8927 34.96C37.186 35.44 36.5393 35.68 35.9527 35.68C35.086 35.68 34.6527 35.1867 34.6527 34.2C34.6527 33.56 34.826 32.8533 35.1727 32.08C35.5327 31.3067 35.906 30.7667 36.2927 30.46L37.1727 30.78C36.546 31.94 36.2327 32.8 36.2327 33.36C36.2327 33.92 36.4927 34.2 37.0127 34.2C37.6127 34.2 38.2993 33.8667 39.0727 33.2C39.846 32.5333 40.3927 31.7 40.7127 30.7L41.7527 31.28C40.3127 33.8267 39.5927 35.5933 39.5927 36.58C39.5927 37.0333 39.766 37.26 40.1127 37.26C40.4727 37.26 40.8393 37.0733 41.2127 36.7ZM48.6736 36.7L49.2336 37.12C49.1003 37.4 48.8136 37.72 48.3736 38.08C47.9469 38.44 47.4469 38.62 46.8736 38.62C46.1003 38.62 45.7136 38.2267 45.7136 37.44C45.7136 36.9867 45.8069 36.4867 45.9936 35.94C46.1936 35.38 46.3869 34.8733 46.5736 34.42C46.7603 33.9533 46.8736 33.66 46.9136 33.54C46.5936 33.9933 46.0736 34.4667 45.3536 34.96C44.6469 35.44 44.0003 35.68 43.4136 35.68C42.5469 35.68 42.1136 35.1867 42.1136 34.2C42.1136 33.56 42.2869 32.8533 42.6336 32.08C42.9936 31.3067 43.3669 30.7667 43.7536 30.46L44.6336 30.78C44.0069 31.94 43.6936 32.8 43.6936 33.36C43.6936 33.92 43.9536 34.2 44.4736 34.2C45.0736 34.2 45.7603 33.8667 46.5336 33.2C47.3069 32.5333 47.8536 31.7 48.1736 30.7L49.2136 31.28C47.7736 33.8267 47.0536 35.5933 47.0536 36.58C47.0536 37.0333 47.2269 37.26 47.5736 37.26C47.9336 37.26 48.3003 37.0733 48.6736 36.7ZM49.9345 37.5L50.6745 37.1C50.7145 37.1533 50.7679 37.2733 50.8345 37.46C50.9679 37.8867 51.1412 38.1 51.3545 38.1C51.8212 38.0733 52.2612 37.86 52.6745 37.46C53.1012 37.06 53.3545 36.64 53.4345 36.2C53.0079 36.28 52.6612 36.32 52.3945 36.32C52.1279 36.32 51.8812 36.3067 51.6545 36.28C51.4412 36.24 51.2212 36.1733 50.9945 36.08C50.5145 35.8933 50.2745 35.4267 50.2745 34.68C50.2745 33.92 50.6679 33.1333 51.4545 32.32C52.2412 31.5067 53.1612 31.1 54.2145 31.1C54.7745 31.1 55.2012 31.3 55.4945 31.7C55.7879 32.1 55.9345 32.8 55.9345 33.8C55.9345 34.1467 55.8879 34.6733 55.7945 35.38C56.3945 33.9533 56.7079 32.5933 56.7345 31.3L57.9745 31.52C57.9745 32.4533 57.6812 33.8667 57.0945 35.76C56.5212 37.6533 56.0679 38.86 55.7345 39.38L54.4745 39.14C54.8745 38.1 55.0745 36.94 55.0745 35.66C55.0745 34.38 54.9812 33.54 54.7945 33.14C54.5945 32.7 54.2612 32.48 53.7945 32.48C53.3412 32.48 52.9012 32.6333 52.4745 32.94C52.0612 33.2467 51.8479 33.6067 51.8345 34.02C51.8212 34.4333 51.9679 34.7533 52.2745 34.98C52.5945 35.1933 52.9412 35.3333 53.3145 35.4C54.3279 35.6 54.8345 35.8533 54.8345 36.16C54.8345 36.4133 54.5879 36.8133 54.0945 37.36C53.6012 37.9067 53.0279 38.4133 52.3745 38.88C51.7345 39.3333 51.2412 39.56 50.8945 39.56C50.5612 39.56 50.3079 39.4 50.1345 39.08C49.9745 38.7733 49.8945 38.4867 49.8945 38.22C49.8945 37.9533 49.9079 37.7133 49.9345 37.5ZM58.8662 38.34C58.8662 38.1 58.9529 37.9 59.1263 37.74C59.3129 37.5667 59.5329 37.48 59.7863 37.48C60.0529 37.48 60.2596 37.56 60.4063 37.72C60.5529 37.8667 60.6263 38.0667 60.6263 38.32C60.6263 38.9067 60.1196 39.5667 59.1063 40.3L58.6662 39.66C59.1996 39.2333 59.4729 39.0067 59.4863 38.98C59.0729 38.8467 58.8662 38.6333 58.8662 38.34ZM79.6514 31.22L80.4314 31.4C80.4181 31.4933 80.2247 31.9 79.8514 32.62C79.4914 33.3267 79.1047 34.26 78.6914 35.42C78.2781 36.5667 78.0114 37.7267 77.8914 38.9L76.6114 38.8C76.6114 38.0667 76.8447 37.12 77.3114 35.96C77.1914 35.9467 76.9447 35.94 76.5714 35.94C76.2114 35.94 75.5447 36.0267 74.5714 36.2C73.8914 37.72 73.5514 39.02 73.5514 40.1L72.2114 39.92C72.2114 38.9733 72.5647 37.8067 73.2714 36.42C72.5914 36.5267 71.9114 36.6867 71.2314 36.9L71.0314 36.12C71.0314 36.08 71.3847 35.9667 72.0914 35.78C72.8114 35.5933 73.3447 35.4733 73.6914 35.42C74.7581 32.9667 75.4847 31.5467 75.8714 31.16L76.7314 31.5C76.6647 31.6333 76.5114 31.9333 76.2714 32.4C75.6714 33.56 75.2647 34.4667 75.0514 35.12C76.2114 35 76.9047 34.94 77.1314 34.94C77.3714 34.94 77.5714 34.9467 77.7314 34.96C78.6647 32.8133 79.3047 31.5667 79.6514 31.22ZM89.9175 36.98L90.3775 37.32C90.1908 37.72 89.8442 38.1 89.3375 38.46C88.8442 38.82 88.3908 39 87.9775 39C87.1908 39 86.7975 38.5867 86.7975 37.76C86.7975 37.3733 86.8975 36.9133 87.0975 36.38L86.3575 37.14C85.6375 37.8733 85.0108 38.3667 84.4775 38.62C83.9575 38.8733 83.4442 39 82.9375 39C82.4308 39 82.0442 38.86 81.7775 38.58C81.5242 38.2867 81.3975 37.8867 81.3975 37.38C81.3975 36.4467 81.7575 35.5267 82.4775 34.62C83.1975 33.7 84.1175 32.9533 85.2375 32.38C86.3575 31.8067 87.4775 31.5133 88.5975 31.5L88.6375 32.16L87.7975 32.34C86.5842 32.6067 85.5108 33.14 84.5775 33.94C83.6575 34.74 83.1975 35.54 83.1975 36.34C83.1975 37.1267 83.5175 37.52 84.1575 37.52C84.7575 37.52 85.4975 37.1 86.3775 36.26C87.2575 35.42 87.9908 34.4333 88.5775 33.3L89.4175 33.8C88.5908 35.4667 88.1775 36.5267 88.1775 36.98C88.1775 37.1667 88.2375 37.3267 88.3575 37.46C88.4908 37.58 88.6175 37.64 88.7375 37.64C88.8708 37.64 88.9575 37.6333 88.9975 37.62C89.0375 37.6067 89.0775 37.5933 89.1175 37.58C89.1575 37.5533 89.2042 37.52 89.2575 37.48C89.3242 37.44 89.3775 37.4 89.4175 37.36C89.4708 37.32 89.5508 37.26 89.6575 37.18C89.7642 37.1 89.8508 37.0333 89.9175 36.98ZM100.872 37.5L101.612 37.1C101.652 37.1533 101.705 37.2733 101.772 37.46C101.905 37.8867 102.079 38.1 102.292 38.1C102.759 38.0733 103.199 37.86 103.612 37.46C104.039 37.06 104.292 36.64 104.372 36.2C103.945 36.28 103.599 36.32 103.332 36.32C103.065 36.32 102.819 36.3067 102.592 36.28C102.379 36.24 102.159 36.1733 101.932 36.08C101.452 35.8933 101.212 35.4267 101.212 34.68C101.212 33.92 101.605 33.1333 102.392 32.32C103.179 31.5067 104.099 31.1 105.152 31.1C105.712 31.1 106.139 31.3 106.432 31.7C106.725 32.1 106.872 32.8 106.872 33.8C106.872 34.1467 106.825 34.6733 106.732 35.38C107.332 33.9533 107.645 32.5933 107.672 31.3L108.912 31.52C108.912 32.4533 108.619 33.8667 108.032 35.76C107.459 37.6533 107.005 38.86 106.672 39.38L105.412 39.14C105.812 38.1 106.012 36.94 106.012 35.66C106.012 34.38 105.919 33.54 105.732 33.14C105.532 32.7 105.199 32.48 104.732 32.48C104.279 32.48 103.839 32.6333 103.412 32.94C102.999 33.2467 102.785 33.6067 102.772 34.02C102.759 34.4333 102.905 34.7533 103.212 34.98C103.532 35.1933 103.879 35.3333 104.252 35.4C105.265 35.6 105.772 35.8533 105.772 36.16C105.772 36.4133 105.525 36.8133 105.032 37.36C104.539 37.9067 103.965 38.4133 103.312 38.88C102.672 39.3333 102.179 39.56 101.832 39.56C101.499 39.56 101.245 39.4 101.072 39.08C100.912 38.7733 100.832 38.4867 100.832 38.22C100.832 37.9533 100.845 37.7133 100.872 37.5ZM117.444 36.78L117.944 37.22C117.17 38.4867 116.35 39.12 115.484 39.12C114.99 39.12 114.484 38.8 113.964 38.16C113.457 37.52 113.15 36.9 113.044 36.3C112.964 36.4467 112.737 36.8333 112.364 37.46C111.99 38.0867 111.724 38.6 111.564 39L110.364 38.58C110.644 36.94 110.984 35.3933 111.384 33.94C111.797 32.4867 112.184 31.4667 112.544 30.88L113.364 31.14C113.124 31.7533 112.724 33.3867 112.164 36.04C112.897 34.5333 113.637 33.4333 114.384 32.74C115.13 32.0333 115.95 31.5667 116.844 31.34V32.66C115.884 32.7 114.957 33.3467 114.064 34.6C114.117 35.4667 114.37 36.1867 114.824 36.76C115.29 37.3333 115.73 37.62 116.144 37.62C116.344 37.62 116.777 37.34 117.444 36.78ZM124.577 33.06C124.923 33.6333 125.097 34.2667 125.097 34.96C125.097 36.04 124.723 37.0067 123.977 37.86C123.23 38.7 122.35 39.12 121.337 39.12C120.563 39.12 119.957 38.9 119.517 38.46C119.09 38.0067 118.877 37.3867 118.877 36.6C118.877 35.3333 119.37 34.2 120.357 33.2C121.343 32.1867 122.45 31.68 123.677 31.68C123.903 31.68 124.063 31.6867 124.157 31.7L124.217 32.36C123.15 32.36 122.263 32.6667 121.557 33.28C120.85 33.8933 120.497 34.68 120.497 35.64C120.497 36.2133 120.637 36.68 120.917 37.04C121.197 37.3867 121.603 37.56 122.137 37.56C122.683 37.56 123.117 37.32 123.437 36.84C123.757 36.36 123.917 35.8 123.917 35.16C123.917 34.5067 123.79 33.9133 123.537 33.38L124.577 33.06ZM138.128 36.68L138.548 37.02C138.322 37.58 137.962 38.0533 137.468 38.44C136.988 38.8267 136.548 39.02 136.148 39.02C135.762 39.02 135.455 38.8867 135.228 38.62C135.002 38.34 134.888 37.98 134.888 37.54C134.888 37.1 134.962 36.5333 135.108 35.84C134.482 36.8267 133.808 37.6 133.088 38.16C132.368 38.72 131.762 39 131.268 39C130.522 39 130.148 38.5267 130.148 37.58C130.148 37.4867 130.242 36.9133 130.428 35.86C129.802 36.8333 129.168 37.5667 128.528 38.06C127.902 38.54 127.335 38.78 126.828 38.78C126.082 38.78 125.708 38.3067 125.708 37.36L126.468 36.64C126.468 36.88 126.555 37.0867 126.728 37.26C126.915 37.4333 127.128 37.52 127.368 37.52C127.808 37.52 128.402 37.1467 129.148 36.4C129.908 35.6533 130.602 34.6733 131.228 33.46C131.362 33.1933 131.515 32.88 131.688 32.52C131.875 32.1467 132.008 31.88 132.088 31.72C132.168 31.56 132.262 31.3867 132.368 31.2C132.542 30.9067 132.722 30.76 132.908 30.76C133.095 30.76 133.248 30.8333 133.368 30.98C133.488 31.1267 133.548 31.3 133.548 31.5C133.548 31.6867 133.488 31.9067 133.368 32.16C133.262 32.4133 133.082 32.76 132.828 33.2C132.575 33.6267 132.375 33.98 132.228 34.26C131.882 35.1667 131.708 35.7867 131.708 36.12C131.708 36.4533 131.795 36.7067 131.968 36.88C132.155 37.0533 132.368 37.14 132.608 37.14C133.062 37.14 133.602 36.7933 134.228 36.1C134.868 35.3933 135.528 34.3467 136.208 32.96C136.288 32.7867 136.382 32.5933 136.488 32.38C136.595 32.1533 136.675 31.9867 136.728 31.88C136.782 31.76 136.842 31.6267 136.908 31.48C136.988 31.3333 137.048 31.2267 137.088 31.16C137.142 31.08 137.195 31.0067 137.248 30.94C137.368 30.82 137.502 30.76 137.648 30.76C137.808 30.76 137.948 30.8333 138.068 30.98C138.188 31.1267 138.248 31.3 138.248 31.5C138.248 31.6867 137.915 32.5133 137.248 33.98C136.595 35.4333 136.268 36.3133 136.268 36.62C136.268 36.9267 136.328 37.1533 136.448 37.3C136.582 37.4467 136.708 37.52 136.828 37.52C136.962 37.52 137.062 37.5133 137.128 37.5C137.195 37.4867 137.262 37.46 137.328 37.42C137.395 37.38 137.448 37.3467 137.488 37.32C137.542 37.2933 137.602 37.2467 137.668 37.18L137.808 37.04C137.848 37 137.902 36.94 137.968 36.86C138.048 36.7667 138.102 36.7067 138.128 36.68ZM148.054 37.74L148.114 38.26C148.06 38.3 147.44 38.54 146.254 38.98C146.094 39.86 145.887 40.7267 145.634 41.58C145.394 42.4467 145.147 43.1 144.894 43.54C144.654 43.9933 144.367 44.44 144.034 44.88C143.367 45.76 142.467 46.2 141.334 46.2C140.774 46.2 140.327 46.0267 139.994 45.68C139.66 45.3333 139.494 44.86 139.494 44.26C139.494 41.9533 141.427 40.1 145.294 38.7L146.374 34.9C145.227 36.62 144.194 37.68 143.274 38.08C142.82 38.2933 142.34 38.4 141.834 38.4C141.34 38.4 140.94 38.24 140.634 37.92C140.34 37.6 140.194 37.1333 140.194 36.52C140.194 35.9067 140.4 35.0533 140.814 33.96C141.24 32.8533 141.714 31.9267 142.234 31.18L143.214 31.6C143.174 31.64 142.987 31.9933 142.654 32.66C142.067 33.8733 141.774 34.7733 141.774 35.36C141.774 35.9467 141.887 36.34 142.114 36.54C142.34 36.74 142.674 36.84 143.114 36.84C143.554 36.84 144.047 36.58 144.594 36.06C145.154 35.5267 146.014 34.48 147.174 32.92L147.894 33.34C147.787 33.78 147.547 34.58 147.174 35.74C146.814 36.8867 146.567 37.7667 146.434 38.38L148.054 37.74ZM145.174 39.3C144.334 39.6867 143.594 40.1267 142.954 40.62C141.754 41.5267 141.154 42.4067 141.154 43.26C141.154 43.58 141.247 43.84 141.434 44.04C141.62 44.24 141.854 44.34 142.134 44.34C143.467 44.34 144.48 42.66 145.174 39.3ZM161.257 32.72C160.937 34.24 160.77 35.3467 160.757 36.04C160.757 36.9867 161.03 37.46 161.577 37.46C162.164 37.46 162.69 37.2067 163.157 36.7C163.624 36.1933 163.857 35.6 163.857 34.92C163.857 34.24 163.604 33.9 163.097 33.9C162.95 33.9 162.63 33.9867 162.137 34.16L161.897 33.56C162.75 32.96 163.424 32.66 163.917 32.66C164.837 32.66 165.297 33.12 165.297 34.04C165.297 35.12 164.844 36.22 163.937 37.34C163.044 38.4467 162.104 39 161.117 39C160.037 39 159.497 38.2267 159.497 36.68C159.497 35.9467 159.704 34.7333 160.117 33.04L158.497 33.64L158.477 33.16C158.61 33.08 159.217 32.84 160.297 32.44C160.75 29.7733 161.377 27.9067 162.177 26.84C162.977 25.76 163.99 25.22 165.217 25.22C165.777 25.22 166.224 25.4 166.557 25.76C166.89 26.12 167.057 26.5867 167.057 27.16C167.057 28.3067 166.53 29.38 165.477 30.38C164.424 31.3667 163.017 32.1467 161.257 32.72ZM161.377 32.12C162.537 31.5867 163.497 30.9467 164.257 30.2C165.017 29.4533 165.397 28.7733 165.397 28.16C165.397 27.84 165.304 27.58 165.117 27.38C164.93 27.18 164.697 27.08 164.417 27.08C163.857 27.08 163.304 27.4733 162.757 28.26C162.21 29.0467 161.75 30.3333 161.377 32.12ZM171.765 30.52C171.018 30.52 170.645 30.22 170.645 29.62C170.645 29.2867 170.738 29.0067 170.925 28.78C171.112 28.5533 171.352 28.44 171.645 28.44C171.938 28.44 172.178 28.5267 172.365 28.7C172.552 28.8733 172.645 29.1 172.645 29.38C172.645 29.66 172.565 29.92 172.405 30.16C172.245 30.4 172.032 30.52 171.765 30.52ZM171.505 36.42L171.905 36.76C171.585 37.3733 171.158 37.9 170.625 38.34C170.105 38.7667 169.632 38.98 169.205 38.98C168.458 38.98 168.085 38.46 168.085 37.42C168.085 36.1267 168.618 34.44 169.685 32.36C169.925 31.9067 170.065 31.64 170.105 31.56L170.965 32.08C170.685 32.5867 170.338 33.3933 169.925 34.5C169.525 35.6067 169.325 36.32 169.325 36.64C169.325 36.9467 169.392 37.1667 169.525 37.3C169.658 37.4333 169.818 37.5 170.005 37.5C170.365 37.5 170.865 37.14 171.505 36.42ZM182.067 38.28L182.087 38.76C181.954 38.84 181.347 39.08 180.267 39.48C179.84 42.0267 179.214 43.8667 178.387 45C177.56 46.1333 176.547 46.7 175.347 46.7C174.787 46.7 174.34 46.52 174.007 46.16C173.674 45.8 173.507 45.3333 173.507 44.76C173.507 43.6133 174.034 42.54 175.087 41.54C176.14 40.5533 177.547 39.7733 179.307 39.2C179.507 38.3067 179.867 37.0467 180.387 35.42C179.494 36.78 178.68 37.7 177.947 38.18C177.227 38.66 176.574 38.9 175.987 38.9C175.4 38.9 174.954 38.74 174.647 38.42C174.354 38.1 174.207 37.6733 174.207 37.14C174.207 36.26 174.574 35.3667 175.307 34.46C176.04 33.54 176.96 32.7933 178.067 32.22C179.187 31.6333 180.267 31.34 181.307 31.34L181.467 32.04C179.987 32.2 178.714 32.72 177.647 33.6C176.594 34.48 176.067 35.3267 176.067 36.14C176.067 36.4867 176.174 36.7733 176.387 37C176.6 37.2267 176.86 37.34 177.167 37.34C177.62 37.34 178.307 36.86 179.227 35.9C180.147 34.94 180.794 34.12 181.167 33.44L181.907 33.86C181.174 35.82 180.667 37.4733 180.387 38.82L182.067 38.28ZM179.187 39.8C178.027 40.3333 177.067 40.9733 176.307 41.72C175.547 42.4667 175.167 43.1467 175.167 43.76C175.167 44.08 175.26 44.34 175.447 44.54C175.634 44.74 175.867 44.84 176.147 44.84C176.707 44.84 177.26 44.4467 177.807 43.66C178.354 42.8733 178.814 41.5867 179.187 39.8ZM188.522 33.06C188.869 33.6333 189.042 34.2667 189.042 34.96C189.042 36.04 188.669 37.0067 187.922 37.86C187.175 38.7 186.295 39.12 185.282 39.12C184.509 39.12 183.902 38.9 183.462 38.46C183.035 38.0067 182.822 37.3867 182.822 36.6C182.822 35.3333 183.315 34.2 184.302 33.2C185.289 32.1867 186.395 31.68 187.622 31.68C187.849 31.68 188.009 31.6867 188.102 31.7L188.162 32.36C187.095 32.36 186.209 32.6667 185.502 33.28C184.795 33.8933 184.442 34.68 184.442 35.64C184.442 36.2133 184.582 36.68 184.862 37.04C185.142 37.3867 185.549 37.56 186.082 37.56C186.629 37.56 187.062 37.32 187.382 36.84C187.702 36.36 187.862 35.8 187.862 35.16C187.862 34.5067 187.735 33.9133 187.482 33.38L188.522 33.06ZM191.674 27.8C191.674 27.08 191.94 26.5267 192.474 26.14C193.007 25.7533 193.76 25.56 194.734 25.56C195.72 25.5467 196.387 25.62 196.734 25.78L196.554 26.62C196.087 26.5533 195.58 26.52 195.034 26.52C193.86 26.52 193.274 27.0067 193.274 27.98C193.274 28.2467 193.627 29.0333 194.334 30.34C195.054 31.6467 195.467 32.4333 195.574 32.7C195.694 32.9667 195.794 33.32 195.874 33.76C195.967 34.1867 196.014 34.5067 196.014 34.72C196.014 35.8933 195.647 36.9067 194.914 37.76C194.18 38.6 193.294 39.02 192.254 39.02C191.48 39.02 190.874 38.8 190.434 38.36C190.007 37.9067 189.794 37.26 189.794 36.42C189.794 35.5667 190.067 34.7267 190.614 33.9C191.16 33.0733 191.854 32.4533 192.694 32.04L192.954 32.82C191.927 33.46 191.414 34.3667 191.414 35.54C191.414 36.1133 191.554 36.58 191.834 36.94C192.114 37.2867 192.5 37.46 192.994 37.46C193.487 37.46 193.914 37.24 194.274 36.8C194.647 36.36 194.834 35.8067 194.834 35.14C194.834 34.4733 194.74 33.94 194.554 33.54C194.38 33.14 194.047 32.52 193.554 31.68C192.3 29.48 191.674 28.1867 191.674 27.8ZM200.235 35.32C201.249 33.8 202.129 32.7667 202.875 32.22C203.622 31.66 204.275 31.38 204.835 31.38C205.395 31.38 205.829 31.5533 206.135 31.9C206.442 32.2333 206.595 32.66 206.595 33.18C206.595 34.62 206.075 35.9533 205.035 37.18C204.009 38.3933 202.849 39 201.555 39C200.982 39 200.529 38.9 200.195 38.7L200.675 37.84C201.382 37.9333 201.815 37.98 201.975 37.98C202.695 37.98 203.369 37.56 203.995 36.72C204.622 35.88 204.935 35.02 204.935 34.14C204.935 33.8067 204.835 33.5333 204.635 33.32C204.449 33.0933 204.202 32.98 203.895 32.98C203.162 32.98 202.329 33.6267 201.395 34.92C200.475 36.2133 199.609 37.8133 198.795 39.72C197.995 41.64 197.295 43.68 196.695 45.84L195.495 45.42C195.522 45.34 195.775 44.6467 196.255 43.34C196.722 42.0467 197.182 40.76 197.635 39.48C198.889 35.96 199.515 34.0333 199.515 33.7C199.515 32.8467 199.342 32.0733 198.995 31.38L199.995 30.88C200.409 31.4533 200.615 32.06 200.615 32.7C200.615 33.3267 200.489 34.2 200.235 35.32ZM216.128 36.98L216.588 37.32C216.402 37.72 216.055 38.1 215.548 38.46C215.055 38.82 214.602 39 214.188 39C213.402 39 213.008 38.5867 213.008 37.76C213.008 37.3733 213.108 36.9133 213.308 36.38L212.568 37.14C211.848 37.8733 211.222 38.3667 210.688 38.62C210.168 38.8733 209.655 39 209.148 39C208.642 39 208.255 38.86 207.988 38.58C207.735 38.2867 207.608 37.8867 207.608 37.38C207.608 36.4467 207.968 35.5267 208.688 34.62C209.408 33.7 210.328 32.9533 211.448 32.38C212.568 31.8067 213.688 31.5133 214.808 31.5L214.848 32.16L214.008 32.34C212.795 32.6067 211.722 33.14 210.788 33.94C209.868 34.74 209.408 35.54 209.408 36.34C209.408 37.1267 209.728 37.52 210.368 37.52C210.968 37.52 211.708 37.1 212.588 36.26C213.468 35.42 214.202 34.4333 214.788 33.3L215.628 33.8C214.802 35.4667 214.388 36.5267 214.388 36.98C214.388 37.1667 214.448 37.3267 214.568 37.46C214.702 37.58 214.828 37.64 214.948 37.64C215.082 37.64 215.168 37.6333 215.208 37.62C215.248 37.6067 215.288 37.5933 215.328 37.58C215.368 37.5533 215.415 37.52 215.468 37.48C215.535 37.44 215.588 37.4 215.628 37.36C215.682 37.32 215.762 37.26 215.868 37.18C215.975 37.1 216.062 37.0333 216.128 36.98ZM217.414 38.84C218.134 37.4933 219.46 36.0733 221.394 34.58C220.794 34.1267 220.194 33.58 219.594 32.94C219.007 32.2867 218.68 31.72 218.614 31.24L219.814 31.1C219.894 31.5133 220.647 32.3933 222.074 33.74C222.127 32.94 222.154 32.0067 222.154 30.94L223.454 31.06L223.254 33.44C224.894 32.28 225.974 31.6067 226.494 31.42L227.374 32.2C226.907 32.3467 226.154 32.76 225.114 33.44C224.074 34.12 223.467 34.5467 223.294 34.72C223.654 35.2 224.187 35.7533 224.894 36.38C225.6 36.9933 226.22 37.4933 226.754 37.88L227.554 38.44L226.974 39.16C226.587 38.9333 225.94 38.5 225.034 37.86C224.14 37.2067 223.46 36.6333 222.994 36.14C222.807 37.62 222.62 38.6867 222.434 39.34L221.214 39.5C221.534 38.86 221.787 37.5533 221.974 35.58C221.68 35.6733 221.207 36.04 220.554 36.68C219.9 37.3067 219.32 37.92 218.814 38.52L218.034 39.4L217.414 38.84ZM237.242 36.98L237.702 37.32C237.515 37.72 237.168 38.1 236.662 38.46C236.168 38.82 235.715 39 235.302 39C234.515 39 234.122 38.5867 234.122 37.76C234.122 37.3733 234.222 36.9133 234.422 36.38L233.682 37.14C232.962 37.8733 232.335 38.3667 231.802 38.62C231.282 38.8733 230.768 39 230.262 39C229.755 39 229.368 38.86 229.102 38.58C228.848 38.2867 228.722 37.8867 228.722 37.38C228.722 36.4467 229.082 35.5267 229.802 34.62C230.522 33.7 231.442 32.9533 232.562 32.38C233.682 31.8067 234.802 31.5133 235.922 31.5L235.962 32.16L235.122 32.34C233.908 32.6067 232.835 33.14 231.902 33.94C230.982 34.74 230.522 35.54 230.522 36.34C230.522 37.1267 230.842 37.52 231.482 37.52C232.082 37.52 232.822 37.1 233.702 36.26C234.582 35.42 235.315 34.4333 235.902 33.3L236.742 33.8C235.915 35.4667 235.502 36.5267 235.502 36.98C235.502 37.1667 235.562 37.3267 235.682 37.46C235.815 37.58 235.942 37.64 236.062 37.64C236.195 37.64 236.282 37.6333 236.322 37.62C236.362 37.6067 236.402 37.5933 236.442 37.58C236.482 37.5533 236.528 37.52 236.582 37.48C236.648 37.44 236.702 37.4 236.742 37.36C236.795 37.32 236.875 37.26 236.982 37.18C237.088 37.1 237.175 37.0333 237.242 36.98ZM243.187 34.44L243.167 35.18L240.267 35.7C240.227 35.8867 240.207 36.06 240.207 36.22C240.207 36.6067 240.327 36.92 240.567 37.16C240.807 37.4 241.12 37.52 241.507 37.52C242.12 37.52 242.907 37.0667 243.867 36.16L244.347 36.56C244.027 37.2933 243.514 37.88 242.807 38.32C242.1 38.76 241.414 38.98 240.747 38.98C240.094 38.98 239.547 38.7733 239.107 38.36C238.68 37.9467 238.467 37.38 238.467 36.66C238.467 35.94 238.78 35.16 239.407 34.32C240.034 33.48 240.84 32.7867 241.827 32.24C242.827 31.6933 243.807 31.42 244.767 31.42C244.9 31.42 245.1 31.4333 245.367 31.46L245.307 32.24C244.28 32.2933 243.367 32.54 242.567 32.98C241.767 33.42 241.154 33.9667 240.727 34.62C241.3 34.54 242.12 34.48 243.187 34.44ZM259.682 36.4L260.102 36.8C259.342 38.16 258.469 38.84 257.482 38.84C257.082 38.84 256.769 38.7333 256.542 38.52C256.329 38.2933 256.222 38 256.222 37.64C256.222 37.2667 256.442 36.6333 256.882 35.74C257.322 34.8467 257.556 34.1667 257.582 33.7C257.596 33.4867 257.529 33.3133 257.382 33.18C257.249 33.0467 257.062 32.98 256.822 32.98C256.582 32.98 256.336 33.04 256.082 33.16C255.842 33.2667 255.602 33.4467 255.362 33.7C255.136 33.9533 254.922 34.2 254.722 34.44C254.536 34.68 254.322 35.02 254.082 35.46C253.856 35.9 253.662 36.2667 253.502 36.56C253.222 37.1067 252.822 37.9267 252.302 39.02L251.102 38.6C251.102 38.56 251.322 37.8067 251.762 36.34C252.202 34.8733 252.422 34 252.422 33.72C252.422 33.44 252.356 33.24 252.222 33.12C252.089 32.9867 251.922 32.92 251.722 32.92C251.122 32.92 250.289 33.6667 249.222 35.16C248.169 36.6533 247.496 37.9267 247.202 38.98L246.062 38.6C246.129 37.8933 246.442 36.6267 247.002 34.8C247.562 32.96 248.036 31.7067 248.422 31.04L249.322 31.36C248.909 32.28 248.622 33.06 248.462 33.7C248.302 34.3267 248.162 35 248.042 35.72C249.189 34.08 250.149 32.9333 250.922 32.28C251.696 31.6133 252.396 31.28 253.022 31.28C253.702 31.28 254.042 31.62 254.042 32.3C254.042 32.5667 253.922 33.0933 253.682 33.88C253.456 34.6667 253.276 35.2867 253.142 35.74C254.982 32.78 256.629 31.3 258.082 31.3C258.442 31.3 258.729 31.4133 258.942 31.64C259.156 31.8533 259.262 32.18 259.262 32.62C259.262 33.0467 259.009 33.76 258.502 34.76C258.009 35.76 257.762 36.3933 257.762 36.66C257.762 36.9133 257.816 37.1 257.922 37.22C258.029 37.34 258.162 37.4 258.322 37.4C258.669 37.4 259.122 37.0667 259.682 36.4ZM264.906 34.44C265.639 34.4133 266.006 34.7133 266.006 35.34C266.006 36.1667 265.559 36.9867 264.666 37.8C263.786 38.6 262.899 39 262.006 39C261.166 39 260.746 38.4333 260.746 37.3C260.746 36.4067 260.966 35.3 261.406 33.98C261.859 32.6467 262.233 31.7067 262.526 31.16L263.426 31.46C263.079 32.4733 262.726 33.7133 262.366 35.18C263.433 34.6867 264.279 34.44 264.906 34.44ZM264.586 36.5C264.666 36.3267 264.706 36.1533 264.706 35.98C264.666 35.62 264.353 35.44 263.766 35.44C263.486 35.44 262.966 35.56 262.206 35.8C262.099 36.2 262.046 36.56 262.046 36.88C262.046 37.1867 262.119 37.4333 262.266 37.62C262.426 37.8067 262.633 37.9 262.886 37.9C263.153 37.9 263.466 37.7667 263.826 37.5C264.186 37.22 264.439 36.8867 264.586 36.5ZM271.855 36.16L272.335 36.56C272.015 37.2933 271.502 37.88 270.795 38.32C270.088 38.76 269.402 38.98 268.735 38.98C268.082 38.98 267.535 38.7733 267.095 38.36C266.668 37.9467 266.455 37.38 266.455 36.66C266.455 35.94 266.768 35.16 267.395 34.32C268.022 33.48 268.828 32.7867 269.815 32.24C270.815 31.6933 271.795 31.42 272.755 31.42C272.888 31.42 273.088 31.4333 273.355 31.46L273.295 32.24C271.828 32.3067 270.608 32.7533 269.635 33.58C268.675 34.4067 268.195 35.2867 268.195 36.22C268.195 36.6067 268.315 36.92 268.555 37.16C268.795 37.4 269.108 37.52 269.495 37.52C270.108 37.52 270.895 37.0667 271.855 36.16ZM273.157 37.5L273.897 37.1C273.937 37.1533 273.991 37.2733 274.057 37.46C274.191 37.8867 274.364 38.1 274.577 38.1C275.044 38.0733 275.484 37.86 275.897 37.46C276.324 37.06 276.577 36.64 276.657 36.2C276.231 36.28 275.884 36.32 275.617 36.32C275.351 36.32 275.104 36.3067 274.877 36.28C274.664 36.24 274.444 36.1733 274.217 36.08C273.737 35.8933 273.497 35.4267 273.497 34.68C273.497 33.92 273.891 33.1333 274.677 32.32C275.464 31.5067 276.384 31.1 277.437 31.1C277.997 31.1 278.424 31.3 278.717 31.7C279.011 32.1 279.157 32.8 279.157 33.8C279.157 34.1467 279.111 34.6733 279.017 35.38C279.617 33.9533 279.931 32.5933 279.957 31.3L281.197 31.52C281.197 32.4533 280.904 33.8667 280.317 35.76C279.744 37.6533 279.291 38.86 278.957 39.38L277.697 39.14C278.097 38.1 278.297 36.94 278.297 35.66C278.297 34.38 278.204 33.54 278.017 33.14C277.817 32.7 277.484 32.48 277.017 32.48C276.564 32.48 276.124 32.6333 275.697 32.94C275.284 33.2467 275.071 33.6067 275.057 34.02C275.044 34.4333 275.191 34.7533 275.497 34.98C275.817 35.1933 276.164 35.3333 276.537 35.4C277.551 35.6 278.057 35.8533 278.057 36.16C278.057 36.4133 277.811 36.8133 277.317 37.36C276.824 37.9067 276.251 38.4133 275.597 38.88C274.957 39.3333 274.464 39.56 274.117 39.56C273.784 39.56 273.531 39.4 273.357 39.08C273.197 38.7733 273.117 38.4867 273.117 38.22C273.117 37.9533 273.131 37.7133 273.157 37.5ZM295.958 36.42L296.358 36.76C296.038 37.3733 295.612 37.9 295.078 38.34C294.558 38.7667 294.085 38.98 293.658 38.98C292.912 38.98 292.538 38.46 292.538 37.42C292.538 36.1267 293.072 34.44 294.138 32.36C294.378 31.9067 294.518 31.64 294.558 31.56L295.418 32.08C295.138 32.5867 294.792 33.3933 294.378 34.5C293.978 35.6067 293.778 36.32 293.778 36.64C293.778 36.9467 293.845 37.1667 293.978 37.3C294.112 37.4333 294.272 37.5 294.458 37.5C294.818 37.5 295.318 37.14 295.958 36.42ZM293.958 30.78C293.732 30.78 293.545 30.7067 293.398 30.56C293.252 30.4 293.178 30.2133 293.178 30C293.178 29.7733 293.252 29.5867 293.398 29.44C293.558 29.28 293.745 29.2 293.958 29.2C294.185 29.2 294.372 29.28 294.518 29.44C294.678 29.6 294.758 29.7867 294.758 30C294.758 30.2133 294.678 30.4 294.518 30.56C294.372 30.7067 294.185 30.78 293.958 30.78ZM296.498 30.78C296.285 30.78 296.098 30.7067 295.938 30.56C295.792 30.4 295.718 30.2133 295.718 30C295.718 29.7733 295.792 29.5867 295.938 29.44C296.098 29.28 296.285 29.2 296.498 29.2C296.712 29.2 296.898 29.28 297.058 29.44C297.218 29.6 297.298 29.7867 297.298 30C297.298 30.2133 297.218 30.4 297.058 30.56C296.912 30.7067 296.725 30.78 296.498 30.78ZM301.64 35.66C300.853 36.3667 299.793 37.52 298.46 39.12L297.9 38.66C298.153 38.0467 299.24 36.7667 301.16 34.82C300.653 33.5933 300.373 32.5867 300.32 31.8L301.64 31.56C301.707 31.6533 301.967 32.46 302.42 33.98C304.1 32.78 305.293 32.0133 306 31.68L306.38 32.22C306.153 32.4067 305.753 32.6933 305.18 33.08C303.647 34.12 302.84 34.68 302.76 34.76C303.48 36.2933 304.34 37.6133 305.34 38.72L304.4 39.32C303.307 38.52 302.387 37.3 301.64 35.66ZM2.8 57.72C2.48 59.24 2.31333 60.3467 2.3 61.04C2.3 61.9867 2.57333 62.46 3.12 62.46C3.70667 62.46 4.23333 62.2067 4.7 61.7C5.16667 61.1933 5.4 60.6 5.4 59.92C5.4 59.24 5.14667 58.9 4.64 58.9C4.49333 58.9 4.17333 58.9867 3.68 59.16L3.44 58.56C4.29333 57.96 4.96667 57.66 5.46 57.66C6.38 57.66 6.84 58.12 6.84 59.04C6.84 60.12 6.38667 61.22 5.48 62.34C4.58667 63.4467 3.64667 64 2.66 64C1.58 64 1.04 63.2267 1.04 61.68C1.04 60.9467 1.24667 59.7333 1.66 58.04L0.04 58.64L0.02 58.16C0.153333 58.08 0.76 57.84 1.84 57.44C2.29333 54.7733 2.92 52.9067 3.72 51.84C4.52 50.76 5.53333 50.22 6.76 50.22C7.32 50.22 7.76667 50.4 8.1 50.76C8.43333 51.12 8.6 51.5867 8.6 52.16C8.6 53.3067 8.07333 54.38 7.02 55.38C5.96667 56.3667 4.56 57.1467 2.8 57.72ZM2.92 57.12C4.08 56.5867 5.04 55.9467 5.8 55.2C6.56 54.4533 6.94 53.7733 6.94 53.16C6.94 52.84 6.84667 52.58 6.66 52.38C6.47333 52.18 6.24 52.08 5.96 52.08C5.4 52.08 4.84667 52.4733 4.3 53.26C3.75333 54.0467 3.29333 55.3333 2.92 57.12ZM17.2881 56.22L18.0681 56.4C18.0548 56.4933 17.8615 56.9 17.4881 57.62C17.1281 58.3267 16.7415 59.26 16.3281 60.42C15.9148 61.5667 15.6481 62.7267 15.5281 63.9L14.2481 63.8C14.2481 63.0667 14.4815 62.12 14.9481 60.96C14.8281 60.9467 14.5815 60.94 14.2081 60.94C13.8481 60.94 13.1815 61.0267 12.2081 61.2C11.5281 62.72 11.1881 64.02 11.1881 65.1L9.84813 64.92C9.84813 63.9733 10.2015 62.8067 10.9081 61.42C10.2281 61.5267 9.54813 61.6867 8.86813 61.9L8.66812 61.12C8.66812 61.08 9.02146 60.9667 9.72813 60.78C10.4481 60.5933 10.9815 60.4733 11.3281 60.42C12.3948 57.9667 13.1215 56.5467 13.5081 56.16L14.3681 56.5C14.3015 56.6333 14.1481 56.9333 13.9081 57.4C13.3081 58.56 12.9015 59.4667 12.6881 60.12C13.8481 60 14.5415 59.94 14.7681 59.94C15.0081 59.94 15.2081 59.9467 15.3681 59.96C16.3015 57.8133 16.9415 56.5667 17.2881 56.22ZM27.1942 62.74L27.2542 63.26C27.2009 63.3 26.5809 63.54 25.3942 63.98C25.2342 64.86 25.0276 65.7267 24.7742 66.58C24.5342 67.4467 24.2876 68.1 24.0342 68.54C23.7942 68.9933 23.5076 69.44 23.1742 69.88C22.5076 70.76 21.6076 71.2 20.4742 71.2C19.9142 71.2 19.4676 71.0267 19.1342 70.68C18.8009 70.3333 18.6342 69.86 18.6342 69.26C18.6342 66.9533 20.5676 65.1 24.4342 63.7L25.5142 59.9C24.3676 61.62 23.3342 62.68 22.4142 63.08C21.9609 63.2933 21.4809 63.4 20.9742 63.4C20.4809 63.4 20.0809 63.24 19.7742 62.92C19.4809 62.6 19.3342 62.1333 19.3342 61.52C19.3342 60.9067 19.5409 60.0533 19.9542 58.96C20.3809 57.8533 20.8542 56.9267 21.3742 56.18L22.3542 56.6C22.3142 56.64 22.1276 56.9933 21.7942 57.66C21.2076 58.8733 20.9142 59.7733 20.9142 60.36C20.9142 60.9467 21.0276 61.34 21.2542 61.54C21.4809 61.74 21.8142 61.84 22.2542 61.84C22.6942 61.84 23.1876 61.58 23.7342 61.06C24.2942 60.5267 25.1542 59.48 26.3142 57.92L27.0342 58.34C26.9276 58.78 26.6876 59.58 26.3142 60.74C25.9542 61.8867 25.7076 62.7667 25.5742 63.38L27.1942 62.74ZM24.3142 64.3C23.4742 64.6867 22.7342 65.1267 22.0942 65.62C20.8942 66.5267 20.2942 67.4067 20.2942 68.26C20.2942 68.58 20.3876 68.84 20.5742 69.04C20.7609 69.24 20.9942 69.34 21.2742 69.34C22.6076 69.34 23.6209 67.66 24.3142 64.3ZM41.9283 61.4L42.3483 61.8C41.5883 63.16 40.7149 63.84 39.7283 63.84C39.3283 63.84 39.0149 63.7333 38.7883 63.52C38.5749 63.2933 38.4683 63 38.4683 62.64C38.4683 62.2667 38.6883 61.6333 39.1283 60.74C39.5683 59.8467 39.8016 59.1667 39.8283 58.7C39.8416 58.4867 39.7749 58.3133 39.6283 58.18C39.4949 58.0467 39.3083 57.98 39.0683 57.98C38.8283 57.98 38.5816 58.04 38.3283 58.16C38.0883 58.2667 37.8483 58.4467 37.6083 58.7C37.3816 58.9533 37.1683 59.2 36.9683 59.44C36.7816 59.68 36.5683 60.02 36.3283 60.46C36.1016 60.9 35.9083 61.2667 35.7483 61.56C35.4683 62.1067 35.0683 62.9267 34.5483 64.02L33.3483 63.6C33.3483 63.56 33.5683 62.8067 34.0083 61.34C34.4483 59.8733 34.6683 59 34.6683 58.72C34.6683 58.44 34.6016 58.24 34.4683 58.12C34.3349 57.9867 34.1683 57.92 33.9683 57.92C33.3683 57.92 32.5349 58.6667 31.4683 60.16C30.4149 61.6533 29.7416 62.9267 29.4483 63.98L28.3083 63.6C28.3749 62.8933 28.6883 61.6267 29.2483 59.8C29.8083 57.96 30.2816 56.7067 30.6683 56.04L31.5683 56.36C31.1549 57.28 30.8683 58.06 30.7083 58.7C30.5483 59.3267 30.4083 60 30.2883 60.72C31.4349 59.08 32.3949 57.9333 33.1683 57.28C33.9416 56.6133 34.6416 56.28 35.2683 56.28C35.9483 56.28 36.2883 56.62 36.2883 57.3C36.2883 57.5667 36.1683 58.0933 35.9283 58.88C35.7016 59.6667 35.5216 60.2867 35.3883 60.74C37.2283 57.78 38.8749 56.3 40.3283 56.3C40.6883 56.3 40.9749 56.4133 41.1883 56.64C41.4016 56.8533 41.5083 57.18 41.5083 57.62C41.5083 58.0467 41.2549 58.76 40.7483 59.76C40.2549 60.76 40.0083 61.3933 40.0083 61.66C40.0083 61.9133 40.0616 62.1 40.1683 62.22C40.2749 62.34 40.4083 62.4 40.5683 62.4C40.9149 62.4 41.3683 62.0667 41.9283 61.4ZM46.212 60.32C47.2254 58.8 48.1054 57.7667 48.852 57.22C49.5987 56.66 50.252 56.38 50.812 56.38C51.372 56.38 51.8054 56.5533 52.112 56.9C52.4187 57.2333 52.572 57.66 52.572 58.18C52.572 59.62 52.052 60.9533 51.012 62.18C49.9854 63.3933 48.8254 64 47.532 64C46.9587 64 46.5054 63.9 46.172 63.7L46.652 62.84C47.3587 62.9333 47.792 62.98 47.952 62.98C48.672 62.98 49.3454 62.56 49.972 61.72C50.5987 60.88 50.912 60.02 50.912 59.14C50.912 58.8067 50.812 58.5333 50.612 58.32C50.4254 58.0933 50.1787 57.98 49.872 57.98C49.1387 57.98 48.3054 58.6267 47.372 59.92C46.452 61.2133 45.5854 62.8133 44.772 64.72C43.972 66.64 43.272 68.68 42.672 70.84L41.472 70.42C41.4987 70.34 41.752 69.6467 42.232 68.34C42.6987 67.0467 43.1587 65.76 43.612 64.48C44.8654 60.96 45.492 59.0333 45.492 58.7C45.492 57.8467 45.3187 57.0733 44.972 56.38L45.972 55.88C46.3854 56.4533 46.592 57.06 46.592 57.7C46.592 58.3267 46.4654 59.2 46.212 60.32ZM57.605 55.52C56.8583 55.52 56.485 55.22 56.485 54.62C56.485 54.2867 56.5783 54.0067 56.765 53.78C56.9517 53.5533 57.1917 53.44 57.485 53.44C57.7783 53.44 58.0183 53.5267 58.205 53.7C58.3917 53.8733 58.485 54.1 58.485 54.38C58.485 54.66 58.405 54.92 58.245 55.16C58.085 55.4 57.8717 55.52 57.605 55.52ZM57.345 61.42L57.745 61.76C57.425 62.3733 56.9983 62.9 56.465 63.34C55.945 63.7667 55.4717 63.98 55.045 63.98C54.2983 63.98 53.925 63.46 53.925 62.42C53.925 61.1267 54.4583 59.44 55.525 57.36C55.765 56.9067 55.905 56.64 55.945 56.56L56.805 57.08C56.525 57.5867 56.1783 58.3933 55.765 59.5C55.365 60.6067 55.165 61.32 55.165 61.64C55.165 61.9467 55.2317 62.1667 55.365 62.3C55.4983 62.4333 55.6583 62.5 55.845 62.5C56.205 62.5 56.705 62.14 57.345 61.42ZM69.3867 61.62C69.3867 61.8867 69.4467 62.0933 69.5667 62.24C69.7001 62.3867 69.8334 62.46 69.9667 62.46C70.1001 62.46 70.2001 62.4533 70.2667 62.44C70.3334 62.4267 70.4001 62.4 70.4667 62.36C70.5334 62.3067 70.5867 62.2667 70.6267 62.24C70.6801 62.2133 70.7401 62.1667 70.8067 62.1C70.8867 62.02 70.9401 61.9667 70.9667 61.94C71.0201 61.86 71.1134 61.7533 71.2467 61.62L71.6667 61.96C71.4267 62.52 71.0601 62.9933 70.5667 63.38C70.0867 63.7667 69.6534 63.96 69.2667 63.96C68.8801 63.96 68.5734 63.82 68.3467 63.54C68.1201 63.26 68.0067 62.9067 68.0067 62.48C68.0067 62.04 68.0801 61.4733 68.2267 60.78C67.5867 61.7933 66.9401 62.5733 66.2867 63.12C65.6467 63.6667 65.0667 63.94 64.5467 63.94C63.8267 63.94 63.4667 63.48 63.4667 62.56C63.4667 62.2667 63.5601 61.68 63.7467 60.8C63.1067 61.8 62.4534 62.58 61.7867 63.14C61.1334 63.6867 60.5467 63.96 60.0267 63.96C59.3067 63.96 58.9467 63.5133 58.9467 62.62C58.9467 61.7267 59.2534 60.5333 59.8667 59.04C60.4801 57.5333 60.9267 56.66 61.2067 56.42L62.1667 56.84C61.7134 57.5733 61.3201 58.42 60.9867 59.38C60.6667 60.3267 60.5067 60.9333 60.5067 61.2C60.5067 61.4533 60.5801 61.68 60.7267 61.88C60.8734 62.0667 61.0334 62.16 61.2067 62.16C61.7001 62.16 62.4601 61.44 63.4867 60C64.5267 58.56 65.2267 57.3333 65.5867 56.32L66.7867 56.84C66.5201 57.2 66.1601 57.9267 65.7067 59.02C65.2534 60.1 65.0267 60.7933 65.0267 61.1C65.0267 61.4067 65.1201 61.6467 65.3067 61.82C65.4934 61.9933 65.6801 62.08 65.8667 62.08C66.3467 62.08 67.0534 61.4733 67.9867 60.26C68.9334 59.0333 69.6601 57.7333 70.1667 56.36L71.3467 56.88C71.2667 57.0533 71.0467 57.4933 70.6867 58.2C69.8201 59.84 69.3867 60.98 69.3867 61.62ZM80.1202 56.22L80.9002 56.4C80.8868 56.4933 80.6935 56.9 80.3202 57.62C79.9602 58.3267 79.5735 59.26 79.1602 60.42C78.7468 61.5667 78.4802 62.7267 78.3602 63.9L77.0802 63.8C77.0802 63.0667 77.3135 62.12 77.7802 60.96C77.6602 60.9467 77.4135 60.94 77.0402 60.94C76.6802 60.94 76.0135 61.0267 75.0402 61.2C74.3602 62.72 74.0202 64.02 74.0202 65.1L72.6802 64.92C72.6802 63.9733 73.0335 62.8067 73.7402 61.42C73.0602 61.5267 72.3802 61.6867 71.7002 61.9L71.5002 61.12C71.5002 61.08 71.8535 60.9667 72.5602 60.78C73.2802 60.5933 73.8135 60.4733 74.1602 60.42C75.2268 57.9667 75.9535 56.5467 76.3402 56.16L77.2002 56.5C77.1335 56.6333 76.9802 56.9333 76.7402 57.4C76.1402 58.56 75.7335 59.4667 75.5202 60.12C76.6802 60 77.3735 59.94 77.6002 59.94C77.8402 59.94 78.0402 59.9467 78.2002 59.96C79.1335 57.8133 79.7735 56.5667 80.1202 56.22ZM81.9463 62.5L82.6863 62.1C82.7263 62.1533 82.7796 62.2733 82.8463 62.46C82.9796 62.8867 83.1529 63.1 83.3663 63.1C83.8329 63.0733 84.2729 62.86 84.6863 62.46C85.1129 62.06 85.3663 61.64 85.4463 61.2C85.0196 61.28 84.6729 61.32 84.4063 61.32C84.1396 61.32 83.8929 61.3067 83.6663 61.28C83.4529 61.24 83.2329 61.1733 83.0063 61.08C82.5263 60.8933 82.2863 60.4267 82.2863 59.68C82.2863 58.92 82.6796 58.1333 83.4663 57.32C84.2529 56.5067 85.1729 56.1 86.2263 56.1C86.7863 56.1 87.2129 56.3 87.5063 56.7C87.7996 57.1 87.9463 57.8 87.9463 58.8C87.9463 59.1467 87.8996 59.6733 87.8063 60.38C88.4063 58.9533 88.7196 57.5933 88.7463 56.3L89.9863 56.52C89.9863 57.4533 89.6929 58.8667 89.1063 60.76C88.5329 62.6533 88.0796 63.86 87.7463 64.38L86.4863 64.14C86.8863 63.1 87.0863 61.94 87.0863 60.66C87.0863 59.38 86.9929 58.54 86.8063 58.14C86.6063 57.7 86.2729 57.48 85.8063 57.48C85.3529 57.48 84.9129 57.6333 84.4863 57.94C84.0729 58.2467 83.8596 58.6067 83.8463 59.02C83.8329 59.4333 83.9796 59.7533 84.2863 59.98C84.6063 60.1933 84.9529 60.3333 85.3263 60.4C86.3396 60.6 86.8463 60.8533 86.8463 61.16C86.8463 61.4133 86.5996 61.8133 86.1063 62.36C85.6129 62.9067 85.0396 63.4133 84.3863 63.88C83.7463 64.3333 83.2529 64.56 82.9063 64.56C82.5729 64.56 82.3196 64.4 82.1463 64.08C81.9863 63.7733 81.9063 63.4867 81.9063 63.22C81.9063 62.9533 81.9196 62.7133 81.9463 62.5ZM106.347 61.16L106.827 61.56C106.507 62.2933 105.994 62.88 105.287 63.32C104.581 63.76 103.894 63.98 103.227 63.98C102.574 63.98 102.027 63.7733 101.587 63.36C101.161 62.9467 100.947 62.38 100.947 61.66C100.947 60.94 101.261 60.16 101.887 59.32C102.514 58.48 103.321 57.7867 104.307 57.24C105.307 56.6933 106.287 56.42 107.247 56.42C107.381 56.42 107.581 56.4333 107.847 56.46L107.787 57.24C106.321 57.3067 105.101 57.7533 104.127 58.58C103.167 59.4067 102.687 60.2867 102.687 61.22C102.687 61.6067 102.807 61.92 103.047 62.16C103.287 62.4 103.601 62.52 103.987 62.52C104.601 62.52 105.387 62.0667 106.347 61.16ZM116.081 62.74L116.141 63.26C116.088 63.3 115.468 63.54 114.281 63.98C114.121 64.86 113.914 65.7267 113.661 66.58C113.421 67.4467 113.174 68.1 112.921 68.54C112.681 68.9933 112.394 69.44 112.061 69.88C111.394 70.76 110.494 71.2 109.361 71.2C108.801 71.2 108.354 71.0267 108.021 70.68C107.688 70.3333 107.521 69.86 107.521 69.26C107.521 66.9533 109.454 65.1 113.321 63.7L114.401 59.9C113.254 61.62 112.221 62.68 111.301 63.08C110.848 63.2933 110.368 63.4 109.861 63.4C109.368 63.4 108.968 63.24 108.661 62.92C108.368 62.6 108.221 62.1333 108.221 61.52C108.221 60.9067 108.428 60.0533 108.841 58.96C109.268 57.8533 109.741 56.9267 110.261 56.18L111.241 56.6C111.201 56.64 111.014 56.9933 110.681 57.66C110.094 58.8733 109.801 59.7733 109.801 60.36C109.801 60.9467 109.914 61.34 110.141 61.54C110.368 61.74 110.701 61.84 111.141 61.84C111.581 61.84 112.074 61.58 112.621 61.06C113.181 60.5267 114.041 59.48 115.201 57.92L115.921 58.34C115.814 58.78 115.574 59.58 115.201 60.74C114.841 61.8867 114.594 62.7667 114.461 63.38L116.081 62.74ZM113.201 64.3C112.361 64.6867 111.621 65.1267 110.981 65.62C109.781 66.5267 109.181 67.4067 109.181 68.26C109.181 68.58 109.274 68.84 109.461 69.04C109.648 69.24 109.881 69.34 110.161 69.34C111.494 69.34 112.508 67.66 113.201 64.3ZM130.815 61.4L131.235 61.8C130.475 63.16 129.602 63.84 128.615 63.84C128.215 63.84 127.902 63.7333 127.675 63.52C127.462 63.2933 127.355 63 127.355 62.64C127.355 62.2667 127.575 61.6333 128.015 60.74C128.455 59.8467 128.688 59.1667 128.715 58.7C128.728 58.4867 128.662 58.3133 128.515 58.18C128.382 58.0467 128.195 57.98 127.955 57.98C127.715 57.98 127.468 58.04 127.215 58.16C126.975 58.2667 126.735 58.4467 126.495 58.7C126.268 58.9533 126.055 59.2 125.855 59.44C125.668 59.68 125.455 60.02 125.215 60.46C124.988 60.9 124.795 61.2667 124.635 61.56C124.355 62.1067 123.955 62.9267 123.435 64.02L122.235 63.6C122.235 63.56 122.455 62.8067 122.895 61.34C123.335 59.8733 123.555 59 123.555 58.72C123.555 58.44 123.488 58.24 123.355 58.12C123.222 57.9867 123.055 57.92 122.855 57.92C122.255 57.92 121.422 58.6667 120.355 60.16C119.302 61.6533 118.628 62.9267 118.335 63.98L117.195 63.6C117.262 62.8933 117.575 61.6267 118.135 59.8C118.695 57.96 119.168 56.7067 119.555 56.04L120.455 56.36C120.042 57.28 119.755 58.06 119.595 58.7C119.435 59.3267 119.295 60 119.175 60.72C120.322 59.08 121.282 57.9333 122.055 57.28C122.828 56.6133 123.528 56.28 124.155 56.28C124.835 56.28 125.175 56.62 125.175 57.3C125.175 57.5667 125.055 58.0933 124.815 58.88C124.588 59.6667 124.408 60.2867 124.275 60.74C126.115 57.78 127.762 56.3 129.215 56.3C129.575 56.3 129.862 56.4133 130.075 56.64C130.288 56.8533 130.395 57.18 130.395 57.62C130.395 58.0467 130.142 58.76 129.635 59.76C129.142 60.76 128.895 61.3933 128.895 61.66C128.895 61.9133 128.948 62.1 129.055 62.22C129.162 62.34 129.295 62.4 129.455 62.4C129.802 62.4 130.255 62.0667 130.815 61.4ZM140.179 56.22L140.959 56.4C140.945 56.4933 140.752 56.9 140.379 57.62C140.019 58.3267 139.632 59.26 139.219 60.42C138.805 61.5667 138.539 62.7267 138.419 63.9L137.139 63.8C137.139 63.0667 137.372 62.12 137.839 60.96C137.719 60.9467 137.472 60.94 137.099 60.94C136.739 60.94 136.072 61.0267 135.099 61.2C134.419 62.72 134.079 64.02 134.079 65.1L132.739 64.92C132.739 63.9733 133.092 62.8067 133.799 61.42C133.119 61.5267 132.439 61.6867 131.759 61.9L131.559 61.12C131.559 61.08 131.912 60.9667 132.619 60.78C133.339 60.5933 133.872 60.4733 134.219 60.42C135.285 57.9667 136.012 56.5467 136.399 56.16L137.259 56.5C137.192 56.6333 137.039 56.9333 136.799 57.4C136.199 58.56 135.792 59.4667 135.579 60.12C136.739 60 137.432 59.94 137.659 59.94C137.899 59.94 138.099 59.9467 138.259 59.96C139.192 57.8133 139.832 56.5667 140.179 56.22ZM145.945 55.52C145.198 55.52 144.825 55.22 144.825 54.62C144.825 54.2867 144.918 54.0067 145.105 53.78C145.292 53.5533 145.532 53.44 145.825 53.44C146.118 53.44 146.358 53.5267 146.545 53.7C146.732 53.8733 146.825 54.1 146.825 54.38C146.825 54.66 146.745 54.92 146.585 55.16C146.425 55.4 146.212 55.52 145.945 55.52ZM145.685 61.42L146.085 61.76C145.765 62.3733 145.338 62.9 144.805 63.34C144.285 63.7667 143.812 63.98 143.385 63.98C142.638 63.98 142.265 63.46 142.265 62.42C142.265 61.1267 142.798 59.44 143.865 57.36C144.105 56.9067 144.245 56.64 144.285 56.56L145.145 57.08C144.865 57.5867 144.518 58.3933 144.105 59.5C143.705 60.6067 143.505 61.32 143.505 61.64C143.505 61.9467 143.572 62.1667 143.705 62.3C143.838 62.4333 143.998 62.5 144.185 62.5C144.545 62.5 145.045 62.14 145.685 61.42ZM153.047 61.16L153.527 61.56C153.207 62.2933 152.693 62.88 151.987 63.32C151.28 63.76 150.593 63.98 149.927 63.98C149.273 63.98 148.727 63.7733 148.287 63.36C147.86 62.9467 147.647 62.38 147.647 61.66C147.647 60.94 147.96 60.16 148.587 59.32C149.213 58.48 150.02 57.7867 151.007 57.24C152.007 56.6933 152.987 56.42 153.947 56.42C154.08 56.42 154.28 56.4333 154.547 56.46L154.487 57.24C153.02 57.3067 151.8 57.7533 150.827 58.58C149.867 59.4067 149.387 60.2867 149.387 61.22C149.387 61.6067 149.507 61.92 149.747 62.16C149.987 62.4 150.3 62.52 150.687 62.52C151.3 62.52 152.087 62.0667 153.047 61.16ZM168.061 61.4L168.481 61.8C167.721 63.16 166.848 63.84 165.861 63.84C165.461 63.84 165.148 63.7333 164.921 63.52C164.708 63.2933 164.601 63 164.601 62.64C164.601 62.2667 164.821 61.6333 165.261 60.74C165.701 59.8467 165.934 59.1667 165.961 58.7C165.974 58.4867 165.908 58.3133 165.761 58.18C165.628 58.0467 165.441 57.98 165.201 57.98C164.961 57.98 164.714 58.04 164.461 58.16C164.221 58.2667 163.981 58.4467 163.741 58.7C163.514 58.9533 163.301 59.2 163.101 59.44C162.914 59.68 162.701 60.02 162.461 60.46C162.234 60.9 162.041 61.2667 161.881 61.56C161.601 62.1067 161.201 62.9267 160.681 64.02L159.481 63.6C159.481 63.56 159.701 62.8067 160.141 61.34C160.581 59.8733 160.801 59 160.801 58.72C160.801 58.44 160.734 58.24 160.601 58.12C160.468 57.9867 160.301 57.92 160.101 57.92C159.501 57.92 158.668 58.6667 157.601 60.16C156.548 61.6533 155.874 62.9267 155.581 63.98L154.441 63.6C154.508 62.8933 154.821 61.6267 155.381 59.8C155.941 57.96 156.414 56.7067 156.801 56.04L157.701 56.36C157.288 57.28 157.001 58.06 156.841 58.7C156.681 59.3267 156.541 60 156.421 60.72C157.568 59.08 158.528 57.9333 159.301 57.28C160.074 56.6133 160.774 56.28 161.401 56.28C162.081 56.28 162.421 56.62 162.421 57.3C162.421 57.5667 162.301 58.0933 162.061 58.88C161.834 59.6667 161.654 60.2867 161.521 60.74C163.361 57.78 165.008 56.3 166.461 56.3C166.821 56.3 167.108 56.4133 167.321 56.64C167.534 56.8533 167.641 57.18 167.641 57.62C167.641 58.0467 167.388 58.76 166.881 59.76C166.388 60.76 166.141 61.3933 166.141 61.66C166.141 61.9133 166.194 62.1 166.301 62.22C166.408 62.34 166.541 62.4 166.701 62.4C167.048 62.4 167.501 62.0667 168.061 61.4ZM173.285 59.44C174.018 59.4133 174.385 59.7133 174.385 60.34C174.385 61.1667 173.938 61.9867 173.045 62.8C172.165 63.6 171.278 64 170.385 64C169.545 64 169.125 63.4333 169.125 62.3C169.125 61.4067 169.345 60.3 169.785 58.98C170.238 57.6467 170.612 56.7067 170.905 56.16L171.805 56.46C171.458 57.4733 171.105 58.7133 170.745 60.18C171.812 59.6867 172.658 59.44 173.285 59.44ZM172.965 61.5C173.045 61.3267 173.085 61.1533 173.085 60.98C173.045 60.62 172.732 60.44 172.145 60.44C171.865 60.44 171.345 60.56 170.585 60.8C170.478 61.2 170.425 61.56 170.425 61.88C170.425 62.1867 170.498 62.4333 170.645 62.62C170.805 62.8067 171.012 62.9 171.265 62.9C171.532 62.9 171.845 62.7667 172.205 62.5C172.565 62.22 172.818 61.8867 172.965 61.5ZM174.634 63.88C174.474 63.72 174.394 63.5267 174.394 63.3C174.394 63.0733 174.474 62.88 174.634 62.72C174.794 62.56 174.987 62.48 175.214 62.48C175.441 62.48 175.634 62.56 175.794 62.72C175.954 62.88 176.034 63.0733 176.034 63.3C176.034 63.5267 175.954 63.72 175.794 63.88C175.634 64.04 175.441 64.12 175.214 64.12C174.987 64.12 174.794 64.04 174.634 63.88ZM178.931 51.56C178.931 51.32 179.025 51.1133 179.211 50.94C179.398 50.7667 179.618 50.6867 179.871 50.7C180.125 50.7 180.325 50.78 180.471 50.94C180.618 51.0867 180.691 51.2867 180.691 51.54C180.691 52.1267 180.185 52.7867 179.171 53.52L178.731 52.88C179.265 52.4533 179.538 52.2267 179.551 52.2C179.138 52.0667 178.931 51.8533 178.931 51.56ZM176.511 51.52C176.511 51.28 176.605 51.08 176.791 50.92C176.965 50.7467 177.178 50.66 177.431 50.66C177.698 50.66 177.905 50.74 178.051 50.9C178.198 51.0467 178.271 51.2467 178.271 51.5C178.271 52.0867 177.765 52.7467 176.751 53.48L176.311 52.84C176.365 52.8 176.465 52.7267 176.611 52.62C176.758 52.5 176.878 52.4067 176.971 52.34C177.051 52.2733 177.105 52.2133 177.131 52.16C176.718 52.0267 176.511 51.8133 176.511 51.52Z" fill="#353535"/>
</svg>
