<svg width="39" height="38" viewBox="0 0 39 38" fill="none" xmlns="http://www.w3.org/2000/svg">
<path d="M37.7768 17.8733C37.5678 17.7866 37.3271 17.8345 37.167 17.9945L35.4912 19.6703V8.27603C35.4912 7.96696 35.2407 7.71648 34.9317 7.71648H30.6324L32.1931 6.15585C32.1933 6.15563 32.1935 6.15533 32.1937 6.15511L33.6975 4.65136C34.0196 4.32919 34.1971 3.90061 34.1971 3.44493C34.1971 2.98925 34.0196 2.56082 33.6975 2.23849L31.9586 0.49961C31.6364 0.177432 31.2078 0 30.7522 0C30.2965 0 29.868 0.177432 29.5457 0.49961L28.0412 2.0041L26.2233 3.82205L22.3289 7.71641H4.96036V2.18086C4.96036 1.87179 4.70981 1.62131 4.40081 1.62131C1.97424 1.62146 0 3.59556 0 6.02227V29.7881C0 29.8294 0.00476528 29.8696 0.0132534 29.9083C0.0905404 30.938 0.53602 31.8947 1.28052 32.621C2.07632 33.3971 3.12684 33.8246 4.23864 33.8246H21.3369L18.1167 37.0448C17.9567 37.2049 17.9088 37.4454 17.9954 37.6546C18.082 37.8637 18.2861 38 18.5124 38H37.5627C37.8717 38 38.1223 37.7495 38.1223 37.4405V18.3903C38.1223 18.164 37.9859 17.9599 37.7768 17.8733ZM30.3372 1.29102C30.5659 1.06214 30.9386 1.06214 31.1673 1.29102L32.9063 3.02998C33.1352 3.25878 33.1352 3.63129 32.9063 3.86018L31.7975 4.969L29.2283 2.39984L30.3372 1.29102ZM28.437 3.19118L31.0061 5.76026L29.9794 6.78695L27.4104 4.21787L28.437 3.19118ZM37.0033 24.6776H35.971C35.6619 24.6776 35.4114 24.9281 35.4114 25.2372C35.4114 25.5462 35.6619 25.7967 35.971 25.7967H37.0033V27.4829H35.971C35.6619 27.4829 35.4114 27.7333 35.4114 28.0424C35.4114 28.3515 35.6619 28.602 35.971 28.602H37.0033V30.2881H35.971C35.6619 30.2881 35.4114 30.5385 35.4114 30.8476C35.4114 31.1567 35.6619 31.4072 35.971 31.4072H37.0033V33.0933H35.971C35.6619 33.0933 35.4114 33.3439 35.4114 33.6529C35.4114 33.9619 35.6619 34.2124 35.971 34.2124H37.0033V36.8811H19.8632L25.5151 31.2293C25.7336 31.0107 25.7336 30.6565 25.5151 30.4379C25.49 30.4129 25.4631 30.3911 25.4348 30.3718C25.217 30.2225 24.9172 30.2445 24.7237 30.4379L22.456 32.7056H4.23872C2.54168 32.7056 1.17554 31.3807 1.12178 29.6867C1.12498 29.5804 1.13324 29.475 1.1465 29.3707C1.14657 29.3701 1.14665 29.3696 1.14672 29.369C1.15297 29.3194 1.1605 29.2702 1.16906 29.2212C1.17003 29.2156 1.17107 29.21 1.17204 29.2044C1.17985 29.1607 1.18864 29.1172 1.19825 29.0739C1.20093 29.0618 1.20375 29.0498 1.20658 29.0378C1.21507 29.0011 1.22423 28.9647 1.23406 28.9285C1.23942 28.9088 1.245 28.8894 1.25074 28.8698C1.25893 28.8414 1.26742 28.813 1.27643 28.7849C1.28543 28.7568 1.29504 28.7291 1.30479 28.7013C1.31157 28.6819 1.31827 28.6624 1.32557 28.6431C1.33919 28.6065 1.35364 28.5703 1.36853 28.5343C1.37277 28.5239 1.37694 28.5134 1.38134 28.5031C1.40047 28.4584 1.42035 28.4143 1.44135 28.3706C1.44224 28.3688 1.44306 28.3669 1.44395 28.365C1.88162 27.4593 2.72336 26.7841 3.73352 26.5746C3.73635 26.574 3.73918 26.5733 3.74201 26.5727C3.78832 26.5632 3.83508 26.5551 3.88214 26.5476C3.88996 26.5463 3.89778 26.5448 3.90574 26.5436C3.94826 26.5371 3.99122 26.532 4.03418 26.5272C4.04625 26.5259 4.05823 26.524 4.07037 26.5228C4.11184 26.5186 4.15369 26.5159 4.19553 26.5133C4.20879 26.5125 4.22204 26.5111 4.23529 26.5104C4.29009 26.5076 4.34534 26.5062 4.40081 26.5062C4.70981 26.5062 4.96036 26.2557 4.96036 25.9467V21.8895C4.96036 21.5805 4.70981 21.33 4.40081 21.33C4.09181 21.33 3.84126 21.5805 3.84126 21.8895V25.4223C2.8964 25.5418 2.01936 25.9633 1.3278 26.6386C1.25506 26.7096 1.18611 26.7835 1.11895 26.8585V6.02227C1.11895 4.40349 2.29731 3.05455 3.84119 2.78814V8.27603V19.6514V19.6515C3.84119 19.9605 4.09174 20.2111 4.40074 20.2111C4.70974 20.2111 4.96029 19.9605 4.96029 19.6515V19.6514V8.83558H21.2099L18.1166 11.9288C17.8981 12.1474 17.8981 12.5016 18.1166 12.7202C18.3352 12.9386 18.6894 12.9386 18.9079 12.7202L22.9564 8.6717C22.9565 8.67155 22.9566 8.6714 22.9567 8.67132L26.6189 5.00913L29.1879 7.57829L28.8865 7.87969C28.8863 7.87992 28.886 7.88014 28.8858 7.88036L17.6034 19.1629L15.0343 16.5938L17.2582 14.3699C17.4767 14.1513 17.4767 13.7971 17.2582 13.5786C17.0397 13.3601 16.6854 13.3601 16.467 13.5786L13.8473 16.1982C13.8333 16.2122 13.8202 16.227 13.8079 16.2422C13.8038 16.2472 13.8002 16.2527 13.7963 16.258C13.7884 16.2685 13.7807 16.279 13.7735 16.29C13.7694 16.2964 13.7656 16.303 13.7618 16.3096C13.7556 16.32 13.7496 16.3306 13.7442 16.3414C13.7406 16.3484 13.7374 16.3555 13.7341 16.3628C13.7291 16.3737 13.7245 16.3849 13.7203 16.3961C13.7188 16.4 13.7169 16.4037 13.7155 16.4077L12.6253 19.4958L11.8821 21.6014C11.8723 21.6294 11.8652 21.6578 11.8599 21.6865H9.99905C9.69005 21.6865 9.4395 21.937 9.4395 22.2461C9.4395 22.5551 9.69005 22.8056 9.99905 22.8056H25.4947C25.8038 22.8056 26.0543 22.5551 26.0543 22.2461C26.0543 21.937 25.8038 21.6865 25.4947 21.6865H14.3772L17.7896 20.4819C17.7924 20.4809 17.7951 20.4795 17.798 20.4784C17.8112 20.4735 17.8242 20.468 17.8371 20.4621C17.8423 20.4597 17.8474 20.4575 17.8524 20.455C17.8658 20.4483 17.879 20.441 17.8919 20.4331C17.8961 20.4306 17.9004 20.4282 17.9045 20.4256C17.918 20.417 17.9311 20.4075 17.944 20.3976C17.9472 20.3951 17.9505 20.393 17.9536 20.3904C17.9692 20.3779 17.9845 20.3644 17.9989 20.35L29.5133 8.83565H34.3721V20.7895L26.3682 28.7935C26.1496 29.0121 26.1496 29.3663 26.3682 29.5848C26.3818 29.5984 26.396 29.6112 26.4107 29.6232C26.5133 29.7068 26.6386 29.7487 26.7638 29.7487C26.8891 29.7487 27.0145 29.7068 27.117 29.6232C27.1317 29.6113 27.1459 29.5984 27.1595 29.5848C27.1597 29.5846 27.1595 29.5848 27.1597 29.5846L37.0033 19.7409V24.6776ZM16.58 19.722L14.9772 20.2878L13.9093 19.2199L14.4751 17.6172L16.58 19.722Z" fill="#353535"/>
</svg>
