<svg width="20" height="14" viewBox="0 0 20 14" fill="none" xmlns="http://www.w3.org/2000/svg">
<path d="M19.5879 2.18243C19.3575 1.32903 18.6819 0.65631 17.8252 0.426516C16.2602 0 9.99977 0 9.99977 0C9.99977 0 3.73963 0 2.17456 0.410345C1.33435 0.639896 0.642335 1.32915 0.411866 2.18243C0 3.74113 0 6.97368 0 6.97368C0 6.97368 0 10.2225 0.411866 11.7649C0.642579 12.6182 1.31787 13.2909 2.17469 13.5207C3.75611 13.9474 10 13.9474 10 13.9474C10 13.9474 16.2602 13.9474 17.8252 13.537C18.682 13.3074 19.3575 12.6346 19.5882 11.7814C19.9999 10.2225 19.9999 6.9901 19.9999 6.9901C19.9999 6.9901 20.0164 3.74113 19.5879 2.18243ZM8.00661 9.96003V3.98734L13.2124 6.97368L8.00661 9.96003Z" fill="white"/>
</svg>
