<svg width="118" height="83" viewBox="0 0 118 83" fill="none" xmlns="http://www.w3.org/2000/svg">
<g filter="url(#filter0_d)">
<path d="M54.7109 43.9473C54.7109 53.5501 52.5462 60.9557 48.2168 66.1641C43.9199 71.3724 37.849 73.9766 30.0039 73.9766C22.0938 73.9766 15.974 71.3561 11.6445 66.1152C7.3151 60.8743 5.15039 53.485 5.15039 43.9473V30.959C5.15039 21.3561 7.29883 13.9505 11.5957 8.74219C15.9251 3.53385 22.0286 0.929688 29.9062 0.929688C37.7839 0.929688 43.8874 3.55013 48.2168 8.79102C52.5462 14.0319 54.7109 21.4375 54.7109 31.0078V43.9473ZM38.2559 28.8594C38.2559 23.7487 37.5885 19.9401 36.2539 17.4336C34.9193 14.8945 32.8034 13.625 29.9062 13.625C27.0742 13.625 25.0072 14.7969 23.7051 17.1406C22.4355 19.4844 21.752 23.0326 21.6543 27.7852V45.9492C21.6543 51.2552 22.3216 55.1452 23.6562 57.6191C24.9909 60.0605 27.1068 61.2812 30.0039 61.2812C32.8034 61.2812 34.8704 60.0931 36.2051 57.7168C37.5397 55.3079 38.2233 51.5482 38.2559 46.4375V28.8594ZM112.865 73H63.2559V62.2578L86.1074 38.2344C91.7389 31.8216 94.5547 26.7272 94.5547 22.9512C94.5547 19.8913 93.8874 17.5638 92.5527 15.9688C91.2181 14.3737 89.2812 13.5762 86.7422 13.5762C84.2357 13.5762 82.2012 14.6504 80.6387 16.7988C79.0762 18.9147 78.2949 21.5677 78.2949 24.7578H61.791C61.791 20.3958 62.8815 16.3757 65.0625 12.6973C67.2435 8.98633 70.2708 6.08919 74.1445 4.00586C78.0182 1.92253 82.3477 0.880859 87.1328 0.880859C94.8151 0.880859 100.723 2.65495 104.857 6.20312C109.024 9.7513 111.107 14.8457 111.107 21.4863C111.107 24.2858 110.587 27.0202 109.545 29.6895C108.503 32.3262 106.876 35.1094 104.662 38.0391C102.481 40.9362 98.9492 44.8262 94.0664 49.709L84.8867 60.3047H112.865V73Z" fill="white"/>
<path d="M48.2168 66.1641L47.8323 65.8444L47.8311 65.8459L48.2168 66.1641ZM11.5957 8.74219L11.2112 8.42257L11.21 8.424L11.5957 8.74219ZM36.2539 17.4336L35.8113 17.6662L35.8126 17.6686L36.2539 17.4336ZM23.7051 17.1406L23.268 16.8978L23.2654 16.9025L23.7051 17.1406ZM21.6543 27.7852L21.1543 27.7749V27.7852H21.6543ZM23.6562 57.6191L23.2162 57.8565L23.2175 57.859L23.6562 57.6191ZM36.2051 57.7168L36.641 57.9616L36.6424 57.9591L36.2051 57.7168ZM38.2559 46.4375L38.7559 46.4407V46.4375H38.2559ZM54.2109 43.9473C54.2109 53.4814 52.0613 60.7569 47.8323 65.8444L48.6013 66.4837C53.0312 61.1545 55.2109 53.6189 55.2109 43.9473H54.2109ZM47.8311 65.8459C43.6451 70.9198 37.7267 73.4766 30.0039 73.4766V74.4766C37.9712 74.4766 44.1947 71.825 48.6025 66.4823L47.8311 65.8459ZM30.0039 73.4766C22.2157 73.4766 16.2484 70.9032 12.03 65.7968L11.2591 66.4337C15.6995 71.809 21.9718 74.4766 30.0039 74.4766V73.4766ZM12.03 65.7968C7.7995 60.6757 5.65039 53.415 5.65039 43.9473H4.65039C4.65039 53.555 6.83071 61.0731 11.2591 66.4337L12.03 65.7968ZM5.65039 43.9473V30.959H4.65039V43.9473H5.65039ZM5.65039 30.959C5.65039 21.4241 7.78413 14.148 11.9814 9.06038L11.21 8.424C6.81352 13.7531 4.65039 21.2881 4.65039 30.959H5.65039ZM11.9802 9.06181C16.1986 3.98702 22.1502 1.42969 29.9062 1.42969V0.429688C21.9071 0.429688 15.6516 3.08069 11.2112 8.42257L11.9802 9.06181ZM29.9062 1.42969C37.6612 1.42969 43.6125 4.0025 47.8313 9.10946L48.6023 8.47257C44.1622 3.09776 37.9065 0.429688 29.9062 0.429688V1.42969ZM47.8313 9.10946C52.0616 14.2303 54.2109 21.507 54.2109 31.0078H55.2109C55.2109 21.368 53.0308 13.8335 48.6023 8.47257L47.8313 9.10946ZM54.2109 31.0078V43.9473H55.2109V31.0078H54.2109ZM38.7559 28.8594C38.7559 23.7226 38.0881 19.8144 36.6952 17.1986L35.8126 17.6686C37.089 20.0658 37.7559 23.7748 37.7559 28.8594H38.7559ZM36.6965 17.201C35.9936 15.8637 35.0718 14.8375 33.9233 14.1484C32.775 13.4594 31.4295 13.125 29.9062 13.125V14.125C31.2802 14.125 32.4412 14.4253 33.4088 15.0059C34.3761 15.5863 35.1796 16.4644 35.8113 17.6662L36.6965 17.201ZM29.9062 13.125C28.4204 13.125 27.1073 13.4329 25.9853 14.0689C24.862 14.7058 23.9578 15.6562 23.268 16.8978L24.1422 17.3834C24.7544 16.2813 25.5348 15.4739 26.4785 14.9389C27.4236 14.4031 28.5601 14.125 29.9062 14.125V13.125ZM23.2654 16.9025C21.9388 19.3516 21.2526 22.9959 21.1544 27.7749L22.1542 27.7954C22.2513 23.0692 22.9323 19.6171 24.1447 17.3788L23.2654 16.9025ZM21.1543 27.7852V45.9492H22.1543V27.7852H21.1543ZM21.1543 45.9492C21.1543 51.2767 21.8208 55.27 23.2162 57.8565L24.0963 57.3817C22.8224 55.0204 22.1543 51.2337 22.1543 45.9492H21.1543ZM23.2175 57.859C23.9226 59.1488 24.8463 60.1365 25.9943 60.7988C27.1412 61.4605 28.484 61.7812 30.0039 61.7812V60.7812C28.6267 60.7812 27.4629 60.4916 26.494 59.9326C25.5261 59.3743 24.7245 58.5309 24.095 57.3793L23.2175 57.859ZM30.0039 61.7812C31.4757 61.7812 32.7814 61.4683 33.903 60.8236C35.0253 60.1785 35.936 59.2169 36.641 57.9616L35.7691 57.4719C35.1395 58.593 34.3494 59.4136 33.4046 59.9566C32.4592 60.5001 31.3315 60.7812 30.0039 60.7812V61.7812ZM36.6424 57.9591C38.0392 55.438 38.7231 51.5748 38.7558 46.4407L37.7559 46.4343C37.7235 51.5216 37.0402 55.1778 35.7677 57.4745L36.6424 57.9591ZM38.7559 46.4375V28.8594H37.7559V46.4375H38.7559ZM112.865 73V73.5H113.365V73H112.865ZM63.2559 73H62.7559V73.5H63.2559V73ZM63.2559 62.2578L62.8936 61.9132L62.7559 62.058V62.2578H63.2559ZM86.1074 38.2344L86.4697 38.579L86.4766 38.5718L86.4831 38.5643L86.1074 38.2344ZM80.6387 16.7988L81.0409 17.0959L81.043 17.0929L80.6387 16.7988ZM78.2949 24.7578V25.2578H78.7949V24.7578H78.2949ZM61.791 24.7578H61.291V25.2578H61.791V24.7578ZM65.0625 12.6973L65.4926 12.9523L65.4936 12.9506L65.0625 12.6973ZM104.857 6.20312L104.532 6.58254L104.533 6.5838L104.857 6.20312ZM109.545 29.6895L110.01 29.8732L110.011 29.8712L109.545 29.6895ZM104.662 38.0391L104.263 37.7376L104.263 37.7383L104.662 38.0391ZM94.0664 49.709L93.7129 49.3554L93.7002 49.3681L93.6885 49.3816L94.0664 49.709ZM84.8867 60.3047L84.5088 59.9773L83.792 60.8047H84.8867V60.3047ZM112.865 60.3047H113.365V59.8047H112.865V60.3047ZM112.865 72.5H63.2559V73.5H112.865V72.5ZM63.7559 73V62.2578H62.7559V73H63.7559ZM63.6181 62.6024L86.4697 38.579L85.7451 37.8898L62.8936 61.9132L63.6181 62.6024ZM86.4831 38.5643C89.3127 35.3422 91.4492 32.4354 92.8805 29.8459C94.3091 27.2612 95.0547 24.9576 95.0547 22.9512H94.0547C94.0547 24.7208 93.3924 26.8524 92.0053 29.3621C90.6208 31.867 88.5336 34.7138 85.7317 37.9044L86.4831 38.5643ZM95.0547 22.9512C95.0547 19.8276 94.3746 17.3669 92.9362 15.6479L92.1693 16.2896C93.4002 17.7607 94.0547 19.9549 94.0547 22.9512H95.0547ZM92.9362 15.6479C91.4857 13.9144 89.3934 13.0762 86.7422 13.0762V14.0762C89.1691 14.0762 90.9505 14.833 92.1693 16.2896L92.9362 15.6479ZM86.7422 13.0762C84.0648 13.0762 81.8843 14.236 80.2343 16.5047L81.043 17.0929C82.5181 15.0648 84.4066 14.0762 86.7422 14.0762V13.0762ZM80.2365 16.5018C78.5979 18.7207 77.7949 21.4841 77.7949 24.7578H78.7949C78.7949 21.6513 79.5545 19.1087 81.0409 17.0958L80.2365 16.5018ZM78.2949 24.2578H61.791V25.2578H78.2949V24.2578ZM62.291 24.7578C62.291 20.4837 63.3583 16.5519 65.4926 12.9523L64.6324 12.4423C62.4047 16.1994 61.291 20.308 61.291 24.7578H62.291ZM65.4936 12.9506C67.6271 9.32042 70.5865 6.48717 74.3814 4.44621L73.9077 3.56551C69.9552 5.69122 66.8599 8.65224 64.6314 12.4439L65.4936 12.9506ZM74.3814 4.44621C78.176 2.40541 82.4229 1.38086 87.1328 1.38086V0.380859C82.2724 0.380859 77.8605 1.43964 73.9077 3.56551L74.3814 4.44621ZM87.1328 1.38086C94.7441 1.38086 100.519 3.13881 104.532 6.58254L105.183 5.82371C100.927 2.17108 94.8861 0.380859 87.1328 0.380859V1.38086ZM104.533 6.5838C108.565 10.0168 110.607 14.958 110.607 21.4863H111.607C111.607 14.7334 109.483 9.48578 105.182 5.82245L104.533 6.5838ZM110.607 21.4863C110.607 24.2221 110.099 26.895 109.079 29.5077L110.011 29.8712C111.074 27.1454 111.607 24.3495 111.607 21.4863H110.607ZM109.08 29.5057C108.059 32.0902 106.457 34.834 104.263 37.7376L105.061 38.3405C107.294 35.3847 108.948 32.5622 110.01 29.8732L109.08 29.5057ZM104.263 37.7383C102.103 40.607 98.5911 44.4772 93.7129 49.3554L94.42 50.0625C99.3074 45.1751 102.859 41.2654 105.062 38.3398L104.263 37.7383ZM93.6885 49.3816L84.5088 59.9773L85.2646 60.6321L94.4443 50.0364L93.6885 49.3816ZM84.8867 60.8047H112.865V59.8047H84.8867V60.8047ZM112.365 60.3047V73H113.365V60.3047H112.365Z" fill="#13007C"/>
</g>
<defs>
<filter id="filter0_d" x="0.650391" y="0.380859" width="116.715" height="82.0957" filterUnits="userSpaceOnUse" color-interpolation-filters="sRGB">
<feFlood flood-opacity="0" result="BackgroundImageFix"/>
<feColorMatrix in="SourceAlpha" type="matrix" values="0 0 0 0 0 0 0 0 0 0 0 0 0 0 0 0 0 0 127 0" result="hardAlpha"/>
<feOffset dy="4"/>
<feGaussianBlur stdDeviation="2"/>
<feColorMatrix type="matrix" values="0 0 0 0 0.0745098 0 0 0 0 0 0 0 0 0 0.486275 0 0 0 0.25 0"/>
<feBlend mode="normal" in2="BackgroundImageFix" result="effect1_dropShadow"/>
<feBlend mode="normal" in="SourceGraphic" in2="effect1_dropShadow" result="shape"/>
</filter>
</defs>
</svg>
