<svg width="37" height="36" viewBox="0 0 37 36" fill="none" xmlns="http://www.w3.org/2000/svg">
<path d="M41.0424 27.4104H35.2051V21.9571H41.0423C41.5703 21.9571 41.9999 21.5275 41.9999 20.9995V15.0006C41.9999 14.4725 41.5703 14.0429 41.0423 14.0429H35.205V8.31685C35.205 7.78881 34.7754 7.35922 34.2474 7.35922H28.4131V1.6332C28.4131 1.10516 27.9835 0.675568 27.4555 0.675568H24.2504C23.9106 0.675568 23.6352 0.951028 23.6352 1.2908C23.6352 1.63057 23.9106 1.90603 24.2504 1.90603H27.1826V7.3593H21H14.8237V1.90603H21.769C22.1089 1.90603 22.3842 1.63057 22.3842 1.2908C22.3842 0.951028 22.1089 0.675568 21.769 0.675568H14.2084H14.208H0.960994C0.43296 0.675568 0.00336327 1.10516 0.00336327 1.6332V7.91005C0.00123047 7.9313 0 7.95279 0 7.97453V14.6583C0 14.68 0.00123047 14.7015 0.00344531 14.7227V21.2775C0.00123047 21.2987 0 21.3202 0 21.3419V23.5202C0 23.86 0.27546 24.1355 0.615233 24.1355C0.955006 24.1355 1.23047 23.86 1.23047 23.5202V21.9571H6.79488V27.4104H1.23047V25.9897C1.23047 25.6499 0.955006 25.3745 0.615233 25.3745C0.27546 25.3745 0 25.6499 0 25.9897V28.0256C0 28.0474 0.00123047 28.0689 0.00344531 28.09V34.3669C0.00344531 34.8949 0.433042 35.3244 0.961076 35.3244H14.2081H14.2085H27.7949H27.798H41.0424C41.5704 35.3244 42 34.8948 42 34.3669V28.368C42 27.8399 41.5704 27.4104 41.0424 27.4104ZM34.5898 15.2734H40.7695V20.7267H34.5898H28.4131V15.2734H34.5898ZM21.6152 8.58976H27.7979H33.9746V14.043H27.7979H27.7948H21.6152V8.58976ZM27.1796 15.2734V20.7267H21.0004H21H14.8237V15.2734H21H27.1796ZM20.3847 8.58976V14.043H14.2084H14.208H8.02535V8.58976H20.3847ZM1.23391 1.90603H13.5929V7.3593H7.4102H1.23391V1.90603ZM1.23047 8.58968H6.79488V14.0429H1.23047V8.58968ZM1.23391 20.7267V15.2734H7.4102H13.5929V20.7267H7.41052H7.41011H1.23391ZM13.5929 34.0941H1.23391V28.6409H7.4102H7.41061H13.5929V34.0941ZM14.2084 27.4104H14.208H8.02576V21.9571H14.208H14.2084H20.3847V27.4104H14.2084ZM27.1796 34.0941H14.8237V28.6409H21H21.0004H27.1796V34.0941ZM27.7979 27.4104H27.7948H21.6157V21.9571H27.7948H27.7979H33.9746V27.4104H27.7979ZM40.7695 34.0941H28.4131V28.6409H34.5898H40.7695V34.0941Z" fill="#353535"/>
</svg>
