<svg width="40" height="40" viewBox="0 0 40 40" fill="none" xmlns="http://www.w3.org/2000/svg">
<path d="M36.0077 21.398C34.0078 19.0649 31.1414 17.5984 28.0084 17.3984V1.99981C28.0084 1.59985 27.7418 1.33321 27.3418 1.33321H19.3426C19.7425 1.33321 20.0092 1.06657 20.0092 0.666604C20.0092 0.266642 19.7425 0 19.3426 0H10.0101C9.61013 0 9.34349 0.266642 9.34349 0.666604C9.34349 1.06657 9.61013 1.33321 10.0101 1.33321H2.01084C1.61088 1.33321 1.34424 1.59985 1.34424 1.99981V35.33C1.34424 35.73 1.61088 35.9966 2.01084 35.9966H18.6759C18.6759 35.9966 18.6759 35.9966 18.7426 35.9966C22.8089 40.7962 29.9416 41.3295 34.6745 37.3298C39.4073 33.3302 40.0073 26.1309 36.0077 21.398ZM2.67745 34.6634V2.66642H26.6752V17.3984C23.2755 17.5984 20.1425 19.3315 18.1427 22.0646C18.076 22.0646 18.0093 22.0646 18.0093 21.9979H8.01028C7.61032 21.9979 7.34368 22.2646 7.34368 22.6645C7.34368 23.0645 7.61032 23.3311 8.01028 23.3311H17.3427C16.6761 24.5977 16.2762 25.9309 16.0762 27.3308H8.01028C7.61032 27.3308 7.34368 27.5974 7.34368 27.9974C7.34368 28.3973 7.61032 28.664 8.01028 28.664H16.0095C16.0095 29.1306 16.0095 29.5306 16.0762 29.9972H8.01028C7.61032 29.9972 7.34368 30.2638 7.34368 30.6638C7.34368 31.0638 7.61032 31.3304 8.01028 31.3304H16.3428C16.6095 32.5303 17.0761 33.6635 17.7427 34.6634H2.67745ZM27.3418 38.663C21.809 38.663 17.3427 34.1968 17.3427 28.664C17.3427 23.1312 21.809 18.6649 27.3418 18.6649C32.8746 18.6649 37.3409 23.1312 37.3409 28.664C37.3409 34.1968 32.8746 38.663 27.3418 38.663Z" fill="#353535"/>
<path d="M31.3415 27.9974H28.0085V20.6647C28.0085 20.2647 27.7419 19.9981 27.3419 19.9981C26.9419 19.9981 26.6753 20.2647 26.6753 20.6647V28.664C26.6753 29.0639 26.9419 29.3306 27.3419 29.3306H31.3415C31.7415 29.3306 32.0081 29.0639 32.0081 28.664C32.0081 28.264 31.7415 27.9974 31.3415 27.9974Z" fill="#353535"/>
<path d="M5.34371 5.99945H4.6771C4.27714 5.99945 4.0105 6.26609 4.0105 6.66605C4.0105 7.06602 4.27714 7.33266 4.6771 7.33266H5.34371C5.74367 7.33266 6.01031 7.06602 6.01031 6.66605C6.01031 6.26609 5.74367 5.99945 5.34371 5.99945Z" fill="#353535"/>
<path d="M23.342 5.99945H8.01011C7.61015 5.99945 7.34351 6.26609 7.34351 6.66605C7.34351 7.06602 7.61015 7.33266 8.01011 7.33266H23.342C23.742 7.33266 24.0086 7.06602 24.0086 6.66605C24.0086 6.26609 23.742 5.99945 23.342 5.99945Z" fill="#353535"/>
<path d="M16.676 8.66583H8.01011C7.61015 8.66583 7.34351 8.93247 7.34351 9.33244C7.34351 9.7324 7.61015 9.99904 8.01011 9.99904H16.676C17.0759 9.99904 17.3426 9.7324 17.3426 9.33244C17.3426 8.93247 17.0759 8.66583 16.676 8.66583Z" fill="#353535"/>
<path d="M5.34371 11.3323H4.6771C4.27714 11.3323 4.0105 11.5989 4.0105 11.9989C4.0105 12.3988 4.27714 12.6655 4.6771 12.6655H5.34371C5.74367 12.6655 6.01031 12.3988 6.01031 11.9989C6.01031 11.5989 5.74367 11.3323 5.34371 11.3323Z" fill="#353535"/>
<path d="M14.8097 11.3323H8.14366C7.74369 11.3323 7.47705 11.5989 7.47705 11.9989C7.47705 12.3988 7.74369 12.6655 8.14366 12.6655H14.8097C15.2097 12.6655 15.4763 12.3988 15.4763 11.9989C15.4763 11.5989 15.2097 11.3323 14.8097 11.3323Z" fill="#353535"/>
<path d="M24.0086 13.932H8.01011C7.61015 13.932 7.34351 14.1986 7.34351 14.5986C7.34351 14.9986 7.61015 15.2652 8.01011 15.2652H24.0086C24.4086 15.2652 24.6752 14.9986 24.6752 14.5986C24.6752 14.1986 24.4086 13.932 24.0086 13.932Z" fill="#353535"/>
<path d="M5.34371 16.6651H4.6771C4.27714 16.6651 4.0105 16.9317 4.0105 17.3317C4.0105 17.7317 4.27714 17.9983 4.6771 17.9983H5.34371C5.74367 17.9983 6.01031 17.7317 6.01031 17.3317C6.01031 16.9317 5.74367 16.6651 5.34371 16.6651Z" fill="#353535"/>
<path d="M20.6756 16.6651H8.01011C7.61015 16.6651 7.34351 16.9317 7.34351 17.3317C7.34351 17.7317 7.61015 17.9983 8.01011 17.9983H20.6756C21.0756 17.9983 21.3422 17.7317 21.3422 17.3317C21.3422 16.9317 21.0756 16.6651 20.6756 16.6651Z" fill="#353535"/>
<path d="M15.3428 19.3315H8.01011C7.61015 19.3315 7.34351 19.5982 7.34351 19.9981C7.34351 20.3981 7.61015 20.6647 8.01011 20.6647H15.3428C15.7427 20.6647 16.0094 20.3981 16.0094 19.9981C16.0094 19.5982 15.7427 19.3315 15.3428 19.3315Z" fill="#353535"/>
<path d="M5.34371 21.9979H4.6771C4.27714 21.9979 4.0105 22.2646 4.0105 22.6645C4.0105 23.0645 4.27714 23.3311 4.6771 23.3311H5.34371C5.74367 23.3311 6.01031 23.0645 6.01031 22.6645C6.01031 22.2646 5.74367 21.9979 5.34371 21.9979Z" fill="#353535"/>
<path d="M14.6761 24.6644H8.01011C7.61015 24.6644 7.34351 24.931 7.34351 25.331C7.34351 25.7309 7.61015 25.9976 8.01011 25.9976H14.6761C15.0761 25.9976 15.3428 25.7309 15.3428 25.331C15.3428 24.931 15.0761 24.6644 14.6761 24.6644Z" fill="#353535"/>
<path d="M5.34371 27.3308H4.6771C4.27714 27.3308 4.0105 27.5974 4.0105 27.9974C4.0105 28.3973 4.27714 28.664 4.6771 28.664H5.34371C5.74367 28.664 6.01031 28.3973 6.01031 27.9974C6.01031 27.5974 5.74367 27.3308 5.34371 27.3308Z" fill="#353535"/>
</svg>
