<svg width="38" height="38" viewBox="0 0 38 38" fill="none" xmlns="http://www.w3.org/2000/svg">
<path d="M37.125 22.125C37.2908 22.125 37.4497 22.0592 37.5669 21.9419C37.6842 21.8247 37.75 21.6658 37.75 21.5V16.5C37.75 16.3342 37.6842 16.1753 37.5669 16.0581C37.4497 15.9408 37.2908 15.875 37.125 15.875H33.6669C33.287 14.0826 32.58 12.3755 31.5813 10.8394L34.0238 8.39125C34.1407 8.27407 34.2064 8.11526 34.2064 7.94969C34.2064 7.78411 34.1407 7.6253 34.0238 7.50812L30.4925 3.97687C30.3753 3.8599 30.2165 3.7942 30.0509 3.7942C29.8854 3.7942 29.7266 3.8599 29.6094 3.97687L27.1606 6.41875C25.6245 5.42004 23.9174 4.71302 22.125 4.33313V0.875C22.125 0.70924 22.0592 0.550268 21.9419 0.433058C21.8247 0.315848 21.6658 0.25 21.5 0.25H16.5C16.3342 0.25 16.1753 0.315848 16.0581 0.433058C15.9408 0.550268 15.875 0.70924 15.875 0.875V4.33313C14.0826 4.71302 12.3755 5.42004 10.8394 6.41875L8.39125 3.97625C8.27407 3.85927 8.11526 3.79357 7.94969 3.79357C7.78411 3.79357 7.6253 3.85927 7.50812 3.97625L3.97687 7.5075C3.8599 7.62468 3.7942 7.78349 3.7942 7.94906C3.7942 8.11464 3.8599 8.27345 3.97687 8.39062L6.41938 10.8387C5.42037 12.375 4.71314 14.0823 4.33313 15.875H0.875C0.70924 15.875 0.550268 15.9408 0.433058 16.0581C0.315848 16.1753 0.25 16.3342 0.25 16.5V21.5C0.25 21.6658 0.315848 21.8247 0.433058 21.9419C0.550268 22.0592 0.70924 22.125 0.875 22.125H4.33313C4.71302 23.9174 5.42004 25.6245 6.41875 27.1606L3.97625 29.6087C3.85927 29.7259 3.79357 29.8847 3.79357 30.0503C3.79357 30.2159 3.85927 30.3747 3.97625 30.4919L7.5075 34.0231C7.62468 34.1401 7.78349 34.2058 7.94906 34.2058C8.11464 34.2058 8.27345 34.1401 8.39062 34.0231L10.8387 31.5806C12.375 32.5796 14.0823 33.2869 15.875 33.6669V37.125C15.875 37.2908 15.9408 37.4497 16.0581 37.5669C16.1753 37.6842 16.3342 37.75 16.5 37.75H21.5C21.6658 37.75 21.8247 37.6842 21.9419 37.5669C22.0592 37.4497 22.125 37.2908 22.125 37.125V33.6669C23.9169 33.2855 25.6233 32.5774 27.1588 31.5781L32.2581 36.6775C32.8451 37.2593 33.6385 37.5849 34.465 37.5831C35.2914 37.5813 36.0835 37.2522 36.6678 36.6678C37.2522 36.0835 37.5813 35.2914 37.5831 34.465C37.5849 33.6385 37.2593 32.8451 36.6775 32.2581L31.5781 27.1588C32.5774 25.6233 33.2855 23.9169 33.6669 22.125H37.125ZM35.7938 35.7938C35.6196 35.9679 35.4129 36.106 35.1854 36.2003C34.9579 36.2945 34.7141 36.343 34.4678 36.343C34.2216 36.343 33.9777 36.2945 33.7502 36.2003C33.5227 36.106 33.316 35.9679 33.1419 35.7938L21.1744 23.8269C20.8837 23.5366 20.5384 23.3067 20.1585 23.1505C19.7785 22.9943 19.3714 22.9149 18.9606 22.9169C18.8303 22.9168 18.7001 22.9246 18.5706 22.94C17.7598 23.0374 16.9374 22.9345 16.1755 22.6403C15.4136 22.3462 14.7355 21.8697 14.2005 21.2526C13.6655 20.6356 13.2899 19.8968 13.1066 19.1009C12.9234 18.305 12.9381 17.4764 13.1494 16.6875L15.9062 19.445C16.0234 19.5622 16.1824 19.6281 16.3481 19.6281H19C19.1658 19.6281 19.3247 19.5623 19.4419 19.4451C19.5592 19.3279 19.625 19.1689 19.625 19.0031V16.3481C19.625 16.1824 19.5591 16.0234 19.4419 15.9062L16.6875 13.1494C17.4762 12.9386 18.3046 12.9243 19.1001 13.1077C19.8956 13.2912 20.6341 13.6669 21.2508 14.2018C21.8675 14.7368 22.3438 15.4147 22.6378 16.1763C22.9318 16.938 23.0347 17.76 22.9375 18.5706C22.8772 19.0435 22.9258 19.5239 23.0795 19.9752C23.2332 20.4264 23.488 20.8366 23.8244 21.1744L35.7938 33.1419C35.9679 33.316 36.106 33.5227 36.2003 33.7502C36.2945 33.9777 36.343 34.2216 36.343 34.4678C36.343 34.7141 36.2945 34.9579 36.2003 35.1854C36.106 35.4129 35.9679 35.6196 35.7938 35.7938ZM24.7106 20.2938C24.5084 20.0894 24.3557 19.8416 24.264 19.5691C24.1724 19.2967 24.1443 19.0069 24.1819 18.7219C24.3158 17.6109 24.1488 16.4844 23.6984 15.4601C23.2479 14.4358 22.5306 13.5513 21.6213 12.8992C20.712 12.247 19.6442 11.8511 18.5296 11.7528C17.4149 11.6546 16.2943 11.8576 15.285 12.3406C15.1949 12.3839 15.1165 12.4481 15.0564 12.5278C14.9962 12.6076 14.9561 12.7007 14.9393 12.7992C14.9226 12.8976 14.9296 12.9987 14.96 13.0939C14.9903 13.1891 15.0431 13.2756 15.1137 13.3463L18.375 16.6069V18.375H16.6069L13.3463 15.1137C13.2756 15.0431 13.1891 14.9903 13.0939 14.96C12.9987 14.9296 12.8976 14.9226 12.7992 14.9393C12.7007 14.9561 12.6076 14.9962 12.5278 15.0564C12.4481 15.1165 12.3839 15.1949 12.3406 15.285C11.8577 16.294 11.6547 17.4143 11.7529 18.5286C11.851 19.643 12.2466 20.7105 12.8984 21.6196C13.5502 22.5287 14.4342 23.2461 15.4581 23.6967C16.482 24.1474 17.6081 24.3147 18.7188 24.1813C19.0038 24.1438 19.2936 24.172 19.566 24.2638C19.8385 24.3555 20.0863 24.5084 20.2906 24.7106L23.5056 27.925C21.3817 28.998 18.9449 29.2789 16.6326 28.7174C14.3202 28.1559 12.2837 26.7888 10.8883 24.8612C9.49301 22.9337 8.83025 20.5721 9.019 18.2C9.20774 15.828 10.2356 13.6008 11.9182 11.9182C13.6008 10.2356 15.828 9.20774 18.2 9.019C20.5721 8.83025 22.9337 9.49301 24.8612 10.8883C26.7888 12.2837 28.1559 14.3202 28.7174 16.6326C29.2789 18.9449 28.998 21.3817 27.925 23.5056L24.7106 20.2938ZM32.5344 21.3975C32.233 23.1225 31.6019 24.7733 30.6756 26.2594L28.8481 24.4319C30.1593 22.0559 30.5685 19.2864 30.0006 16.6327C29.4326 13.979 27.9256 11.6196 25.7567 9.98848C23.5879 8.35734 20.903 7.56411 18.1959 7.75469C15.4888 7.94527 12.9416 9.10685 11.0227 11.0258C9.10372 12.9447 7.94215 15.492 7.75157 18.199C7.56099 20.9061 8.35421 23.591 9.98536 25.7598C11.6165 27.9287 13.9759 29.4357 16.6296 30.0037C19.2832 30.5717 22.0527 30.1624 24.4288 28.8512L26.2563 30.6788C24.7701 31.605 23.1194 32.2361 21.3944 32.5375C21.2496 32.5623 21.1183 32.6373 21.0233 32.7493C20.9283 32.8613 20.8758 33.0032 20.875 33.15V36.5H17.125V33.15C17.1249 33.0026 17.0727 32.86 16.9777 32.7474C16.8827 32.6347 16.7509 32.5593 16.6056 32.5344C14.634 32.1893 12.7628 31.4138 11.125 30.2631C11.0046 30.1785 10.8583 30.1391 10.7117 30.1518C10.5652 30.1645 10.4278 30.2285 10.3237 30.3325L7.95375 32.6981L5.305 30.0494L7.67063 27.6794C7.77464 27.5753 7.83862 27.438 7.85131 27.2914C7.864 27.1448 7.82458 26.9985 7.74 26.8781C6.58893 25.2394 5.81343 23.3671 5.46875 21.3944C5.44375 21.2486 5.36786 21.1164 5.25456 21.0213C5.14127 20.9262 4.99792 20.8744 4.85 20.875H1.5V17.125H4.85C4.99738 17.1249 5.13999 17.0727 5.25263 16.9777C5.36528 16.8827 5.44072 16.7509 5.46563 16.6056C5.81074 14.634 6.58623 12.7628 7.73688 11.125C7.82146 11.0046 7.86087 10.8583 7.84818 10.7117C7.83549 10.5652 7.77151 10.4278 7.6675 10.3237L5.30188 7.95375L7.95062 5.305L10.3206 7.67063C10.4247 7.77464 10.562 7.83862 10.7086 7.85131C10.8552 7.864 11.0015 7.82458 11.1219 7.74C12.7606 6.58893 14.6329 5.81343 16.6056 5.46875C16.7514 5.44375 16.8836 5.36786 16.9787 5.25456C17.0738 5.14127 17.1256 4.99792 17.125 4.85V1.5H20.875V4.85C20.8751 4.99738 20.9273 5.13999 21.0223 5.25263C21.1173 5.36528 21.2491 5.44072 21.3944 5.46563C23.3671 5.8103 25.2394 6.5858 26.8781 7.73688C26.9985 7.82146 27.1448 7.86087 27.2914 7.84818C27.438 7.83549 27.5753 7.77151 27.6794 7.6675L30.0494 5.30188L32.6981 7.95062L30.3325 10.3206C30.2285 10.4247 30.1645 10.562 30.1518 10.7086C30.1391 10.8552 30.1785 11.0015 30.2631 11.1219C31.4142 12.7606 32.1897 14.6329 32.5344 16.6056C32.5593 16.7509 32.6347 16.8827 32.7474 16.9777C32.86 17.0727 33.0026 17.1249 33.15 17.125H36.5V20.875H33.15C33.0026 20.8751 32.86 20.9273 32.7474 21.0223C32.6347 21.1173 32.5593 21.2491 32.5344 21.3944V21.3975Z" fill="#353535"/>
</svg>
