<svg width="21" height="20" viewBox="0 0 21 20" fill="none" xmlns="http://www.w3.org/2000/svg">
<path d="M15.2936 0H6.33215C3.28888 0 0.812988 2.47601 0.812988 5.51928V14.4807C0.812988 17.5241 3.28888 20 6.33215 20H15.2936C18.3371 20 20.813 17.524 20.813 14.4807V5.51928C20.8131 2.47601 18.3371 0 15.2936 0ZM19.0386 14.4807C19.0386 16.5456 17.3586 18.2255 15.2937 18.2255H6.33215C4.26734 18.2256 2.58749 16.5456 2.58749 14.4807V5.51928C2.58749 3.45447 4.26734 1.7745 6.33215 1.7745H15.2936C17.3585 1.7745 19.0385 3.45447 19.0385 5.51928V14.4807H19.0386Z" fill="white"/>
<path d="M10.813 4.84668C7.97136 4.84668 5.65955 7.15849 5.65955 10.0002C5.65955 12.8417 7.97136 15.1534 10.813 15.1534C13.6547 15.1534 15.9665 12.8417 15.9665 10.0002C15.9665 7.15849 13.6547 4.84668 10.813 4.84668ZM10.813 13.3788C8.94994 13.3788 7.43404 11.8632 7.43404 10.0001C7.43404 8.13683 8.94982 6.62106 10.813 6.62106C12.6763 6.62106 14.192 8.13683 14.192 10.0001C14.192 11.8632 12.6761 13.3788 10.813 13.3788Z" fill="white"/>
<path d="M16.1826 3.34229C15.8408 3.34229 15.5049 3.4807 15.2635 3.72321C15.0208 3.96454 14.8813 4.30051 14.8813 4.64358C14.8813 4.98559 15.0209 5.32144 15.2635 5.56396C15.5048 5.80529 15.8408 5.94488 16.1826 5.94488C16.5257 5.94488 16.8605 5.80529 17.103 5.56396C17.3455 5.32144 17.4839 4.98547 17.4839 4.64358C17.4839 4.30051 17.3455 3.96454 17.103 3.72321C16.8617 3.4807 16.5257 3.34229 16.1826 3.34229Z" fill="white"/>
</svg>
