<svg width="29" height="20" viewBox="0 0 29 20" fill="none" xmlns="http://www.w3.org/2000/svg">
<path d="M28.0883 3.12952C27.7579 1.90578 26.7892 0.941123 25.5607 0.611608C23.3165 0 14.3393 0 14.3393 0C14.3393 0 5.36249 0 3.11824 0.58842C1.91341 0.917586 0.921084 1.90596 0.5906 3.12952C0 5.36465 0 10 0 10C0 10 0 14.6587 0.5906 16.8705C0.921435 18.094 1.88978 19.0587 3.11842 19.3882C5.38612 20 14.3396 20 14.3396 20C14.3396 20 23.3165 20 25.5607 19.4116C26.7893 19.0822 27.7579 18.1176 28.0887 16.894C28.6791 14.6587 28.6791 10.0235 28.6791 10.0235C28.6791 10.0235 28.7028 5.36465 28.0883 3.12952V3.12952ZM11.4812 14.2823V5.7177L18.9461 10L11.4812 14.2823Z" fill="#13007C"/>
</svg>
