<svg width="43" height="28" viewBox="0 0 43 28" fill="none" xmlns="http://www.w3.org/2000/svg">
<g filter="url(#filter0_d)">
<rect x="3" y="3" width="35" height="20" rx="2" fill="url(#paint0_linear)"/>
</g>
<path d="M18.9961 8.46875V14.2695C18.9922 15.0742 18.7383 15.7324 18.2344 16.2441C17.7344 16.7559 17.0547 17.043 16.1953 17.1055L15.8965 17.1172C14.9629 17.1172 14.2188 16.8652 13.6641 16.3613C13.1094 15.8574 12.8281 15.1641 12.8203 14.2812V8.46875H13.9336V14.2461C13.9336 14.8633 14.1035 15.3438 14.4434 15.6875C14.7832 16.0273 15.2676 16.1973 15.8965 16.1973C16.5332 16.1973 17.0195 16.0273 17.3555 15.6875C17.6953 15.3477 17.8652 14.8691 17.8652 14.252V8.46875H18.9961ZM22.3711 14.0645L21.6914 14.7734V17H20.6074V8H21.6914V13.4434L22.2715 12.7461L24.2461 10.6602H25.5645L23.0977 13.3086L25.8516 17H24.5801L22.3711 14.0645ZM29.748 11.6328C29.584 11.6055 29.4062 11.5918 29.2148 11.5918C28.5039 11.5918 28.0215 11.8945 27.7676 12.5V17H26.6836V10.6602H27.7383L27.7559 11.3926C28.1113 10.8262 28.6152 10.543 29.2676 10.543C29.4785 10.543 29.6387 10.5703 29.748 10.625V11.6328Z" fill="white"/>
<defs>
<filter id="filter0_d" x="0" y="0" width="43" height="28" filterUnits="userSpaceOnUse" color-interpolation-filters="sRGB">
<feFlood flood-opacity="0" result="BackgroundImageFix"/>
<feColorMatrix in="SourceAlpha" type="matrix" values="0 0 0 0 0 0 0 0 0 0 0 0 0 0 0 0 0 0 127 0" result="hardAlpha"/>
<feOffset dx="1" dy="1"/>
<feGaussianBlur stdDeviation="2"/>
<feColorMatrix type="matrix" values="0 0 0 0 0.0745098 0 0 0 0 0 0 0 0 0 0.486275 0 0 0 0.5 0"/>
<feBlend mode="normal" in2="BackgroundImageFix" result="effect1_dropShadow"/>
<feBlend mode="normal" in="SourceGraphic" in2="effect1_dropShadow" result="shape"/>
</filter>
<linearGradient id="paint0_linear" x1="20.5" y1="3" x2="20.5" y2="23" gradientUnits="userSpaceOnUse">
<stop stop-color="#13007C"/>
<stop offset="1" stop-color="#6752D9"/>
</linearGradient>
</defs>
</svg>
