<svg width="35" height="35" viewBox="0 0 35 35" fill="none" xmlns="http://www.w3.org/2000/svg">
<g clip-path="url(#clip0)">
<path d="M14.5401 9.38102C16.063 9.38102 17.3021 8.142 17.3021 6.61903C17.3021 5.09605 16.063 3.85696 14.5401 3.85696C13.0171 3.85696 11.7781 5.09605 11.7781 6.61903C11.7781 8.142 13.0171 9.38102 14.5401 9.38102ZM14.5401 4.88235C15.4977 4.88235 16.2767 5.66138 16.2767 6.61903C16.2767 7.5766 15.4977 8.35563 14.5401 8.35563C13.5825 8.35563 12.8035 7.5766 12.8035 6.61903C12.8035 5.66145 13.5825 4.88235 14.5401 4.88235Z" fill="#353535"/>
<path d="M13.5239 29.8732C15.2668 29.8732 16.6848 28.4552 16.6848 26.7124C16.6848 24.9695 15.2668 23.5515 13.5239 23.5515C11.781 23.5515 10.363 24.9695 10.363 26.7124C10.363 28.4552 11.781 29.8732 13.5239 29.8732ZM13.5239 24.5769C14.7015 24.5769 15.6594 25.5349 15.6594 26.7124C15.6594 27.8898 14.7014 28.8478 13.5239 28.8478C12.3464 28.8478 11.3884 27.8898 11.3884 26.7124C11.3884 25.5349 12.3463 24.5769 13.5239 24.5769Z" fill="#353535"/>
<path d="M8.99711 8.99829C7.14929 8.99829 5.646 10.5016 5.646 12.3494C5.646 14.1972 7.14929 15.7005 8.99711 15.7005C10.8449 15.7005 12.3482 14.1972 12.3482 12.3494C12.3482 10.5016 10.8449 8.99829 8.99711 8.99829ZM8.99711 14.6752C7.71469 14.6752 6.67139 13.6319 6.67139 12.3495C6.67139 11.0671 7.71475 10.0238 8.99711 10.0238C10.2795 10.0238 11.3228 11.0671 11.3228 12.3495C11.3228 13.6319 10.2795 14.6752 8.99711 14.6752Z" fill="#353535"/>
<path d="M8.03739 23.8385C9.88521 23.8385 11.3885 22.3352 11.3885 20.4874C11.3885 18.6396 9.88521 17.1363 8.03739 17.1363C6.18957 17.1363 4.68628 18.6396 4.68628 20.4874C4.68628 22.3352 6.18957 23.8385 8.03739 23.8385ZM8.03739 18.1616C9.31981 18.1616 10.3631 19.2049 10.3631 20.4873C10.3631 21.7698 9.31974 22.8131 8.03739 22.8131C6.75504 22.8131 5.71167 21.7698 5.71167 20.4873C5.71167 19.2049 6.75497 18.1616 8.03739 18.1616Z" fill="#353535"/>
<path d="M11.3775 33.5269C11.6557 33.5781 11.923 33.3932 11.974 33.1146C12.0249 32.836 11.8403 32.569 11.5617 32.5182C9.59659 32.1594 7.83867 31.1845 6.47799 29.6989C2.51461 25.3719 0.749997 20.7049 1.23309 15.8275C2.32321 4.82013 13.9308 -0.658695 24.6357 1.48237C26.0819 1.7716 26.6452 2.95038 26.6879 3.87186C26.7302 4.78144 26.2848 5.99132 24.8904 6.4079C23.0889 6.94609 21.6644 7.7316 20.6566 8.74256C18.3469 11.0597 18.1468 14.9694 20.3523 17.6029C21.4413 18.9033 22.138 20.4802 22.3719 22.1711C21.2109 24.81 20.0236 27.7983 19.1048 30.5643C17.6286 31.7837 15.7608 32.5226 13.8288 32.6488C13.5462 32.6673 13.3321 32.9112 13.3505 33.1938C13.3683 33.465 13.5937 33.6732 13.8617 33.6732C13.8729 33.6732 13.8842 33.6728 13.8956 33.672C15.5593 33.5634 17.1805 33.0449 18.5901 32.1856C18.2919 33.2244 18.7787 34.3126 19.7577 34.783C20.8032 35.2855 22.0689 34.8874 22.6394 33.8779C23.6266 32.1311 24.6964 30.0111 25.7328 27.7469C25.8507 27.4894 25.7374 27.1852 25.48 27.0673C25.2225 26.9494 24.9183 27.0627 24.8005 27.3201C23.776 29.5584 22.72 31.6515 21.7468 33.3734C21.4407 33.9149 20.7623 34.128 20.2019 33.8589C19.6716 33.6041 19.4103 33.0118 19.5805 32.4506C20.904 28.0848 23.1112 22.7706 25.1332 18.6614L27.8889 19.841C27.2464 21.592 26.5144 23.4151 25.7676 25.1437C25.6555 25.4037 25.7753 25.7053 26.0353 25.8175C26.2956 25.9298 26.597 25.8099 26.7091 25.5499C28.1158 22.2855 29.6858 18.2081 30.602 14.7778C30.9277 14.6609 31.1631 14.4253 31.2878 14.1338L31.7315 13.0972C31.8266 12.8751 31.8476 12.6398 31.8061 12.4184C32.6595 11.8737 33.854 10.9019 34.473 9.45589C35.2377 7.66967 34.7295 4.64349 34.3586 2.99864C34.2875 2.68351 34.0677 2.41937 33.7707 2.29222C33.4736 2.16507 33.1308 2.18825 32.8537 2.35443C31.4075 3.22156 28.8671 4.94283 28.1025 6.72891C27.4837 8.17436 27.6049 9.70895 27.7997 10.7025C27.6057 10.8283 27.4532 11.0086 27.3602 11.226L26.9165 12.2626C26.7907 12.5563 26.7846 12.8881 26.9238 13.2032C25.5481 15.4577 24.1823 18.1938 23.0806 20.5944C22.6936 19.2585 22.0367 18.0172 21.1385 16.9447C20.2785 15.9177 19.8424 14.7141 19.8424 13.367C19.8424 10.4601 21.6396 8.44937 25.184 7.39049C26.7981 6.90829 27.7905 5.5085 27.7122 3.82442C27.6475 2.43154 26.7333 0.856342 24.8368 0.477019C13.552 -1.78005 1.36591 4.08459 0.212628 15.7264C-0.300405 20.9063 1.55315 25.8403 5.72187 30.3915C7.23486 32.0434 9.19054 33.1276 11.3775 33.5269ZM27.7102 13.8834C28.3821 14.1709 28.8951 14.3906 29.567 14.6782C29.2318 15.9109 28.7778 17.3434 28.2369 18.8746L25.5921 17.7424C26.3268 16.2938 27.0498 14.9765 27.7102 13.8834ZM30.7889 12.6936L30.3451 13.7302C30.3093 13.8139 30.2155 13.8404 30.1452 13.8103L27.939 12.8659C27.8675 12.8353 27.8236 12.7487 27.859 12.666L28.3027 11.6294C28.3373 11.5488 28.4288 11.5176 28.5028 11.5494L30.7088 12.4937C30.7799 12.5242 30.8237 12.6124 30.7889 12.6936ZM29.045 7.13237C29.2695 6.60792 30.1397 5.18045 33.3628 3.2446C34.1873 6.91321 33.7547 8.52778 33.5303 9.0523C33.0009 10.289 31.936 11.1287 31.1962 11.5911C31.1688 11.5767 31.1407 11.5633 31.1122 11.5511L28.9061 10.6067H28.9061C28.8775 10.5945 28.8486 10.5835 28.8192 10.5736C28.6432 9.71907 28.5157 8.36898 29.045 7.13237Z" fill="#353535"/>
</g>
<defs>
<clipPath id="clip0">
<rect width="35" height="35" fill="white"/>
</clipPath>
</defs>
</svg>
