<svg width="116" height="82" viewBox="0 0 116 82" fill="none" xmlns="http://www.w3.org/2000/svg">
<g filter="url(#filter0_d)">
<path d="M53.7109 43.9473C53.7109 53.5501 51.5462 60.9557 47.2168 66.1641C42.9199 71.3724 36.849 73.9766 29.0039 73.9766C21.0938 73.9766 14.974 71.3561 10.6445 66.1152C6.3151 60.8743 4.15039 53.485 4.15039 43.9473V30.959C4.15039 21.3561 6.29883 13.9505 10.5957 8.74219C14.9251 3.53385 21.0286 0.929688 28.9062 0.929688C36.7839 0.929688 42.8874 3.55013 47.2168 8.79102C51.5462 14.0319 53.7109 21.4375 53.7109 31.0078V43.9473ZM37.2559 28.8594C37.2559 23.7487 36.5885 19.9401 35.2539 17.4336C33.9193 14.8945 31.8034 13.625 28.9062 13.625C26.0742 13.625 24.0072 14.7969 22.7051 17.1406C21.4355 19.4844 20.752 23.0326 20.6543 27.7852V45.9492C20.6543 51.2552 21.3216 55.1452 22.6562 57.6191C23.9909 60.0605 26.1068 61.2812 29.0039 61.2812C31.8034 61.2812 33.8704 60.0931 35.2051 57.7168C36.5397 55.3079 37.2233 51.5482 37.2559 46.4375V28.8594ZM77.2949 30.5684H85.0586C91.2109 30.5684 94.2871 27.5573 94.2871 21.5352C94.2871 19.1914 93.5547 17.2871 92.0898 15.8223C90.625 14.3249 88.5579 13.5762 85.8887 13.5762C83.7077 13.5762 81.8034 14.2109 80.1758 15.4805C78.5807 16.75 77.7832 18.3288 77.7832 20.2168H61.3281C61.3281 16.4733 62.3698 13.1367 64.4531 10.207C66.5365 7.27734 69.4173 4.9987 73.0957 3.37109C76.8066 1.71094 80.8757 0.880859 85.3027 0.880859C93.2129 0.880859 99.4303 2.6875 103.955 6.30078C108.48 9.91406 110.742 14.8783 110.742 21.1934C110.742 24.2533 109.798 27.1504 107.91 29.8848C106.055 32.5866 103.337 34.7839 99.7559 36.4766C103.532 37.8438 106.494 39.9271 108.643 42.7266C110.791 45.4935 111.865 48.9277 111.865 53.0293C111.865 59.377 109.424 64.4551 104.541 68.2637C99.6582 72.0723 93.2454 73.9766 85.3027 73.9766C80.6478 73.9766 76.3184 73.0977 72.3145 71.3398C68.3431 69.5495 65.332 67.0918 63.2812 63.9668C61.2305 60.8092 60.2051 57.2285 60.2051 53.2246H76.7578C76.7578 55.4056 77.6367 57.2936 79.3945 58.8887C81.1523 60.4837 83.3171 61.2812 85.8887 61.2812C88.7858 61.2812 91.097 60.4837 92.8223 58.8887C94.5475 57.2611 95.4102 55.194 95.4102 52.6875C95.4102 49.1068 94.515 46.5677 92.7246 45.0703C90.9342 43.5729 88.4603 42.8242 85.3027 42.8242H77.2949V30.5684Z" fill="#353535"/>
</g>
<defs>
<filter id="filter0_d" x="0.150391" y="0.880859" width="115.715" height="81.0957" filterUnits="userSpaceOnUse" color-interpolation-filters="sRGB">
<feFlood flood-opacity="0" result="BackgroundImageFix"/>
<feColorMatrix in="SourceAlpha" type="matrix" values="0 0 0 0 0 0 0 0 0 0 0 0 0 0 0 0 0 0 127 0" result="hardAlpha"/>
<feOffset dy="4"/>
<feGaussianBlur stdDeviation="2"/>
<feColorMatrix type="matrix" values="0 0 0 0 0 0 0 0 0 0 0 0 0 0 0 0 0 0 0.25 0"/>
<feBlend mode="normal" in2="BackgroundImageFix" result="effect1_dropShadow"/>
<feBlend mode="normal" in="SourceGraphic" in2="effect1_dropShadow" result="shape"/>
</filter>
</defs>
</svg>
