<svg width="43" height="28" viewBox="0 0 43 28" fill="none" xmlns="http://www.w3.org/2000/svg">
<g filter="url(#filter0_d)">
<rect x="3" y="3" width="35" height="20" rx="2" fill="url(#paint0_linear)"/>
</g>
<path d="M15.8125 13.0566H12.1152V16.0801H16.4102V17H10.9902V8.46875H16.3516V9.39453H12.1152V12.1367H15.8125V13.0566ZM18.666 10.6602L18.7012 11.457C19.1855 10.8477 19.8184 10.543 20.5996 10.543C21.9395 10.543 22.6152 11.2988 22.627 12.8105V17H21.543V12.8047C21.5391 12.3477 21.4336 12.0098 21.2266 11.791C21.0234 11.5723 20.7051 11.4629 20.2715 11.4629C19.9199 11.4629 19.6113 11.5566 19.3457 11.7441C19.0801 11.9316 18.873 12.1777 18.7246 12.4824V17H17.6406V10.6602H18.666ZM24.0039 13.7773C24.0039 12.7891 24.2324 12.0039 24.6895 11.4219C25.1465 10.8359 25.752 10.543 26.5059 10.543C27.2793 10.543 27.8828 10.8164 28.3164 11.3633L28.3691 10.6602H29.3594V16.8477C29.3594 17.668 29.1152 18.3145 28.627 18.7871C28.1426 19.2598 27.4902 19.4961 26.6699 19.4961C26.2129 19.4961 25.7656 19.3984 25.3281 19.2031C24.8906 19.0078 24.5566 18.7402 24.3262 18.4004L24.8887 17.75C25.3535 18.3242 25.9219 18.6113 26.5938 18.6113C27.1211 18.6113 27.5312 18.4629 27.8242 18.166C28.1211 17.8691 28.2695 17.4512 28.2695 16.9121V16.3672C27.8359 16.8672 27.2441 17.1172 26.4941 17.1172C25.752 17.1172 25.1504 16.8184 24.6895 16.2207C24.2324 15.623 24.0039 14.8086 24.0039 13.7773ZM25.0938 13.9004C25.0938 14.6152 25.2402 15.1777 25.5332 15.5879C25.8262 15.9941 26.2363 16.1973 26.7637 16.1973C27.4473 16.1973 27.9492 15.8867 28.2695 15.2656V12.3711C27.9375 11.7656 27.4395 11.4629 26.7754 11.4629C26.248 11.4629 25.8359 11.668 25.5391 12.0781C25.2422 12.4883 25.0938 13.0957 25.0938 13.9004Z" fill="white"/>
<defs>
<filter id="filter0_d" x="0" y="0" width="43" height="28" filterUnits="userSpaceOnUse" color-interpolation-filters="sRGB">
<feFlood flood-opacity="0" result="BackgroundImageFix"/>
<feColorMatrix in="SourceAlpha" type="matrix" values="0 0 0 0 0 0 0 0 0 0 0 0 0 0 0 0 0 0 127 0" result="hardAlpha"/>
<feOffset dx="1" dy="1"/>
<feGaussianBlur stdDeviation="2"/>
<feColorMatrix type="matrix" values="0 0 0 0 0.0745098 0 0 0 0 0 0 0 0 0 0.486275 0 0 0 0.5 0"/>
<feBlend mode="normal" in2="BackgroundImageFix" result="effect1_dropShadow"/>
<feBlend mode="normal" in="SourceGraphic" in2="effect1_dropShadow" result="shape"/>
</filter>
<linearGradient id="paint0_linear" x1="20.5" y1="3" x2="20.5" y2="23" gradientUnits="userSpaceOnUse">
<stop stop-color="#13007C"/>
<stop offset="1" stop-color="#6752D9"/>
</linearGradient>
</defs>
</svg>
