<svg width="14" height="20" viewBox="0 0 14 20" fill="none" xmlns="http://www.w3.org/2000/svg">
<path d="M6.99966 0C3.17272 0 0.0593262 3.11385 0.0593262 6.94089C0.0593262 10.6248 6.35641 19.2316 6.62454 19.596L6.87477 19.9366C6.90404 19.9766 6.95063 20 6.99966 20C7.04944 20 7.09574 19.9766 7.12531 19.9366L7.37539 19.596C7.64367 19.2316 13.9406 10.6248 13.9406 6.94089C13.9406 3.11385 10.8267 0 6.99966 0ZM6.99966 4.45468C8.37086 4.45468 9.48587 5.56974 9.48587 6.94089C9.48587 8.31134 8.37081 9.42711 6.99966 9.42711C5.62926 9.42711 4.51345 8.31134 4.51345 6.94089C4.51345 5.56974 5.62921 4.45468 6.99966 4.45468Z" fill="white"/>
</svg>
