<svg width="20" height="20" viewBox="0 0 20 20" fill="none" xmlns="http://www.w3.org/2000/svg">
<path d="M18.3952 13.1277C17.1707 13.1277 15.9683 12.9361 14.8291 12.5597C14.2707 12.3693 13.5846 12.5439 13.2439 12.8939L10.995 14.5915C8.38704 13.1993 6.78057 11.5935 5.40745 9.00504L7.05511 6.81483C7.48318 6.38735 7.63672 5.76287 7.45275 5.17693C7.07463 4.03161 6.88255 2.8299 6.88255 1.60489C6.88261 0.719949 6.16265 0 5.27776 0H1.60483C0.719949 0 0 0.719949 0 1.60485C0 11.7481 8.252 20 18.3952 20C19.2801 20 20.0001 19.2801 20.0001 18.3951V14.7325C20 13.8477 19.2801 13.1277 18.3952 13.1277Z" fill="#13007C"/>
</svg>
