<svg width="43" height="28" viewBox="0 0 43 28" fill="none" xmlns="http://www.w3.org/2000/svg">
<g filter="url(#filter0_d)">
<rect x="3" y="3" width="35" height="20" rx="2" fill="url(#paint0_linear)"/>
</g>
<path d="M14.1191 13.5488H12.1152V17H10.9844V8.46875H13.8086C14.7695 8.46875 15.5078 8.6875 16.0234 9.125C16.543 9.5625 16.8027 10.1992 16.8027 11.0352C16.8027 11.5664 16.6582 12.0293 16.3691 12.4238C16.084 12.8184 15.6855 13.1133 15.1738 13.3086L17.1777 16.9297V17H15.9707L14.1191 13.5488ZM12.1152 12.6289H13.8438C14.4023 12.6289 14.8457 12.4844 15.1738 12.1953C15.5059 11.9062 15.6719 11.5195 15.6719 11.0352C15.6719 10.5078 15.5137 10.1035 15.1973 9.82227C14.8848 9.54102 14.4316 9.39844 13.8379 9.39453H12.1152V12.6289ZM22.1289 16.373C21.707 16.8691 21.0879 17.1172 20.2715 17.1172C19.5957 17.1172 19.0801 16.9219 18.7246 16.5312C18.373 16.1367 18.1953 15.5547 18.1914 14.7852V10.6602H19.2754V14.7559C19.2754 15.7168 19.666 16.1973 20.4473 16.1973C21.2754 16.1973 21.8262 15.8887 22.0996 15.2715V10.6602H23.1836V17H22.1523L22.1289 16.373ZM28.5273 15.3184C28.5273 15.0254 28.416 14.7988 28.1934 14.6387C27.9746 14.4746 27.5898 14.334 27.0391 14.2168C26.4922 14.0996 26.0566 13.959 25.7324 13.7949C25.4121 13.6309 25.1738 13.4355 25.0176 13.209C24.8652 12.9824 24.7891 12.7129 24.7891 12.4004C24.7891 11.8809 25.0078 11.4414 25.4453 11.082C25.8867 10.7227 26.4492 10.543 27.1328 10.543C27.8516 10.543 28.4336 10.7285 28.8789 11.0996C29.3281 11.4707 29.5527 11.9453 29.5527 12.5234H28.4629C28.4629 12.2266 28.3359 11.9707 28.082 11.7559C27.832 11.541 27.5156 11.4336 27.1328 11.4336C26.7383 11.4336 26.4297 11.5195 26.207 11.6914C25.9844 11.8633 25.873 12.0879 25.873 12.3652C25.873 12.627 25.9766 12.8242 26.1836 12.957C26.3906 13.0898 26.7637 13.2168 27.3027 13.3379C27.8457 13.459 28.2852 13.6035 28.6211 13.7715C28.957 13.9395 29.2051 14.1426 29.3652 14.3809C29.5293 14.6152 29.6113 14.9023 29.6113 15.2422C29.6113 15.8086 29.3848 16.2637 28.9316 16.6074C28.4785 16.9473 27.8906 17.1172 27.168 17.1172C26.6602 17.1172 26.2109 17.0273 25.8203 16.8477C25.4297 16.668 25.123 16.418 24.9004 16.0977C24.6816 15.7734 24.5723 15.4238 24.5723 15.0488H25.6562C25.6758 15.4121 25.8203 15.7012 26.0898 15.916C26.3633 16.127 26.7227 16.2324 27.168 16.2324C27.5781 16.2324 27.9062 16.1504 28.1523 15.9863C28.4023 15.8184 28.5273 15.5957 28.5273 15.3184Z" fill="white"/>
<defs>
<filter id="filter0_d" x="0" y="0" width="43" height="28" filterUnits="userSpaceOnUse" color-interpolation-filters="sRGB">
<feFlood flood-opacity="0" result="BackgroundImageFix"/>
<feColorMatrix in="SourceAlpha" type="matrix" values="0 0 0 0 0 0 0 0 0 0 0 0 0 0 0 0 0 0 127 0" result="hardAlpha"/>
<feOffset dx="1" dy="1"/>
<feGaussianBlur stdDeviation="2"/>
<feColorMatrix type="matrix" values="0 0 0 0 0.0745098 0 0 0 0 0 0 0 0 0 0.486275 0 0 0 0.5 0"/>
<feBlend mode="normal" in2="BackgroundImageFix" result="effect1_dropShadow"/>
<feBlend mode="normal" in="SourceGraphic" in2="effect1_dropShadow" result="shape"/>
</filter>
<linearGradient id="paint0_linear" x1="20.5" y1="3" x2="20.5" y2="23" gradientUnits="userSpaceOnUse">
<stop stop-color="#13007C"/>
<stop offset="1" stop-color="#6752D9"/>
</linearGradient>
</defs>
</svg>
