<svg width="103" height="82" viewBox="0 0 103 82" fill="none" xmlns="http://www.w3.org/2000/svg">
<g filter="url(#filter0_d)">
<path d="M53.7109 43.9473C53.7109 53.5501 51.5462 60.9557 47.2168 66.1641C42.9199 71.3724 36.849 73.9766 29.0039 73.9766C21.0938 73.9766 14.974 71.3561 10.6445 66.1152C6.3151 60.8743 4.15039 53.485 4.15039 43.9473V30.959C4.15039 21.3561 6.29883 13.9505 10.5957 8.74219C14.9251 3.53385 21.0286 0.929688 28.9062 0.929688C36.7839 0.929688 42.8874 3.55013 47.2168 8.79102C51.5462 14.0319 53.7109 21.4375 53.7109 31.0078V43.9473ZM37.2559 28.8594C37.2559 23.7487 36.5885 19.9401 35.2539 17.4336C33.9193 14.8945 31.8034 13.625 28.9062 13.625C26.0742 13.625 24.0072 14.7969 22.7051 17.1406C21.4355 19.4844 20.752 23.0326 20.6543 27.7852V45.9492C20.6543 51.2552 21.3216 55.1452 22.6562 57.6191C23.9909 60.0605 26.1068 61.2812 29.0039 61.2812C31.8034 61.2812 33.8704 60.0931 35.2051 57.7168C36.5397 55.3079 37.2233 51.5482 37.2559 46.4375V28.8594ZM98.7305 73H82.2266V20.4609L66.0156 25.1973V12.6973L97.2168 1.90625H98.7305V73Z" fill="#353535"/>
</g>
<defs>
<filter id="filter0_d" x="0.150391" y="0.929688" width="102.58" height="81.0469" filterUnits="userSpaceOnUse" color-interpolation-filters="sRGB">
<feFlood flood-opacity="0" result="BackgroundImageFix"/>
<feColorMatrix in="SourceAlpha" type="matrix" values="0 0 0 0 0 0 0 0 0 0 0 0 0 0 0 0 0 0 127 0" result="hardAlpha"/>
<feOffset dy="4"/>
<feGaussianBlur stdDeviation="2"/>
<feColorMatrix type="matrix" values="0 0 0 0 0 0 0 0 0 0 0 0 0 0 0 0 0 0 0.25 0"/>
<feBlend mode="normal" in2="BackgroundImageFix" result="effect1_dropShadow"/>
<feBlend mode="normal" in="SourceGraphic" in2="effect1_dropShadow" result="shape"/>
</filter>
</defs>
</svg>
